G04 #@! TF.GenerationSoftware,KiCad,Pcbnew,5.1.4*
G04 #@! TF.CreationDate,2019-10-10T02:32:09-03:00*
G04 #@! TF.ProjectId,ruler,72756c65-722e-46b6-9963-61645f706362,Alpha*
G04 #@! TF.SameCoordinates,Original*
G04 #@! TF.FileFunction,Legend,Bot*
G04 #@! TF.FilePolarity,Positive*
%FSLAX46Y46*%
G04 Gerber Fmt 4.6, Leading zero omitted, Abs format (unit mm)*
G04 Created by KiCad (PCBNEW 5.1.4) date 2019-10-10 02:32:09*
%MOMM*%
%LPD*%
G04 APERTURE LIST*
%ADD10C,0.200000*%
%ADD11C,0.150000*%
%ADD12C,0.300000*%
%ADD13C,0.100000*%
%ADD14C,0.254000*%
%ADD15C,0.120000*%
%ADD16C,0.050800*%
%ADD17C,0.250000*%
%ADD18C,0.152400*%
%ADD19C,0.160000*%
G04 APERTURE END LIST*
D10*
X172007011Y-125391505D02*
X171340345Y-126391505D01*
X171340345Y-125391505D02*
X172007011Y-126391505D01*
X170959392Y-126391505D02*
X170959392Y-125391505D01*
X170626059Y-126105791D01*
X170292726Y-125391505D01*
X170292726Y-126391505D01*
X169911773Y-125391505D02*
X169245107Y-125391505D01*
X169673678Y-126391505D01*
X168864154Y-126391505D02*
X168864154Y-125391505D01*
X168626059Y-125391505D01*
X168483202Y-125439125D01*
X168387964Y-125534363D01*
X168340345Y-125629601D01*
X168292726Y-125820077D01*
X168292726Y-125962934D01*
X168340345Y-126153410D01*
X168387964Y-126248648D01*
X168483202Y-126343886D01*
X168626059Y-126391505D01*
X168864154Y-126391505D01*
X167864154Y-126010553D02*
X167102250Y-126010553D01*
X166435583Y-125391505D02*
X166340345Y-125391505D01*
X166245107Y-125439125D01*
X166197488Y-125486744D01*
X166149869Y-125581982D01*
X166102250Y-125772458D01*
X166102250Y-126010553D01*
X166149869Y-126201029D01*
X166197488Y-126296267D01*
X166245107Y-126343886D01*
X166340345Y-126391505D01*
X166435583Y-126391505D01*
X166530821Y-126343886D01*
X166578440Y-126296267D01*
X166626059Y-126201029D01*
X166673678Y-126010553D01*
X166673678Y-125772458D01*
X166626059Y-125581982D01*
X166578440Y-125486744D01*
X166530821Y-125439125D01*
X166435583Y-125391505D01*
X165197488Y-125391505D02*
X165673678Y-125391505D01*
X165721297Y-125867696D01*
X165673678Y-125820077D01*
X165578440Y-125772458D01*
X165340345Y-125772458D01*
X165245107Y-125820077D01*
X165197488Y-125867696D01*
X165149869Y-125962934D01*
X165149869Y-126201029D01*
X165197488Y-126296267D01*
X165245107Y-126343886D01*
X165340345Y-126391505D01*
X165578440Y-126391505D01*
X165673678Y-126343886D01*
X165721297Y-126296267D01*
X164197488Y-126391505D02*
X164768916Y-126391505D01*
X164483202Y-126391505D02*
X164483202Y-125391505D01*
X164578440Y-125534363D01*
X164673678Y-125629601D01*
X164768916Y-125677220D01*
X163816535Y-125486744D02*
X163768916Y-125439125D01*
X163673678Y-125391505D01*
X163435583Y-125391505D01*
X163340345Y-125439125D01*
X163292726Y-125486744D01*
X163245107Y-125581982D01*
X163245107Y-125677220D01*
X163292726Y-125820077D01*
X163864154Y-126391505D01*
X163245107Y-126391505D01*
X170197488Y-128472458D02*
X170245107Y-128424839D01*
X170340345Y-128281982D01*
X170387964Y-128186744D01*
X170435583Y-128043886D01*
X170483202Y-127805791D01*
X170483202Y-127615315D01*
X170435583Y-127377220D01*
X170387964Y-127234363D01*
X170340345Y-127139125D01*
X170245107Y-126996267D01*
X170197488Y-126948648D01*
X169816535Y-128091505D02*
X169816535Y-127091505D01*
X169483202Y-127805791D01*
X169149869Y-127091505D01*
X169149869Y-128091505D01*
X168673678Y-128091505D02*
X168673678Y-127091505D01*
X168197488Y-128091505D02*
X168197488Y-127091505D01*
X167626059Y-128091505D01*
X167626059Y-127091505D01*
X167149869Y-128091505D02*
X167149869Y-127091505D01*
X165578440Y-127567696D02*
X165435583Y-127615315D01*
X165387964Y-127662934D01*
X165340345Y-127758172D01*
X165340345Y-127901029D01*
X165387964Y-127996267D01*
X165435583Y-128043886D01*
X165530821Y-128091505D01*
X165911773Y-128091505D01*
X165911773Y-127091505D01*
X165578440Y-127091505D01*
X165483202Y-127139125D01*
X165435583Y-127186744D01*
X165387964Y-127281982D01*
X165387964Y-127377220D01*
X165435583Y-127472458D01*
X165483202Y-127520077D01*
X165578440Y-127567696D01*
X165911773Y-127567696D01*
X165007011Y-128472458D02*
X164959392Y-128424839D01*
X164864154Y-128281982D01*
X164816535Y-128186744D01*
X164768916Y-128043886D01*
X164721297Y-127805791D01*
X164721297Y-127615315D01*
X164768916Y-127377220D01*
X164816535Y-127234363D01*
X164864154Y-127139125D01*
X164959392Y-126996267D01*
X165007011Y-126948648D01*
D11*
X160998250Y-132250125D02*
X162014250Y-132250125D01*
X159474250Y-132250125D02*
X160490250Y-132250125D01*
X157950250Y-132250125D02*
X158966250Y-132250125D01*
X156426250Y-132250125D02*
X157442250Y-132250125D01*
X154902250Y-132250125D02*
X155918250Y-132250125D01*
X153378250Y-132250125D02*
X154394250Y-132250125D01*
X151854250Y-132250125D02*
X151854250Y-121455125D01*
X152870250Y-132250125D02*
X151854250Y-132250125D01*
X162014250Y-121455125D02*
X162014250Y-132250125D01*
X151854250Y-121455125D02*
X162014250Y-121455125D01*
D10*
X204851869Y-130709505D02*
X204851869Y-129709505D01*
X204851869Y-130185696D02*
X204280440Y-130185696D01*
X204280440Y-130709505D02*
X204280440Y-129709505D01*
X203804250Y-130709505D02*
X203804250Y-129709505D01*
X202756630Y-130709505D02*
X203089964Y-130233315D01*
X203328059Y-130709505D02*
X203328059Y-129709505D01*
X202947107Y-129709505D01*
X202851869Y-129757125D01*
X202804250Y-129804744D01*
X202756630Y-129899982D01*
X202756630Y-130042839D01*
X202804250Y-130138077D01*
X202851869Y-130185696D01*
X202947107Y-130233315D01*
X203328059Y-130233315D01*
X202137583Y-129709505D02*
X201947107Y-129709505D01*
X201851869Y-129757125D01*
X201756630Y-129852363D01*
X201709011Y-130042839D01*
X201709011Y-130376172D01*
X201756630Y-130566648D01*
X201851869Y-130661886D01*
X201947107Y-130709505D01*
X202137583Y-130709505D01*
X202232821Y-130661886D01*
X202328059Y-130566648D01*
X202375678Y-130376172D01*
X202375678Y-130042839D01*
X202328059Y-129852363D01*
X202232821Y-129757125D01*
X202137583Y-129709505D01*
X201328059Y-130661886D02*
X201185202Y-130709505D01*
X200947107Y-130709505D01*
X200851869Y-130661886D01*
X200804250Y-130614267D01*
X200756630Y-130519029D01*
X200756630Y-130423791D01*
X200804250Y-130328553D01*
X200851869Y-130280934D01*
X200947107Y-130233315D01*
X201137583Y-130185696D01*
X201232821Y-130138077D01*
X201280440Y-130090458D01*
X201328059Y-129995220D01*
X201328059Y-129899982D01*
X201280440Y-129804744D01*
X201232821Y-129757125D01*
X201137583Y-129709505D01*
X200899488Y-129709505D01*
X200756630Y-129757125D01*
X200328059Y-130185696D02*
X199994726Y-130185696D01*
X199851869Y-130709505D02*
X200328059Y-130709505D01*
X200328059Y-129709505D01*
X199851869Y-129709505D01*
X198661392Y-129709505D02*
X198661392Y-130519029D01*
X198613773Y-130614267D01*
X198566154Y-130661886D01*
X198470916Y-130709505D01*
X198280440Y-130709505D01*
X198185202Y-130661886D01*
X198137583Y-130614267D01*
X198089964Y-130519029D01*
X198089964Y-129709505D01*
X197709011Y-129709505D02*
X197042345Y-130709505D01*
X197042345Y-129709505D02*
X197709011Y-130709505D01*
X196232821Y-129709505D02*
X196423297Y-129709505D01*
X196518535Y-129757125D01*
X196566154Y-129804744D01*
X196661392Y-129947601D01*
X196709011Y-130138077D01*
X196709011Y-130519029D01*
X196661392Y-130614267D01*
X196613773Y-130661886D01*
X196518535Y-130709505D01*
X196328059Y-130709505D01*
X196232821Y-130661886D01*
X196185202Y-130614267D01*
X196137583Y-130519029D01*
X196137583Y-130280934D01*
X196185202Y-130185696D01*
X196232821Y-130138077D01*
X196328059Y-130090458D01*
X196518535Y-130090458D01*
X196613773Y-130138077D01*
X196661392Y-130185696D01*
X196709011Y-130280934D01*
X195518535Y-129709505D02*
X195423297Y-129709505D01*
X195328059Y-129757125D01*
X195280440Y-129804744D01*
X195232821Y-129899982D01*
X195185202Y-130090458D01*
X195185202Y-130328553D01*
X195232821Y-130519029D01*
X195280440Y-130614267D01*
X195328059Y-130661886D01*
X195423297Y-130709505D01*
X195518535Y-130709505D01*
X195613773Y-130661886D01*
X195661392Y-130614267D01*
X195709011Y-130519029D01*
X195756630Y-130328553D01*
X195756630Y-130090458D01*
X195709011Y-129899982D01*
X195661392Y-129804744D01*
X195613773Y-129757125D01*
X195518535Y-129709505D01*
X194756630Y-130328553D02*
X193994726Y-130328553D01*
X193518535Y-130709505D02*
X193518535Y-129709505D01*
X193185202Y-130423791D01*
X192851869Y-129709505D01*
X192851869Y-130709505D01*
X192042345Y-130185696D02*
X191899488Y-130233315D01*
X191851869Y-130280934D01*
X191804250Y-130376172D01*
X191804250Y-130519029D01*
X191851869Y-130614267D01*
X191899488Y-130661886D01*
X191994726Y-130709505D01*
X192375678Y-130709505D01*
X192375678Y-129709505D01*
X192042345Y-129709505D01*
X191947107Y-129757125D01*
X191899488Y-129804744D01*
X191851869Y-129899982D01*
X191851869Y-129995220D01*
X191899488Y-130090458D01*
X191947107Y-130138077D01*
X192042345Y-130185696D01*
X192375678Y-130185696D01*
X191375678Y-130328553D02*
X190613773Y-130328553D01*
X189661392Y-129709505D02*
X190137583Y-129709505D01*
X190185202Y-130185696D01*
X190137583Y-130138077D01*
X190042345Y-130090458D01*
X189804250Y-130090458D01*
X189709011Y-130138077D01*
X189661392Y-130185696D01*
X189613773Y-130280934D01*
X189613773Y-130519029D01*
X189661392Y-130614267D01*
X189709011Y-130661886D01*
X189804250Y-130709505D01*
X190042345Y-130709505D01*
X190137583Y-130661886D01*
X190185202Y-130614267D01*
X189232821Y-130661886D02*
X189089964Y-130709505D01*
X188851869Y-130709505D01*
X188756630Y-130661886D01*
X188709011Y-130614267D01*
X188661392Y-130519029D01*
X188661392Y-130423791D01*
X188709011Y-130328553D01*
X188756630Y-130280934D01*
X188851869Y-130233315D01*
X189042345Y-130185696D01*
X189137583Y-130138077D01*
X189185202Y-130090458D01*
X189232821Y-129995220D01*
X189232821Y-129899982D01*
X189185202Y-129804744D01*
X189137583Y-129757125D01*
X189042345Y-129709505D01*
X188804250Y-129709505D01*
X188661392Y-129757125D01*
X188089964Y-130138077D02*
X188185202Y-130090458D01*
X188232821Y-130042839D01*
X188280440Y-129947601D01*
X188280440Y-129899982D01*
X188232821Y-129804744D01*
X188185202Y-129757125D01*
X188089964Y-129709505D01*
X187899488Y-129709505D01*
X187804250Y-129757125D01*
X187756630Y-129804744D01*
X187709011Y-129899982D01*
X187709011Y-129947601D01*
X187756630Y-130042839D01*
X187804250Y-130090458D01*
X187899488Y-130138077D01*
X188089964Y-130138077D01*
X188185202Y-130185696D01*
X188232821Y-130233315D01*
X188280440Y-130328553D01*
X188280440Y-130519029D01*
X188232821Y-130614267D01*
X188185202Y-130661886D01*
X188089964Y-130709505D01*
X187899488Y-130709505D01*
X187804250Y-130661886D01*
X187756630Y-130614267D01*
X187709011Y-130519029D01*
X187709011Y-130328553D01*
X187756630Y-130233315D01*
X187804250Y-130185696D01*
X187899488Y-130138077D01*
X198899488Y-132790458D02*
X198947107Y-132742839D01*
X199042345Y-132599982D01*
X199089964Y-132504744D01*
X199137583Y-132361886D01*
X199185202Y-132123791D01*
X199185202Y-131933315D01*
X199137583Y-131695220D01*
X199089964Y-131552363D01*
X199042345Y-131457125D01*
X198947107Y-131314267D01*
X198899488Y-131266648D01*
X198518535Y-132409505D02*
X198518535Y-131409505D01*
X198185202Y-132123791D01*
X197851869Y-131409505D01*
X197851869Y-132409505D01*
X197375678Y-132409505D02*
X197375678Y-131409505D01*
X196899488Y-132409505D02*
X196899488Y-131409505D01*
X196328059Y-132409505D01*
X196328059Y-131409505D01*
X195851869Y-132409505D02*
X195851869Y-131409505D01*
X194280440Y-131885696D02*
X194137583Y-131933315D01*
X194089964Y-131980934D01*
X194042345Y-132076172D01*
X194042345Y-132219029D01*
X194089964Y-132314267D01*
X194137583Y-132361886D01*
X194232821Y-132409505D01*
X194613773Y-132409505D01*
X194613773Y-131409505D01*
X194280440Y-131409505D01*
X194185202Y-131457125D01*
X194137583Y-131504744D01*
X194089964Y-131599982D01*
X194089964Y-131695220D01*
X194137583Y-131790458D01*
X194185202Y-131838077D01*
X194280440Y-131885696D01*
X194613773Y-131885696D01*
X193709011Y-132790458D02*
X193661392Y-132742839D01*
X193566154Y-132599982D01*
X193518535Y-132504744D01*
X193470916Y-132361886D01*
X193423297Y-132123791D01*
X193423297Y-131933315D01*
X193470916Y-131695220D01*
X193518535Y-131552363D01*
X193566154Y-131457125D01*
X193661392Y-131314267D01*
X193709011Y-131266648D01*
D11*
X187160250Y-125011125D02*
X185636250Y-125011125D01*
X185128250Y-125011125D02*
X183604250Y-125011125D01*
X183096250Y-125011125D02*
X181572250Y-125011125D01*
X181064250Y-125011125D02*
X179540250Y-125011125D01*
X177508250Y-125011125D02*
X179032250Y-125011125D01*
X177762250Y-135679125D02*
X176619250Y-135679125D01*
X179032250Y-135679125D02*
X178143250Y-135679125D01*
X179413250Y-135679125D02*
X180302250Y-135679125D01*
X181572250Y-135679125D02*
X180683250Y-135679125D01*
X181953250Y-135679125D02*
X182842250Y-135679125D01*
X184112250Y-135679125D02*
X183223250Y-135679125D01*
X184493250Y-135679125D02*
X185382250Y-135679125D01*
X176619250Y-127805125D02*
X186779250Y-127805125D01*
X176619250Y-127805125D02*
X176619250Y-135679125D01*
X186779250Y-135679125D02*
X185890250Y-135679125D01*
X186779250Y-135679125D02*
X186779250Y-127805125D01*
D10*
X202447011Y-119191505D02*
X202447011Y-118191505D01*
X201875583Y-119191505D02*
X202304154Y-118620077D01*
X201875583Y-118191505D02*
X202447011Y-118762934D01*
X201256535Y-118191505D02*
X201066059Y-118191505D01*
X200970821Y-118239125D01*
X200875583Y-118334363D01*
X200827964Y-118524839D01*
X200827964Y-118858172D01*
X200875583Y-119048648D01*
X200970821Y-119143886D01*
X201066059Y-119191505D01*
X201256535Y-119191505D01*
X201351773Y-119143886D01*
X201447011Y-119048648D01*
X201494630Y-118858172D01*
X201494630Y-118524839D01*
X201447011Y-118334363D01*
X201351773Y-118239125D01*
X201256535Y-118191505D01*
X199827964Y-119191505D02*
X200161297Y-118715315D01*
X200399392Y-119191505D02*
X200399392Y-118191505D01*
X200018440Y-118191505D01*
X199923202Y-118239125D01*
X199875583Y-118286744D01*
X199827964Y-118381982D01*
X199827964Y-118524839D01*
X199875583Y-118620077D01*
X199923202Y-118667696D01*
X200018440Y-118715315D01*
X200399392Y-118715315D01*
X199399392Y-118667696D02*
X199066059Y-118667696D01*
X198923202Y-119191505D02*
X199399392Y-119191505D01*
X199399392Y-118191505D01*
X198923202Y-118191505D01*
X198542250Y-118905791D02*
X198066059Y-118905791D01*
X198637488Y-119191505D02*
X198304154Y-118191505D01*
X197970821Y-119191505D01*
X197637488Y-119191505D02*
X197637488Y-118191505D01*
X197066059Y-119191505D01*
X197066059Y-118191505D01*
X195827964Y-119191505D02*
X195827964Y-118191505D01*
X195827964Y-118667696D02*
X195256535Y-118667696D01*
X195256535Y-119191505D02*
X195256535Y-118191505D01*
X194208916Y-119191505D02*
X194542250Y-118715315D01*
X194780345Y-119191505D02*
X194780345Y-118191505D01*
X194399392Y-118191505D01*
X194304154Y-118239125D01*
X194256535Y-118286744D01*
X194208916Y-118381982D01*
X194208916Y-118524839D01*
X194256535Y-118620077D01*
X194304154Y-118667696D01*
X194399392Y-118715315D01*
X194780345Y-118715315D01*
X193589869Y-118191505D02*
X193399392Y-118191505D01*
X193304154Y-118239125D01*
X193208916Y-118334363D01*
X193161297Y-118524839D01*
X193161297Y-118858172D01*
X193208916Y-119048648D01*
X193304154Y-119143886D01*
X193399392Y-119191505D01*
X193589869Y-119191505D01*
X193685107Y-119143886D01*
X193780345Y-119048648D01*
X193827964Y-118858172D01*
X193827964Y-118524839D01*
X193780345Y-118334363D01*
X193685107Y-118239125D01*
X193589869Y-118191505D01*
X192732726Y-119191505D02*
X192732726Y-118191505D01*
X192351773Y-118191505D01*
X192256535Y-118239125D01*
X192208916Y-118286744D01*
X192161297Y-118381982D01*
X192161297Y-118524839D01*
X192208916Y-118620077D01*
X192256535Y-118667696D01*
X192351773Y-118715315D01*
X192732726Y-118715315D01*
X191780345Y-118905791D02*
X191304154Y-118905791D01*
X191875583Y-119191505D02*
X191542250Y-118191505D01*
X191208916Y-119191505D01*
X190304154Y-119191505D02*
X190637488Y-118715315D01*
X190875583Y-119191505D02*
X190875583Y-118191505D01*
X190494630Y-118191505D01*
X190399392Y-118239125D01*
X190351773Y-118286744D01*
X190304154Y-118381982D01*
X190304154Y-118524839D01*
X190351773Y-118620077D01*
X190399392Y-118667696D01*
X190494630Y-118715315D01*
X190875583Y-118715315D01*
X190018440Y-118191505D02*
X189447011Y-118191505D01*
X189732726Y-119191505D02*
X189732726Y-118191505D01*
X189161297Y-119143886D02*
X189018440Y-119191505D01*
X188780345Y-119191505D01*
X188685107Y-119143886D01*
X188637488Y-119096267D01*
X188589869Y-119001029D01*
X188589869Y-118905791D01*
X188637488Y-118810553D01*
X188685107Y-118762934D01*
X188780345Y-118715315D01*
X188970821Y-118667696D01*
X189066059Y-118620077D01*
X189113678Y-118572458D01*
X189161297Y-118477220D01*
X189161297Y-118381982D01*
X189113678Y-118286744D01*
X189066059Y-118239125D01*
X188970821Y-118191505D01*
X188732726Y-118191505D01*
X188589869Y-118239125D01*
X201089869Y-119891505D02*
X200518440Y-119891505D01*
X200804154Y-120891505D02*
X200804154Y-119891505D01*
X199994630Y-120415315D02*
X199994630Y-120891505D01*
X200327964Y-119891505D02*
X199994630Y-120415315D01*
X199661297Y-119891505D01*
X199327964Y-120891505D02*
X199327964Y-119891505D01*
X198947011Y-119891505D01*
X198851773Y-119939125D01*
X198804154Y-119986744D01*
X198756535Y-120081982D01*
X198756535Y-120224839D01*
X198804154Y-120320077D01*
X198851773Y-120367696D01*
X198947011Y-120415315D01*
X199327964Y-120415315D01*
X198327964Y-120367696D02*
X197994630Y-120367696D01*
X197851773Y-120891505D02*
X198327964Y-120891505D01*
X198327964Y-119891505D01*
X197851773Y-119891505D01*
X197423202Y-120510553D02*
X196661297Y-120510553D01*
X195613678Y-120796267D02*
X195661297Y-120843886D01*
X195804154Y-120891505D01*
X195899392Y-120891505D01*
X196042250Y-120843886D01*
X196137488Y-120748648D01*
X196185107Y-120653410D01*
X196232726Y-120462934D01*
X196232726Y-120320077D01*
X196185107Y-120129601D01*
X196137488Y-120034363D01*
X196042250Y-119939125D01*
X195899392Y-119891505D01*
X195804154Y-119891505D01*
X195661297Y-119939125D01*
X195613678Y-119986744D01*
X195185107Y-120510553D02*
X194423202Y-120510553D01*
X193947011Y-120891505D02*
X193947011Y-119891505D01*
X193613678Y-120605791D01*
X193280345Y-119891505D01*
X193280345Y-120891505D01*
X192804154Y-120510553D02*
X192042250Y-120510553D01*
X191042250Y-120891505D02*
X191613678Y-120891505D01*
X191327964Y-120891505D02*
X191327964Y-119891505D01*
X191423202Y-120034363D01*
X191518440Y-120129601D01*
X191613678Y-120177220D01*
X190661297Y-119986744D02*
X190613678Y-119939125D01*
X190518440Y-119891505D01*
X190280345Y-119891505D01*
X190185107Y-119939125D01*
X190137488Y-119986744D01*
X190089869Y-120081982D01*
X190089869Y-120177220D01*
X190137488Y-120320077D01*
X190708916Y-120891505D01*
X190089869Y-120891505D01*
X198327964Y-122972458D02*
X198375583Y-122924839D01*
X198470821Y-122781982D01*
X198518440Y-122686744D01*
X198566059Y-122543886D01*
X198613678Y-122305791D01*
X198613678Y-122115315D01*
X198566059Y-121877220D01*
X198518440Y-121734363D01*
X198470821Y-121639125D01*
X198375583Y-121496267D01*
X198327964Y-121448648D01*
X198089869Y-121591505D02*
X197518440Y-121591505D01*
X197804154Y-122591505D02*
X197804154Y-121591505D01*
X196994630Y-122115315D02*
X196994630Y-122591505D01*
X197327964Y-121591505D02*
X196994630Y-122115315D01*
X196661297Y-121591505D01*
X196327964Y-122591505D02*
X196327964Y-121591505D01*
X195947011Y-121591505D01*
X195851773Y-121639125D01*
X195804154Y-121686744D01*
X195756535Y-121781982D01*
X195756535Y-121924839D01*
X195804154Y-122020077D01*
X195851773Y-122067696D01*
X195947011Y-122115315D01*
X196327964Y-122115315D01*
X195327964Y-122067696D02*
X194994630Y-122067696D01*
X194851773Y-122591505D02*
X195327964Y-122591505D01*
X195327964Y-121591505D01*
X194851773Y-121591505D01*
X193089869Y-122496267D02*
X193137488Y-122543886D01*
X193280345Y-122591505D01*
X193375583Y-122591505D01*
X193518440Y-122543886D01*
X193613678Y-122448648D01*
X193661297Y-122353410D01*
X193708916Y-122162934D01*
X193708916Y-122020077D01*
X193661297Y-121829601D01*
X193613678Y-121734363D01*
X193518440Y-121639125D01*
X193375583Y-121591505D01*
X193280345Y-121591505D01*
X193137488Y-121639125D01*
X193089869Y-121686744D01*
X192756535Y-122972458D02*
X192708916Y-122924839D01*
X192613678Y-122781982D01*
X192566059Y-122686744D01*
X192518440Y-122543886D01*
X192470821Y-122305791D01*
X192470821Y-122115315D01*
X192518440Y-121877220D01*
X192566059Y-121734363D01*
X192613678Y-121639125D01*
X192708916Y-121496267D01*
X192756535Y-121448648D01*
D11*
X175730250Y-125011125D02*
X175730250Y-115867125D01*
X177000250Y-125011125D02*
X175730250Y-125011125D01*
X187160250Y-115867125D02*
X187160250Y-125011125D01*
X175730250Y-115867125D02*
X187160250Y-115867125D01*
D10*
X280695154Y-134614791D02*
X280218964Y-134614791D01*
X280790392Y-134900505D02*
X280457059Y-133900505D01*
X280123726Y-134900505D01*
X279314202Y-134900505D02*
X279790392Y-134900505D01*
X279790392Y-133900505D01*
X278980869Y-134900505D02*
X278980869Y-133900505D01*
X278599916Y-133900505D01*
X278504678Y-133948125D01*
X278457059Y-133995744D01*
X278409440Y-134090982D01*
X278409440Y-134233839D01*
X278457059Y-134329077D01*
X278504678Y-134376696D01*
X278599916Y-134424315D01*
X278980869Y-134424315D01*
X278028488Y-134852886D02*
X277885630Y-134900505D01*
X277647535Y-134900505D01*
X277552297Y-134852886D01*
X277504678Y-134805267D01*
X277457059Y-134710029D01*
X277457059Y-134614791D01*
X277504678Y-134519553D01*
X277552297Y-134471934D01*
X277647535Y-134424315D01*
X277838011Y-134376696D01*
X277933250Y-134329077D01*
X277980869Y-134281458D01*
X278028488Y-134186220D01*
X278028488Y-134090982D01*
X277980869Y-133995744D01*
X277933250Y-133948125D01*
X277838011Y-133900505D01*
X277599916Y-133900505D01*
X277457059Y-133948125D01*
X276266583Y-134376696D02*
X275933250Y-134376696D01*
X275790392Y-134900505D02*
X276266583Y-134900505D01*
X276266583Y-133900505D01*
X275790392Y-133900505D01*
X274790392Y-134805267D02*
X274838011Y-134852886D01*
X274980869Y-134900505D01*
X275076107Y-134900505D01*
X275218964Y-134852886D01*
X275314202Y-134757648D01*
X275361821Y-134662410D01*
X275409440Y-134471934D01*
X275409440Y-134329077D01*
X275361821Y-134138601D01*
X275314202Y-134043363D01*
X275218964Y-133948125D01*
X275076107Y-133900505D01*
X274980869Y-133900505D01*
X274838011Y-133948125D01*
X274790392Y-133995744D01*
X273838011Y-134900505D02*
X274409440Y-134900505D01*
X274123726Y-134900505D02*
X274123726Y-133900505D01*
X274218964Y-134043363D01*
X274314202Y-134138601D01*
X274409440Y-134186220D01*
X272885630Y-134900505D02*
X273457059Y-134900505D01*
X273171345Y-134900505D02*
X273171345Y-133900505D01*
X273266583Y-134043363D01*
X273361821Y-134138601D01*
X273457059Y-134186220D01*
X272457059Y-134376696D02*
X272123726Y-134376696D01*
X271980869Y-134900505D02*
X272457059Y-134900505D01*
X272457059Y-133900505D01*
X271980869Y-133900505D01*
X271647535Y-134900505D02*
X271123726Y-134233839D01*
X271647535Y-134233839D02*
X271123726Y-134900505D01*
X280861821Y-136600505D02*
X281195154Y-136124315D01*
X281433250Y-136600505D02*
X281433250Y-135600505D01*
X281052297Y-135600505D01*
X280957059Y-135648125D01*
X280909440Y-135695744D01*
X280861821Y-135790982D01*
X280861821Y-135933839D01*
X280909440Y-136029077D01*
X280957059Y-136076696D01*
X281052297Y-136124315D01*
X281433250Y-136124315D01*
X280290392Y-136600505D02*
X280385630Y-136552886D01*
X280433250Y-136505267D01*
X280480869Y-136410029D01*
X280480869Y-136124315D01*
X280433250Y-136029077D01*
X280385630Y-135981458D01*
X280290392Y-135933839D01*
X280147535Y-135933839D01*
X280052297Y-135981458D01*
X280004678Y-136029077D01*
X279957059Y-136124315D01*
X279957059Y-136410029D01*
X280004678Y-136505267D01*
X280052297Y-136552886D01*
X280147535Y-136600505D01*
X280290392Y-136600505D01*
X279671345Y-135933839D02*
X279290392Y-135933839D01*
X279528488Y-135600505D02*
X279528488Y-136457648D01*
X279480869Y-136552886D01*
X279385630Y-136600505D01*
X279290392Y-136600505D01*
X278528488Y-136600505D02*
X278528488Y-136076696D01*
X278576107Y-135981458D01*
X278671345Y-135933839D01*
X278861821Y-135933839D01*
X278957059Y-135981458D01*
X278528488Y-136552886D02*
X278623726Y-136600505D01*
X278861821Y-136600505D01*
X278957059Y-136552886D01*
X279004678Y-136457648D01*
X279004678Y-136362410D01*
X278957059Y-136267172D01*
X278861821Y-136219553D01*
X278623726Y-136219553D01*
X278528488Y-136171934D01*
X278052297Y-136600505D02*
X278052297Y-135933839D01*
X278052297Y-136124315D02*
X278004678Y-136029077D01*
X277957059Y-135981458D01*
X277861821Y-135933839D01*
X277766583Y-135933839D01*
X277528488Y-135933839D02*
X277290392Y-136600505D01*
X277052297Y-135933839D02*
X277290392Y-136600505D01*
X277385630Y-136838601D01*
X277433250Y-136886220D01*
X277528488Y-136933839D01*
X275909440Y-136076696D02*
X275576107Y-136076696D01*
X275433250Y-136600505D02*
X275909440Y-136600505D01*
X275909440Y-135600505D01*
X275433250Y-135600505D01*
X275004678Y-135933839D02*
X275004678Y-136600505D01*
X275004678Y-136029077D02*
X274957059Y-135981458D01*
X274861821Y-135933839D01*
X274718964Y-135933839D01*
X274623726Y-135981458D01*
X274576107Y-136076696D01*
X274576107Y-136600505D01*
X273671345Y-136552886D02*
X273766583Y-136600505D01*
X273957059Y-136600505D01*
X274052297Y-136552886D01*
X274099916Y-136505267D01*
X274147535Y-136410029D01*
X274147535Y-136124315D01*
X274099916Y-136029077D01*
X274052297Y-135981458D01*
X273957059Y-135933839D01*
X273766583Y-135933839D01*
X273671345Y-135981458D01*
X273099916Y-136600505D02*
X273195154Y-136552886D01*
X273242773Y-136505267D01*
X273290392Y-136410029D01*
X273290392Y-136124315D01*
X273242773Y-136029077D01*
X273195154Y-135981458D01*
X273099916Y-135933839D01*
X272957059Y-135933839D01*
X272861821Y-135981458D01*
X272814202Y-136029077D01*
X272766583Y-136124315D01*
X272766583Y-136410029D01*
X272814202Y-136505267D01*
X272861821Y-136552886D01*
X272957059Y-136600505D01*
X273099916Y-136600505D01*
X271909440Y-136600505D02*
X271909440Y-135600505D01*
X271909440Y-136552886D02*
X272004678Y-136600505D01*
X272195154Y-136600505D01*
X272290392Y-136552886D01*
X272338011Y-136505267D01*
X272385630Y-136410029D01*
X272385630Y-136124315D01*
X272338011Y-136029077D01*
X272290392Y-135981458D01*
X272195154Y-135933839D01*
X272004678Y-135933839D01*
X271909440Y-135981458D01*
X271052297Y-136552886D02*
X271147535Y-136600505D01*
X271338011Y-136600505D01*
X271433250Y-136552886D01*
X271480869Y-136457648D01*
X271480869Y-136076696D01*
X271433250Y-135981458D01*
X271338011Y-135933839D01*
X271147535Y-135933839D01*
X271052297Y-135981458D01*
X271004678Y-136076696D01*
X271004678Y-136171934D01*
X271480869Y-136267172D01*
X270576107Y-136600505D02*
X270576107Y-135933839D01*
X270576107Y-136124315D02*
X270528488Y-136029077D01*
X270480869Y-135981458D01*
X270385630Y-135933839D01*
X270290392Y-135933839D01*
D11*
X306286250Y-136555925D02*
X306286250Y-117505925D01*
X306286250Y-136555925D02*
X287236250Y-136555925D01*
X287236250Y-117505925D02*
X287236250Y-136555925D01*
X306286250Y-117505925D02*
X287236250Y-117505925D01*
X294261250Y-133318125D02*
X294261250Y-130168125D01*
X299261250Y-133318125D02*
X294261250Y-133318125D01*
X299261250Y-130168125D02*
X299261250Y-133318125D01*
X294261250Y-130168125D02*
X299261250Y-130168125D01*
X356451250Y-117328125D02*
X337401250Y-117328125D01*
X356451250Y-136378125D02*
X356451250Y-117328125D01*
X356451250Y-136378125D02*
X337401250Y-136378125D01*
X337401250Y-117328125D02*
X337401250Y-136378125D01*
D12*
X342862250Y-133647125D02*
X340068250Y-133647125D01*
X340068250Y-130853125D02*
X340068250Y-133647125D01*
X353784250Y-130853125D02*
X353784250Y-133647125D01*
X350990250Y-133647125D02*
X353784250Y-133647125D01*
X350990250Y-119931125D02*
X353784250Y-119931125D01*
X353784250Y-122725125D02*
X353784250Y-119931125D01*
X340068250Y-122725125D02*
X340068250Y-119931125D01*
X342862250Y-119931125D02*
X340068250Y-119931125D01*
D13*
G36*
X118834250Y-119677125D02*
G01*
X118072250Y-119677125D01*
X118072250Y-120439125D01*
X118834250Y-119677125D01*
G37*
X118834250Y-119677125D02*
X118072250Y-119677125D01*
X118072250Y-120439125D01*
X118834250Y-119677125D01*
D14*
X223128250Y-123265125D02*
X225868250Y-123265125D01*
X225868250Y-123265125D02*
X225868250Y-129805125D01*
X225868250Y-129805125D02*
X223128250Y-129805125D01*
X223128250Y-129805125D02*
X223128250Y-123265125D01*
X224498250Y-122495125D02*
X224498250Y-123265125D01*
X224498250Y-130575125D02*
X224498250Y-129805125D01*
X224498250Y-124249125D02*
X224498250Y-125011125D01*
X224498250Y-125011125D02*
X223736250Y-125265125D01*
X223736250Y-125265125D02*
X225260250Y-125773125D01*
X225260250Y-125773125D02*
X223736250Y-126281125D01*
X223736250Y-126281125D02*
X225260250Y-126789125D01*
X225260250Y-126789125D02*
X223736250Y-127297125D01*
X223736250Y-127297125D02*
X225260250Y-127805125D01*
X225260250Y-127805125D02*
X224498250Y-128059125D01*
X224498250Y-128059125D02*
X224498250Y-128821125D01*
D10*
X119586250Y-123773125D02*
X119586250Y-125373125D01*
X118586250Y-122773125D02*
X119586250Y-123773125D01*
X118386250Y-122773125D02*
X118586250Y-122773125D01*
X115786250Y-122773125D02*
X118386250Y-122773125D01*
D13*
G36*
X111586250Y-127973125D02*
G01*
X112386250Y-127973125D01*
X112386250Y-128773125D01*
X111586250Y-127973125D01*
G37*
X111586250Y-127973125D02*
X112386250Y-127973125D01*
X112386250Y-128773125D01*
X111586250Y-127973125D01*
G36*
X113632250Y-130831125D02*
G01*
X113632250Y-131531125D01*
X112932250Y-131531125D01*
X113632250Y-130831125D01*
G37*
X113632250Y-130831125D02*
X113632250Y-131531125D01*
X112932250Y-131531125D01*
X113632250Y-130831125D01*
D15*
X230780250Y-126164873D02*
X230780250Y-128937377D01*
X227360250Y-126164873D02*
X227360250Y-128937377D01*
X234552250Y-126439873D02*
X234552250Y-128662377D01*
X232732250Y-126439873D02*
X232732250Y-128662377D01*
X241132250Y-126774061D02*
X241132250Y-128328189D01*
X236312250Y-126774061D02*
X236312250Y-128328189D01*
X242696250Y-128153189D02*
X242696250Y-126949061D01*
X245416250Y-128153189D02*
X245416250Y-126949061D01*
D16*
G36*
X89751250Y-128567125D02*
G01*
X87465250Y-128567125D01*
X87465250Y-128059125D01*
X89751250Y-128059125D01*
X89751250Y-128567125D01*
G37*
X89751250Y-128567125D02*
X87465250Y-128567125D01*
X87465250Y-128059125D01*
X89751250Y-128059125D01*
X89751250Y-128567125D01*
D13*
G36*
X88608250Y-127297125D02*
G01*
X89116250Y-126281125D01*
X88100250Y-126281125D01*
X88608250Y-127297125D01*
G37*
X88608250Y-127297125D02*
X89116250Y-126281125D01*
X88100250Y-126281125D01*
X88608250Y-127297125D01*
D15*
X88608250Y-124273125D02*
X88608250Y-124923125D01*
X88608250Y-129813125D02*
X88608250Y-129163125D01*
X89728250Y-124923125D02*
X89728250Y-129163125D01*
X87488250Y-124923125D02*
X89728250Y-124923125D01*
X87488250Y-129163125D02*
X87488250Y-124923125D01*
X89728250Y-129163125D02*
X87488250Y-129163125D01*
D11*
X99692250Y-126597125D02*
X99692250Y-128297125D01*
X100892250Y-126597125D02*
X100892250Y-128297125D01*
X100592250Y-128597125D02*
X99992250Y-128597125D01*
X100592250Y-128597125D02*
G75*
G03X100892250Y-128297125I0J300000D01*
G01*
X99692250Y-128297125D02*
G75*
G03X99992250Y-128597125I300000J0D01*
G01*
D15*
X137732250Y-122503125D02*
X144282250Y-122503125D01*
X137132250Y-125903125D02*
X137132250Y-123103125D01*
X144232250Y-126503125D02*
X137732250Y-126503125D01*
X137132250Y-125903125D02*
G75*
G03X137732250Y-126503125I600000J0D01*
G01*
X137732250Y-122503125D02*
G75*
G03X137132250Y-123103125I0J-600000D01*
G01*
D11*
X138032250Y-117623125D02*
G75*
G03X137532250Y-118123125I0J-500000D01*
G01*
X137532250Y-120723125D02*
G75*
G03X138032250Y-121223125I500000J0D01*
G01*
X143632250Y-121223125D02*
X138032250Y-121223125D01*
X137532250Y-120723125D02*
X137532250Y-118123125D01*
X138032250Y-117623125D02*
X143632250Y-117623125D01*
D13*
G36*
X136932250Y-132663125D02*
G01*
X137932250Y-132663125D01*
X137932250Y-131663125D01*
X136932250Y-132663125D01*
G37*
X136932250Y-132663125D02*
X137932250Y-132663125D01*
X137932250Y-131663125D01*
X136932250Y-132663125D01*
G36*
X138900250Y-128567125D02*
G01*
X139662250Y-128567125D01*
X139662250Y-127805125D01*
X138900250Y-128567125D01*
G37*
X138900250Y-128567125D02*
X139662250Y-128567125D01*
X139662250Y-127805125D01*
X138900250Y-128567125D01*
X96882250Y-128597125D02*
X96882250Y-128097125D01*
X96682250Y-127897125D02*
X96282250Y-127897125D01*
X96082250Y-128097125D02*
X96082250Y-128597125D01*
X96282250Y-128797125D02*
X96682250Y-128797125D01*
X96882250Y-128097125D02*
G75*
G03X96682250Y-127897125I-200000J0D01*
G01*
X96082250Y-128597125D02*
G75*
G03X96282250Y-128797125I200000J0D01*
G01*
X96682250Y-128797125D02*
G75*
G03X96882250Y-128597125I0J200000D01*
G01*
X96282250Y-127897125D02*
G75*
G03X96082250Y-128097125I0J-200000D01*
G01*
G36*
X96982250Y-126897125D02*
G01*
X95982250Y-126897125D01*
X96482250Y-127597125D01*
X96982250Y-126897125D01*
G37*
X96982250Y-126897125D02*
X95982250Y-126897125D01*
X96482250Y-127597125D01*
X96982250Y-126897125D01*
G36*
X92672250Y-127697125D02*
G01*
X93272250Y-126897125D01*
X92072250Y-126897125D01*
X92672250Y-127697125D01*
G37*
X92672250Y-127697125D02*
X93272250Y-126897125D01*
X92072250Y-126897125D01*
X92672250Y-127697125D01*
D10*
X91772250Y-128697163D02*
X91772250Y-129197125D01*
X92272250Y-128197125D02*
G75*
G03X91772250Y-128697125I0J-500000D01*
G01*
X91772250Y-129197125D02*
G75*
G03X92272250Y-129697125I500000J0D01*
G01*
X93072250Y-129697125D02*
X92272250Y-129697125D01*
X93072250Y-129697125D02*
G75*
G03X93572250Y-129197125I0J500000D01*
G01*
X93572250Y-129197087D02*
X93572250Y-128697125D01*
X93072250Y-128197125D02*
X92272250Y-128197125D01*
X93572250Y-128697125D02*
G75*
G03X93072250Y-128197125I-500000J0D01*
G01*
D11*
X270187250Y-119138125D02*
X270187250Y-120938125D01*
X282187250Y-121938125D02*
X282187250Y-119138125D01*
X282187250Y-119138125D02*
X278587250Y-119138125D01*
X270187250Y-119138125D02*
X273787250Y-119138125D01*
X270187250Y-131138125D02*
X273787250Y-131138125D01*
X278587250Y-131138125D02*
X282187250Y-131138125D01*
X270187250Y-124138125D02*
X270187250Y-131138125D01*
X282187250Y-131138125D02*
X282187250Y-128538125D01*
D10*
X302761250Y-120043125D02*
G75*
G02X303761250Y-121043125I0J-1000000D01*
G01*
X289761250Y-121043125D02*
G75*
G02X290761250Y-120043125I1000000J0D01*
G01*
X290761250Y-134043125D02*
G75*
G02X289761250Y-133043125I0J1000000D01*
G01*
X290761250Y-134043125D02*
X302761250Y-134043125D01*
X289761250Y-121043125D02*
X289761250Y-133043125D01*
X302761250Y-120043125D02*
X290761250Y-120043125D01*
X303761250Y-133043125D02*
X303761250Y-121043125D01*
X303761250Y-133043125D02*
G75*
G02X302761250Y-134043125I-1000000J0D01*
G01*
D17*
X314260050Y-119839925D02*
X314260050Y-122439925D01*
X314260050Y-119839925D02*
X316860050Y-119839925D01*
X330060050Y-122439925D02*
X330060050Y-119839925D01*
X327460050Y-119839925D02*
X330060050Y-119839925D01*
X330060050Y-131239925D02*
X330060050Y-133839925D01*
X327460050Y-133839925D02*
X330060050Y-133839925D01*
X314260050Y-131239925D02*
X314260050Y-133839925D01*
X316860050Y-133839925D02*
X314260050Y-133839925D01*
D13*
X331660050Y-117339925D02*
X312660050Y-117339925D01*
X312660050Y-136339925D02*
X312660050Y-117339925D01*
X331660050Y-136339925D02*
X312660050Y-136339925D01*
X331660050Y-117339925D02*
X331660050Y-136339925D01*
D15*
X253938250Y-127681904D02*
X253938250Y-127356346D01*
X254958250Y-127681904D02*
X254958250Y-127356346D01*
X252158250Y-127260547D02*
X252158250Y-127777703D01*
X250738250Y-127260547D02*
X250738250Y-127777703D01*
X249358250Y-126917061D02*
X249358250Y-128121189D01*
X247538250Y-126917061D02*
X247538250Y-128121189D01*
D13*
G36*
X76670250Y-135774375D02*
G01*
X77686250Y-135774375D01*
X77686250Y-136917375D01*
X76670250Y-135774375D01*
G37*
X76670250Y-135774375D02*
X77686250Y-135774375D01*
X77686250Y-136917375D01*
X76670250Y-135774375D01*
D15*
X83336250Y-130124375D02*
X83336250Y-130674375D01*
X82786250Y-130124375D02*
X83336250Y-130124375D01*
X77116250Y-130124375D02*
X77116250Y-130674375D01*
X77666250Y-130124375D02*
X77116250Y-130124375D01*
X83336250Y-136344375D02*
X83336250Y-135794375D01*
X82786250Y-136344375D02*
X83336250Y-136344375D01*
D13*
X61138750Y-137534375D02*
X61738750Y-138134375D01*
D15*
X62585964Y-137034375D02*
G75*
G03X62585964Y-137034375I-447214J0D01*
G01*
D13*
G36*
X59538750Y-138234375D02*
G01*
X60938750Y-138234375D01*
X60938750Y-139634375D01*
X59538750Y-138234375D01*
G37*
X59538750Y-138234375D02*
X60938750Y-138234375D01*
X60938750Y-139634375D01*
X59538750Y-138234375D01*
D11*
X71113750Y-138409375D02*
X70438750Y-138409375D01*
X71113750Y-128059375D02*
X70438750Y-128059375D01*
X60763750Y-128059375D02*
X61438750Y-128059375D01*
X60763750Y-128059375D02*
X60763750Y-128734375D01*
X71113750Y-128059375D02*
X71113750Y-128734375D01*
X71113750Y-138409375D02*
X71113750Y-137734375D01*
D13*
G36*
X75305000Y-120724875D02*
G01*
X76067000Y-120724875D01*
X76067000Y-121486875D01*
X75305000Y-120724875D01*
G37*
X75305000Y-120724875D02*
X76067000Y-120724875D01*
X76067000Y-121486875D01*
X75305000Y-120724875D01*
D15*
X79405000Y-121056875D02*
X79955000Y-121056875D01*
X79955000Y-121056875D02*
X79955000Y-120506875D01*
X76285000Y-116836875D02*
X75735000Y-116836875D01*
X75735000Y-116836875D02*
X75735000Y-117386875D01*
X79405000Y-116836875D02*
X79955000Y-116836875D01*
X79955000Y-116836875D02*
X79955000Y-117386875D01*
D13*
G36*
X62001750Y-121867875D02*
G01*
X63017750Y-121867875D01*
X63017750Y-122883875D01*
X62001750Y-121867875D01*
G37*
X62001750Y-121867875D02*
X63017750Y-121867875D01*
X63017750Y-122883875D01*
X62001750Y-121867875D01*
D15*
X69548750Y-115336875D02*
X69548750Y-116061875D01*
X68823750Y-115336875D02*
X69548750Y-115336875D01*
X62328750Y-115336875D02*
X62328750Y-116061875D01*
X63053750Y-115336875D02*
X62328750Y-115336875D01*
X69548750Y-122556875D02*
X69548750Y-121831875D01*
X68823750Y-122556875D02*
X69548750Y-122556875D01*
D10*
X120897392Y-114557505D02*
X121087869Y-114557505D01*
X121183107Y-114605125D01*
X121230726Y-114652744D01*
X121325964Y-114795601D01*
X121373583Y-114986077D01*
X121373583Y-115367029D01*
X121325964Y-115462267D01*
X121278345Y-115509886D01*
X121183107Y-115557505D01*
X120992630Y-115557505D01*
X120897392Y-115509886D01*
X120849773Y-115462267D01*
X120802154Y-115367029D01*
X120802154Y-115128934D01*
X120849773Y-115033696D01*
X120897392Y-114986077D01*
X120992630Y-114938458D01*
X121183107Y-114938458D01*
X121278345Y-114986077D01*
X121325964Y-115033696D01*
X121373583Y-115128934D01*
X120183107Y-114557505D02*
X120087869Y-114557505D01*
X119992630Y-114605125D01*
X119945011Y-114652744D01*
X119897392Y-114747982D01*
X119849773Y-114938458D01*
X119849773Y-115176553D01*
X119897392Y-115367029D01*
X119945011Y-115462267D01*
X119992630Y-115509886D01*
X120087869Y-115557505D01*
X120183107Y-115557505D01*
X120278345Y-115509886D01*
X120325964Y-115462267D01*
X120373583Y-115367029D01*
X120421202Y-115176553D01*
X120421202Y-114938458D01*
X120373583Y-114747982D01*
X120325964Y-114652744D01*
X120278345Y-114605125D01*
X120183107Y-114557505D01*
X119468821Y-114652744D02*
X119421202Y-114605125D01*
X119325964Y-114557505D01*
X119087869Y-114557505D01*
X118992630Y-114605125D01*
X118945011Y-114652744D01*
X118897392Y-114747982D01*
X118897392Y-114843220D01*
X118945011Y-114986077D01*
X119516440Y-115557505D01*
X118897392Y-115557505D01*
X118325964Y-114986077D02*
X118421202Y-114938458D01*
X118468821Y-114890839D01*
X118516440Y-114795601D01*
X118516440Y-114747982D01*
X118468821Y-114652744D01*
X118421202Y-114605125D01*
X118325964Y-114557505D01*
X118135488Y-114557505D01*
X118040250Y-114605125D01*
X117992630Y-114652744D01*
X117945011Y-114747982D01*
X117945011Y-114795601D01*
X117992630Y-114890839D01*
X118040250Y-114938458D01*
X118135488Y-114986077D01*
X118325964Y-114986077D01*
X118421202Y-115033696D01*
X118468821Y-115081315D01*
X118516440Y-115176553D01*
X118516440Y-115367029D01*
X118468821Y-115462267D01*
X118421202Y-115509886D01*
X118325964Y-115557505D01*
X118135488Y-115557505D01*
X118040250Y-115509886D01*
X117992630Y-115462267D01*
X117945011Y-115367029D01*
X117945011Y-115176553D01*
X117992630Y-115081315D01*
X118040250Y-115033696D01*
X118135488Y-114986077D01*
X116183107Y-115557505D02*
X116516440Y-115081315D01*
X116754535Y-115557505D02*
X116754535Y-114557505D01*
X116373583Y-114557505D01*
X116278345Y-114605125D01*
X116230726Y-114652744D01*
X116183107Y-114747982D01*
X116183107Y-114890839D01*
X116230726Y-114986077D01*
X116278345Y-115033696D01*
X116373583Y-115081315D01*
X116754535Y-115081315D01*
X115230726Y-114605125D02*
X115325964Y-114557505D01*
X115468821Y-114557505D01*
X115611678Y-114605125D01*
X115706916Y-114700363D01*
X115754535Y-114795601D01*
X115802154Y-114986077D01*
X115802154Y-115128934D01*
X115754535Y-115319410D01*
X115706916Y-115414648D01*
X115611678Y-115509886D01*
X115468821Y-115557505D01*
X115373583Y-115557505D01*
X115230726Y-115509886D01*
X115183107Y-115462267D01*
X115183107Y-115128934D01*
X115373583Y-115128934D01*
X114421202Y-115033696D02*
X114278345Y-115081315D01*
X114230726Y-115128934D01*
X114183107Y-115224172D01*
X114183107Y-115367029D01*
X114230726Y-115462267D01*
X114278345Y-115509886D01*
X114373583Y-115557505D01*
X114754535Y-115557505D01*
X114754535Y-114557505D01*
X114421202Y-114557505D01*
X114325964Y-114605125D01*
X114278345Y-114652744D01*
X114230726Y-114747982D01*
X114230726Y-114843220D01*
X114278345Y-114938458D01*
X114325964Y-114986077D01*
X114421202Y-115033696D01*
X114754535Y-115033696D01*
X112516440Y-115557505D02*
X112992630Y-115557505D01*
X112992630Y-114557505D01*
X112183107Y-115033696D02*
X111849773Y-115033696D01*
X111706916Y-115557505D02*
X112183107Y-115557505D01*
X112183107Y-114557505D01*
X111706916Y-114557505D01*
X111278345Y-115557505D02*
X111278345Y-114557505D01*
X111040250Y-114557505D01*
X110897392Y-114605125D01*
X110802154Y-114700363D01*
X110754535Y-114795601D01*
X110706916Y-114986077D01*
X110706916Y-115128934D01*
X110754535Y-115319410D01*
X110802154Y-115414648D01*
X110897392Y-115509886D01*
X111040250Y-115557505D01*
X111278345Y-115557505D01*
D14*
X222286333Y-122059886D02*
X222286333Y-122543696D01*
X222576619Y-121963125D02*
X221560619Y-122301791D01*
X222576619Y-122640458D01*
X221560619Y-122882363D02*
X222576619Y-123559696D01*
X221560619Y-123559696D02*
X222576619Y-122882363D01*
X222576619Y-123946744D02*
X221560619Y-123946744D01*
X222286333Y-124382172D02*
X222286333Y-124865982D01*
X222576619Y-124285410D02*
X221560619Y-124624077D01*
X222576619Y-124962744D01*
X222576619Y-125785220D02*
X222576619Y-125301410D01*
X221560619Y-125301410D01*
X221560619Y-127091505D02*
X221560619Y-127188267D01*
X221609000Y-127285029D01*
X221657380Y-127333410D01*
X221754142Y-127381791D01*
X221947666Y-127430172D01*
X222189571Y-127430172D01*
X222383095Y-127381791D01*
X222479857Y-127333410D01*
X222528238Y-127285029D01*
X222576619Y-127188267D01*
X222576619Y-127091505D01*
X222528238Y-126994744D01*
X222479857Y-126946363D01*
X222383095Y-126897982D01*
X222189571Y-126849601D01*
X221947666Y-126849601D01*
X221754142Y-126897982D01*
X221657380Y-126946363D01*
X221609000Y-126994744D01*
X221560619Y-127091505D01*
X222479857Y-127865601D02*
X222528238Y-127913982D01*
X222576619Y-127865601D01*
X222528238Y-127817220D01*
X222479857Y-127865601D01*
X222576619Y-127865601D01*
X221657380Y-128301029D02*
X221609000Y-128349410D01*
X221560619Y-128446172D01*
X221560619Y-128688077D01*
X221609000Y-128784839D01*
X221657380Y-128833220D01*
X221754142Y-128881601D01*
X221850904Y-128881601D01*
X221996047Y-128833220D01*
X222576619Y-128252648D01*
X222576619Y-128881601D01*
X221560619Y-129800839D02*
X221560619Y-129317029D01*
X222044428Y-129268648D01*
X221996047Y-129317029D01*
X221947666Y-129413791D01*
X221947666Y-129655696D01*
X221996047Y-129752458D01*
X222044428Y-129800839D01*
X222141190Y-129849220D01*
X222383095Y-129849220D01*
X222479857Y-129800839D01*
X222528238Y-129752458D01*
X222576619Y-129655696D01*
X222576619Y-129413791D01*
X222528238Y-129317029D01*
X222479857Y-129268648D01*
X221560619Y-130187886D02*
X222576619Y-130429791D01*
X221850904Y-130623315D01*
X222576619Y-130816839D01*
X221560619Y-131058744D01*
D10*
X111737773Y-125225505D02*
X111499678Y-126225505D01*
X111309202Y-125511220D01*
X111118726Y-126225505D01*
X110880630Y-125225505D01*
X110547297Y-126177886D02*
X110404440Y-126225505D01*
X110166345Y-126225505D01*
X110071107Y-126177886D01*
X110023488Y-126130267D01*
X109975869Y-126035029D01*
X109975869Y-125939791D01*
X110023488Y-125844553D01*
X110071107Y-125796934D01*
X110166345Y-125749315D01*
X110356821Y-125701696D01*
X110452059Y-125654077D01*
X110499678Y-125606458D01*
X110547297Y-125511220D01*
X110547297Y-125415982D01*
X110499678Y-125320744D01*
X110452059Y-125273125D01*
X110356821Y-125225505D01*
X110118726Y-125225505D01*
X109975869Y-125273125D01*
X109594916Y-125320744D02*
X109547297Y-125273125D01*
X109452059Y-125225505D01*
X109213964Y-125225505D01*
X109118726Y-125273125D01*
X109071107Y-125320744D01*
X109023488Y-125415982D01*
X109023488Y-125511220D01*
X109071107Y-125654077D01*
X109642535Y-126225505D01*
X109023488Y-126225505D01*
X108452059Y-125654077D02*
X108547297Y-125606458D01*
X108594916Y-125558839D01*
X108642535Y-125463601D01*
X108642535Y-125415982D01*
X108594916Y-125320744D01*
X108547297Y-125273125D01*
X108452059Y-125225505D01*
X108261583Y-125225505D01*
X108166345Y-125273125D01*
X108118726Y-125320744D01*
X108071107Y-125415982D01*
X108071107Y-125463601D01*
X108118726Y-125558839D01*
X108166345Y-125606458D01*
X108261583Y-125654077D01*
X108452059Y-125654077D01*
X108547297Y-125701696D01*
X108594916Y-125749315D01*
X108642535Y-125844553D01*
X108642535Y-126035029D01*
X108594916Y-126130267D01*
X108547297Y-126177886D01*
X108452059Y-126225505D01*
X108261583Y-126225505D01*
X108166345Y-126177886D01*
X108118726Y-126130267D01*
X108071107Y-126035029D01*
X108071107Y-125844553D01*
X108118726Y-125749315D01*
X108166345Y-125701696D01*
X108261583Y-125654077D01*
X107118726Y-126225505D02*
X107690154Y-126225505D01*
X107404440Y-126225505D02*
X107404440Y-125225505D01*
X107499678Y-125368363D01*
X107594916Y-125463601D01*
X107690154Y-125511220D01*
X106737773Y-125320744D02*
X106690154Y-125273125D01*
X106594916Y-125225505D01*
X106356821Y-125225505D01*
X106261583Y-125273125D01*
X106213964Y-125320744D01*
X106166345Y-125415982D01*
X106166345Y-125511220D01*
X106213964Y-125654077D01*
X106785392Y-126225505D01*
X106166345Y-126225505D01*
X120127488Y-136115696D02*
X119794154Y-136115696D01*
X119651297Y-136639505D02*
X120127488Y-136639505D01*
X120127488Y-135639505D01*
X119651297Y-135639505D01*
X118794154Y-135639505D02*
X118984630Y-135639505D01*
X119079869Y-135687125D01*
X119127488Y-135734744D01*
X119222726Y-135877601D01*
X119270345Y-136068077D01*
X119270345Y-136449029D01*
X119222726Y-136544267D01*
X119175107Y-136591886D01*
X119079869Y-136639505D01*
X118889392Y-136639505D01*
X118794154Y-136591886D01*
X118746535Y-136544267D01*
X118698916Y-136449029D01*
X118698916Y-136210934D01*
X118746535Y-136115696D01*
X118794154Y-136068077D01*
X118889392Y-136020458D01*
X119079869Y-136020458D01*
X119175107Y-136068077D01*
X119222726Y-136115696D01*
X119270345Y-136210934D01*
X117698916Y-136544267D02*
X117746535Y-136591886D01*
X117889392Y-136639505D01*
X117984630Y-136639505D01*
X118127488Y-136591886D01*
X118222726Y-136496648D01*
X118270345Y-136401410D01*
X118317964Y-136210934D01*
X118317964Y-136068077D01*
X118270345Y-135877601D01*
X118222726Y-135782363D01*
X118127488Y-135687125D01*
X117984630Y-135639505D01*
X117889392Y-135639505D01*
X117746535Y-135687125D01*
X117698916Y-135734744D01*
X116746535Y-136639505D02*
X117317964Y-136639505D01*
X117032250Y-136639505D02*
X117032250Y-135639505D01*
X117127488Y-135782363D01*
X117222726Y-135877601D01*
X117317964Y-135925220D01*
X116365583Y-135734744D02*
X116317964Y-135687125D01*
X116222726Y-135639505D01*
X115984630Y-135639505D01*
X115889392Y-135687125D01*
X115841773Y-135734744D01*
X115794154Y-135829982D01*
X115794154Y-135925220D01*
X115841773Y-136068077D01*
X116413202Y-136639505D01*
X115794154Y-136639505D01*
X115175107Y-135639505D02*
X115079869Y-135639505D01*
X114984630Y-135687125D01*
X114937011Y-135734744D01*
X114889392Y-135829982D01*
X114841773Y-136020458D01*
X114841773Y-136258553D01*
X114889392Y-136449029D01*
X114937011Y-136544267D01*
X114984630Y-136591886D01*
X115079869Y-136639505D01*
X115175107Y-136639505D01*
X115270345Y-136591886D01*
X115317964Y-136544267D01*
X115365583Y-136449029D01*
X115413202Y-136258553D01*
X115413202Y-136020458D01*
X115365583Y-135829982D01*
X115317964Y-135734744D01*
X115270345Y-135687125D01*
X115175107Y-135639505D01*
X114365583Y-136639505D02*
X114175107Y-136639505D01*
X114079869Y-136591886D01*
X114032250Y-136544267D01*
X113937011Y-136401410D01*
X113889392Y-136210934D01*
X113889392Y-135829982D01*
X113937011Y-135734744D01*
X113984630Y-135687125D01*
X114079869Y-135639505D01*
X114270345Y-135639505D01*
X114365583Y-135687125D01*
X114413202Y-135734744D01*
X114460821Y-135829982D01*
X114460821Y-136068077D01*
X114413202Y-136163315D01*
X114365583Y-136210934D01*
X114270345Y-136258553D01*
X114079869Y-136258553D01*
X113984630Y-136210934D01*
X113937011Y-136163315D01*
X113889392Y-136068077D01*
X112889392Y-136639505D02*
X113222726Y-136163315D01*
X113460821Y-136639505D02*
X113460821Y-135639505D01*
X113079869Y-135639505D01*
X112984630Y-135687125D01*
X112937011Y-135734744D01*
X112889392Y-135829982D01*
X112889392Y-135972839D01*
X112937011Y-136068077D01*
X112984630Y-136115696D01*
X113079869Y-136163315D01*
X113460821Y-136163315D01*
X111937011Y-135687125D02*
X112032250Y-135639505D01*
X112175107Y-135639505D01*
X112317964Y-135687125D01*
X112413202Y-135782363D01*
X112460821Y-135877601D01*
X112508440Y-136068077D01*
X112508440Y-136210934D01*
X112460821Y-136401410D01*
X112413202Y-136496648D01*
X112317964Y-136591886D01*
X112175107Y-136639505D01*
X112079869Y-136639505D01*
X111937011Y-136591886D01*
X111889392Y-136544267D01*
X111889392Y-136210934D01*
X112079869Y-136210934D01*
X111127488Y-136115696D02*
X110984630Y-136163315D01*
X110937011Y-136210934D01*
X110889392Y-136306172D01*
X110889392Y-136449029D01*
X110937011Y-136544267D01*
X110984630Y-136591886D01*
X111079869Y-136639505D01*
X111460821Y-136639505D01*
X111460821Y-135639505D01*
X111127488Y-135639505D01*
X111032250Y-135687125D01*
X110984630Y-135734744D01*
X110937011Y-135829982D01*
X110937011Y-135925220D01*
X110984630Y-136020458D01*
X111032250Y-136068077D01*
X111127488Y-136115696D01*
X111460821Y-136115696D01*
X229522630Y-120820267D02*
X229522630Y-120248839D01*
X229522630Y-120534553D02*
X228522630Y-120534553D01*
X228665488Y-120439315D01*
X228760726Y-120344077D01*
X228808345Y-120248839D01*
X228951202Y-121391696D02*
X228903583Y-121296458D01*
X228855964Y-121248839D01*
X228760726Y-121201220D01*
X228713107Y-121201220D01*
X228617869Y-121248839D01*
X228570250Y-121296458D01*
X228522630Y-121391696D01*
X228522630Y-121582172D01*
X228570250Y-121677410D01*
X228617869Y-121725029D01*
X228713107Y-121772648D01*
X228760726Y-121772648D01*
X228855964Y-121725029D01*
X228903583Y-121677410D01*
X228951202Y-121582172D01*
X228951202Y-121391696D01*
X228998821Y-121296458D01*
X229046440Y-121248839D01*
X229141678Y-121201220D01*
X229332154Y-121201220D01*
X229427392Y-121248839D01*
X229475011Y-121296458D01*
X229522630Y-121391696D01*
X229522630Y-121582172D01*
X229475011Y-121677410D01*
X229427392Y-121725029D01*
X229332154Y-121772648D01*
X229141678Y-121772648D01*
X229046440Y-121725029D01*
X228998821Y-121677410D01*
X228951202Y-121582172D01*
X229522630Y-122725029D02*
X229522630Y-122153601D01*
X229522630Y-122439315D02*
X228522630Y-122439315D01*
X228665488Y-122344077D01*
X228760726Y-122248839D01*
X228808345Y-122153601D01*
X228617869Y-123105982D02*
X228570250Y-123153601D01*
X228522630Y-123248839D01*
X228522630Y-123486934D01*
X228570250Y-123582172D01*
X228617869Y-123629791D01*
X228713107Y-123677410D01*
X228808345Y-123677410D01*
X228951202Y-123629791D01*
X229522630Y-123058363D01*
X229522630Y-123677410D01*
X234094630Y-121074267D02*
X234094630Y-120502839D01*
X234094630Y-120788553D02*
X233094630Y-120788553D01*
X233237488Y-120693315D01*
X233332726Y-120598077D01*
X233380345Y-120502839D01*
X233523202Y-121645696D02*
X233475583Y-121550458D01*
X233427964Y-121502839D01*
X233332726Y-121455220D01*
X233285107Y-121455220D01*
X233189869Y-121502839D01*
X233142250Y-121550458D01*
X233094630Y-121645696D01*
X233094630Y-121836172D01*
X233142250Y-121931410D01*
X233189869Y-121979029D01*
X233285107Y-122026648D01*
X233332726Y-122026648D01*
X233427964Y-121979029D01*
X233475583Y-121931410D01*
X233523202Y-121836172D01*
X233523202Y-121645696D01*
X233570821Y-121550458D01*
X233618440Y-121502839D01*
X233713678Y-121455220D01*
X233904154Y-121455220D01*
X233999392Y-121502839D01*
X234047011Y-121550458D01*
X234094630Y-121645696D01*
X234094630Y-121836172D01*
X234047011Y-121931410D01*
X233999392Y-121979029D01*
X233904154Y-122026648D01*
X233713678Y-122026648D01*
X233618440Y-121979029D01*
X233570821Y-121931410D01*
X233523202Y-121836172D01*
X233094630Y-122645696D02*
X233094630Y-122740934D01*
X233142250Y-122836172D01*
X233189869Y-122883791D01*
X233285107Y-122931410D01*
X233475583Y-122979029D01*
X233713678Y-122979029D01*
X233904154Y-122931410D01*
X233999392Y-122883791D01*
X234047011Y-122836172D01*
X234094630Y-122740934D01*
X234094630Y-122645696D01*
X234047011Y-122550458D01*
X233999392Y-122502839D01*
X233904154Y-122455220D01*
X233713678Y-122407601D01*
X233475583Y-122407601D01*
X233285107Y-122455220D01*
X233189869Y-122502839D01*
X233142250Y-122550458D01*
X233094630Y-122645696D01*
X233094630Y-123836172D02*
X233094630Y-123645696D01*
X233142250Y-123550458D01*
X233189869Y-123502839D01*
X233332726Y-123407601D01*
X233523202Y-123359982D01*
X233904154Y-123359982D01*
X233999392Y-123407601D01*
X234047011Y-123455220D01*
X234094630Y-123550458D01*
X234094630Y-123740934D01*
X234047011Y-123836172D01*
X233999392Y-123883791D01*
X233904154Y-123931410D01*
X233666059Y-123931410D01*
X233570821Y-123883791D01*
X233523202Y-123836172D01*
X233475583Y-123740934D01*
X233475583Y-123550458D01*
X233523202Y-123455220D01*
X233570821Y-123407601D01*
X233666059Y-123359982D01*
X239174630Y-121582267D02*
X239174630Y-121010839D01*
X239174630Y-121296553D02*
X238174630Y-121296553D01*
X238317488Y-121201315D01*
X238412726Y-121106077D01*
X238460345Y-121010839D01*
X238269869Y-121963220D02*
X238222250Y-122010839D01*
X238174630Y-122106077D01*
X238174630Y-122344172D01*
X238222250Y-122439410D01*
X238269869Y-122487029D01*
X238365107Y-122534648D01*
X238460345Y-122534648D01*
X238603202Y-122487029D01*
X239174630Y-121915601D01*
X239174630Y-122534648D01*
X239174630Y-123487029D02*
X239174630Y-122915601D01*
X239174630Y-123201315D02*
X238174630Y-123201315D01*
X238317488Y-123106077D01*
X238412726Y-123010839D01*
X238460345Y-122915601D01*
X238603202Y-124058458D02*
X238555583Y-123963220D01*
X238507964Y-123915601D01*
X238412726Y-123867982D01*
X238365107Y-123867982D01*
X238269869Y-123915601D01*
X238222250Y-123963220D01*
X238174630Y-124058458D01*
X238174630Y-124248934D01*
X238222250Y-124344172D01*
X238269869Y-124391791D01*
X238365107Y-124439410D01*
X238412726Y-124439410D01*
X238507964Y-124391791D01*
X238555583Y-124344172D01*
X238603202Y-124248934D01*
X238603202Y-124058458D01*
X238650821Y-123963220D01*
X238698440Y-123915601D01*
X238793678Y-123867982D01*
X238984154Y-123867982D01*
X239079392Y-123915601D01*
X239127011Y-123963220D01*
X239174630Y-124058458D01*
X239174630Y-124248934D01*
X239127011Y-124344172D01*
X239079392Y-124391791D01*
X238984154Y-124439410D01*
X238793678Y-124439410D01*
X238698440Y-124391791D01*
X238650821Y-124344172D01*
X238603202Y-124248934D01*
X244508630Y-121582267D02*
X244508630Y-121010839D01*
X244508630Y-121296553D02*
X243508630Y-121296553D01*
X243651488Y-121201315D01*
X243746726Y-121106077D01*
X243794345Y-121010839D01*
X243603869Y-121963220D02*
X243556250Y-122010839D01*
X243508630Y-122106077D01*
X243508630Y-122344172D01*
X243556250Y-122439410D01*
X243603869Y-122487029D01*
X243699107Y-122534648D01*
X243794345Y-122534648D01*
X243937202Y-122487029D01*
X244508630Y-121915601D01*
X244508630Y-122534648D01*
X244508630Y-123487029D02*
X244508630Y-122915601D01*
X244508630Y-123201315D02*
X243508630Y-123201315D01*
X243651488Y-123106077D01*
X243746726Y-123010839D01*
X243794345Y-122915601D01*
X243508630Y-124106077D02*
X243508630Y-124201315D01*
X243556250Y-124296553D01*
X243603869Y-124344172D01*
X243699107Y-124391791D01*
X243889583Y-124439410D01*
X244127678Y-124439410D01*
X244318154Y-124391791D01*
X244413392Y-124344172D01*
X244461011Y-124296553D01*
X244508630Y-124201315D01*
X244508630Y-124106077D01*
X244461011Y-124010839D01*
X244413392Y-123963220D01*
X244318154Y-123915601D01*
X244127678Y-123867982D01*
X243889583Y-123867982D01*
X243699107Y-123915601D01*
X243603869Y-123963220D01*
X243556250Y-124010839D01*
X243508630Y-124106077D01*
D18*
X88952964Y-118134982D02*
X88190964Y-118134982D01*
X88190964Y-118316410D01*
X88227250Y-118425267D01*
X88299821Y-118497839D01*
X88372392Y-118534125D01*
X88517535Y-118570410D01*
X88626392Y-118570410D01*
X88771535Y-118534125D01*
X88844107Y-118497839D01*
X88916678Y-118425267D01*
X88952964Y-118316410D01*
X88952964Y-118134982D01*
X88190964Y-119042125D02*
X88190964Y-119187267D01*
X88227250Y-119259839D01*
X88299821Y-119332410D01*
X88444964Y-119368696D01*
X88698964Y-119368696D01*
X88844107Y-119332410D01*
X88916678Y-119259839D01*
X88952964Y-119187267D01*
X88952964Y-119042125D01*
X88916678Y-118969553D01*
X88844107Y-118896982D01*
X88698964Y-118860696D01*
X88444964Y-118860696D01*
X88299821Y-118896982D01*
X88227250Y-118969553D01*
X88190964Y-119042125D01*
X88662678Y-119695267D02*
X88662678Y-120275839D01*
X88190964Y-120566125D02*
X88190964Y-121037839D01*
X88481250Y-120783839D01*
X88481250Y-120892696D01*
X88517535Y-120965267D01*
X88553821Y-121001553D01*
X88626392Y-121037839D01*
X88807821Y-121037839D01*
X88880392Y-121001553D01*
X88916678Y-120965267D01*
X88952964Y-120892696D01*
X88952964Y-120674982D01*
X88916678Y-120602410D01*
X88880392Y-120566125D01*
X88190964Y-121727267D02*
X88190964Y-121364410D01*
X88553821Y-121328125D01*
X88517535Y-121364410D01*
X88481250Y-121436982D01*
X88481250Y-121618410D01*
X88517535Y-121690982D01*
X88553821Y-121727267D01*
X88626392Y-121763553D01*
X88807821Y-121763553D01*
X88880392Y-121727267D01*
X88916678Y-121690982D01*
X88952964Y-121618410D01*
X88952964Y-121436982D01*
X88916678Y-121364410D01*
X88880392Y-121328125D01*
D11*
X157553297Y-126373505D02*
X157553297Y-127087791D01*
X157600916Y-127230648D01*
X157696154Y-127325886D01*
X157839011Y-127373505D01*
X157934250Y-127373505D01*
X156934250Y-126373505D02*
X156934250Y-126611601D01*
X157172345Y-126516363D02*
X156934250Y-126611601D01*
X156696154Y-126516363D01*
X157077107Y-126802077D02*
X156934250Y-126611601D01*
X156791392Y-126802077D01*
X156172345Y-126373505D02*
X156172345Y-126611601D01*
X156410440Y-126516363D02*
X156172345Y-126611601D01*
X155934250Y-126516363D01*
X156315202Y-126802077D02*
X156172345Y-126611601D01*
X156029488Y-126802077D01*
D10*
X100616059Y-119785410D02*
X100654154Y-119899696D01*
X100654154Y-120090172D01*
X100616059Y-120166363D01*
X100577964Y-120204458D01*
X100501773Y-120242553D01*
X100425583Y-120242553D01*
X100349392Y-120204458D01*
X100311297Y-120166363D01*
X100273202Y-120090172D01*
X100235107Y-119937791D01*
X100197011Y-119861601D01*
X100158916Y-119823505D01*
X100082726Y-119785410D01*
X100006535Y-119785410D01*
X99930345Y-119823505D01*
X99892250Y-119861601D01*
X99854154Y-119937791D01*
X99854154Y-120128267D01*
X99892250Y-120242553D01*
X99854154Y-120737791D02*
X99854154Y-120890172D01*
X99892250Y-120966363D01*
X99968440Y-121042553D01*
X100120821Y-121080648D01*
X100387488Y-121080648D01*
X100539869Y-121042553D01*
X100616059Y-120966363D01*
X100654154Y-120890172D01*
X100654154Y-120737791D01*
X100616059Y-120661601D01*
X100539869Y-120585410D01*
X100387488Y-120547315D01*
X100120821Y-120547315D01*
X99968440Y-120585410D01*
X99892250Y-120661601D01*
X99854154Y-120737791D01*
X100654154Y-121423505D02*
X99854154Y-121423505D01*
X99854154Y-121613982D01*
X99892250Y-121728267D01*
X99968440Y-121804458D01*
X100044630Y-121842553D01*
X100197011Y-121880648D01*
X100311297Y-121880648D01*
X100463678Y-121842553D01*
X100539869Y-121804458D01*
X100616059Y-121728267D01*
X100654154Y-121613982D01*
X100654154Y-121423505D01*
X100349392Y-122223505D02*
X100349392Y-122833029D01*
X99854154Y-123594934D02*
X99854154Y-123213982D01*
X100235107Y-123175886D01*
X100197011Y-123213982D01*
X100158916Y-123290172D01*
X100158916Y-123480648D01*
X100197011Y-123556839D01*
X100235107Y-123594934D01*
X100311297Y-123633029D01*
X100501773Y-123633029D01*
X100577964Y-123594934D01*
X100616059Y-123556839D01*
X100654154Y-123480648D01*
X100654154Y-123290172D01*
X100616059Y-123213982D01*
X100577964Y-123175886D01*
X99930345Y-123937791D02*
X99892250Y-123975886D01*
X99854154Y-124052077D01*
X99854154Y-124242553D01*
X99892250Y-124318744D01*
X99930345Y-124356839D01*
X100006535Y-124394934D01*
X100082726Y-124394934D01*
X100197011Y-124356839D01*
X100654154Y-123899696D01*
X100654154Y-124394934D01*
X99854154Y-124661601D02*
X99854154Y-125156839D01*
X100158916Y-124890172D01*
X100158916Y-125004458D01*
X100197011Y-125080648D01*
X100235107Y-125118744D01*
X100311297Y-125156839D01*
X100501773Y-125156839D01*
X100577964Y-125118744D01*
X100616059Y-125080648D01*
X100654154Y-125004458D01*
X100654154Y-124775886D01*
X100616059Y-124699696D01*
X100577964Y-124661601D01*
X136058440Y-123955505D02*
X135963202Y-123955505D01*
X135867964Y-124003125D01*
X135820345Y-124050744D01*
X135772726Y-124145982D01*
X135725107Y-124336458D01*
X135725107Y-124574553D01*
X135772726Y-124765029D01*
X135820345Y-124860267D01*
X135867964Y-124907886D01*
X135963202Y-124955505D01*
X136058440Y-124955505D01*
X136153678Y-124907886D01*
X136201297Y-124860267D01*
X136248916Y-124765029D01*
X136296535Y-124574553D01*
X136296535Y-124336458D01*
X136248916Y-124145982D01*
X136201297Y-124050744D01*
X136153678Y-124003125D01*
X136058440Y-123955505D01*
X134867964Y-123955505D02*
X135058440Y-123955505D01*
X135153678Y-124003125D01*
X135201297Y-124050744D01*
X135296535Y-124193601D01*
X135344154Y-124384077D01*
X135344154Y-124765029D01*
X135296535Y-124860267D01*
X135248916Y-124907886D01*
X135153678Y-124955505D01*
X134963202Y-124955505D01*
X134867964Y-124907886D01*
X134820345Y-124860267D01*
X134772726Y-124765029D01*
X134772726Y-124526934D01*
X134820345Y-124431696D01*
X134867964Y-124384077D01*
X134963202Y-124336458D01*
X135153678Y-124336458D01*
X135248916Y-124384077D01*
X135296535Y-124431696D01*
X135344154Y-124526934D01*
X134153678Y-123955505D02*
X134058440Y-123955505D01*
X133963202Y-124003125D01*
X133915583Y-124050744D01*
X133867964Y-124145982D01*
X133820345Y-124336458D01*
X133820345Y-124574553D01*
X133867964Y-124765029D01*
X133915583Y-124860267D01*
X133963202Y-124907886D01*
X134058440Y-124955505D01*
X134153678Y-124955505D01*
X134248916Y-124907886D01*
X134296535Y-124860267D01*
X134344154Y-124765029D01*
X134391773Y-124574553D01*
X134391773Y-124336458D01*
X134344154Y-124145982D01*
X134296535Y-124050744D01*
X134248916Y-124003125D01*
X134153678Y-123955505D01*
X133487011Y-123955505D02*
X132867964Y-123955505D01*
X133201297Y-124336458D01*
X133058440Y-124336458D01*
X132963202Y-124384077D01*
X132915583Y-124431696D01*
X132867964Y-124526934D01*
X132867964Y-124765029D01*
X132915583Y-124860267D01*
X132963202Y-124907886D01*
X133058440Y-124955505D01*
X133344154Y-124955505D01*
X133439392Y-124907886D01*
X133487011Y-124860267D01*
X135859869Y-118875505D02*
X136336059Y-118875505D01*
X136383678Y-119351696D01*
X136336059Y-119304077D01*
X136240821Y-119256458D01*
X136002726Y-119256458D01*
X135907488Y-119304077D01*
X135859869Y-119351696D01*
X135812250Y-119446934D01*
X135812250Y-119685029D01*
X135859869Y-119780267D01*
X135907488Y-119827886D01*
X136002726Y-119875505D01*
X136240821Y-119875505D01*
X136336059Y-119827886D01*
X136383678Y-119780267D01*
X135193202Y-118875505D02*
X135097964Y-118875505D01*
X135002726Y-118923125D01*
X134955107Y-118970744D01*
X134907488Y-119065982D01*
X134859869Y-119256458D01*
X134859869Y-119494553D01*
X134907488Y-119685029D01*
X134955107Y-119780267D01*
X135002726Y-119827886D01*
X135097964Y-119875505D01*
X135193202Y-119875505D01*
X135288440Y-119827886D01*
X135336059Y-119780267D01*
X135383678Y-119685029D01*
X135431297Y-119494553D01*
X135431297Y-119256458D01*
X135383678Y-119065982D01*
X135336059Y-118970744D01*
X135288440Y-118923125D01*
X135193202Y-118875505D01*
X134526535Y-118875505D02*
X133907488Y-118875505D01*
X134240821Y-119256458D01*
X134097964Y-119256458D01*
X134002726Y-119304077D01*
X133955107Y-119351696D01*
X133907488Y-119446934D01*
X133907488Y-119685029D01*
X133955107Y-119780267D01*
X134002726Y-119827886D01*
X134097964Y-119875505D01*
X134383678Y-119875505D01*
X134478916Y-119827886D01*
X134526535Y-119780267D01*
X133526535Y-118970744D02*
X133478916Y-118923125D01*
X133383678Y-118875505D01*
X133145583Y-118875505D01*
X133050345Y-118923125D01*
X133002726Y-118970744D01*
X132955107Y-119065982D01*
X132955107Y-119161220D01*
X133002726Y-119304077D01*
X133574154Y-119875505D01*
X132955107Y-119875505D01*
X131812250Y-118970744D02*
X131764630Y-118923125D01*
X131669392Y-118875505D01*
X131431297Y-118875505D01*
X131336059Y-118923125D01*
X131288440Y-118970744D01*
X131240821Y-119065982D01*
X131240821Y-119161220D01*
X131288440Y-119304077D01*
X131859869Y-119875505D01*
X131240821Y-119875505D01*
X130812250Y-119875505D02*
X130812250Y-118875505D01*
X130431297Y-118875505D01*
X130336059Y-118923125D01*
X130288440Y-118970744D01*
X130240821Y-119065982D01*
X130240821Y-119208839D01*
X130288440Y-119304077D01*
X130336059Y-119351696D01*
X130431297Y-119399315D01*
X130812250Y-119399315D01*
X136494869Y-134115505D02*
X136971059Y-134115505D01*
X137018678Y-134591696D01*
X136971059Y-134544077D01*
X136875821Y-134496458D01*
X136637726Y-134496458D01*
X136542488Y-134544077D01*
X136494869Y-134591696D01*
X136447250Y-134686934D01*
X136447250Y-134925029D01*
X136494869Y-135020267D01*
X136542488Y-135067886D01*
X136637726Y-135115505D01*
X136875821Y-135115505D01*
X136971059Y-135067886D01*
X137018678Y-135020267D01*
X135828202Y-134115505D02*
X135732964Y-134115505D01*
X135637726Y-134163125D01*
X135590107Y-134210744D01*
X135542488Y-134305982D01*
X135494869Y-134496458D01*
X135494869Y-134734553D01*
X135542488Y-134925029D01*
X135590107Y-135020267D01*
X135637726Y-135067886D01*
X135732964Y-135115505D01*
X135828202Y-135115505D01*
X135923440Y-135067886D01*
X135971059Y-135020267D01*
X136018678Y-134925029D01*
X136066297Y-134734553D01*
X136066297Y-134496458D01*
X136018678Y-134305982D01*
X135971059Y-134210744D01*
X135923440Y-134163125D01*
X135828202Y-134115505D01*
X135161535Y-134115505D02*
X134542488Y-134115505D01*
X134875821Y-134496458D01*
X134732964Y-134496458D01*
X134637726Y-134544077D01*
X134590107Y-134591696D01*
X134542488Y-134686934D01*
X134542488Y-134925029D01*
X134590107Y-135020267D01*
X134637726Y-135067886D01*
X134732964Y-135115505D01*
X135018678Y-135115505D01*
X135113916Y-135067886D01*
X135161535Y-135020267D01*
X134161535Y-134210744D02*
X134113916Y-134163125D01*
X134018678Y-134115505D01*
X133780583Y-134115505D01*
X133685345Y-134163125D01*
X133637726Y-134210744D01*
X133590107Y-134305982D01*
X133590107Y-134401220D01*
X133637726Y-134544077D01*
X134209154Y-135115505D01*
X133590107Y-135115505D01*
X131971059Y-134448839D02*
X131971059Y-135115505D01*
X132209154Y-134067886D02*
X132447250Y-134782172D01*
X131828202Y-134782172D01*
X131447250Y-135115505D02*
X131447250Y-134115505D01*
X131066297Y-134115505D01*
X130971059Y-134163125D01*
X130923440Y-134210744D01*
X130875821Y-134305982D01*
X130875821Y-134448839D01*
X130923440Y-134544077D01*
X130971059Y-134591696D01*
X131066297Y-134639315D01*
X131447250Y-134639315D01*
X136296535Y-129130744D02*
X136248916Y-129083125D01*
X136153678Y-129035505D01*
X135915583Y-129035505D01*
X135820345Y-129083125D01*
X135772726Y-129130744D01*
X135725107Y-129225982D01*
X135725107Y-129321220D01*
X135772726Y-129464077D01*
X136344154Y-130035505D01*
X135725107Y-130035505D01*
X135106059Y-129035505D02*
X135010821Y-129035505D01*
X134915583Y-129083125D01*
X134867964Y-129130744D01*
X134820345Y-129225982D01*
X134772726Y-129416458D01*
X134772726Y-129654553D01*
X134820345Y-129845029D01*
X134867964Y-129940267D01*
X134915583Y-129987886D01*
X135010821Y-130035505D01*
X135106059Y-130035505D01*
X135201297Y-129987886D01*
X135248916Y-129940267D01*
X135296535Y-129845029D01*
X135344154Y-129654553D01*
X135344154Y-129416458D01*
X135296535Y-129225982D01*
X135248916Y-129130744D01*
X135201297Y-129083125D01*
X135106059Y-129035505D01*
X133820345Y-130035505D02*
X134391773Y-130035505D01*
X134106059Y-130035505D02*
X134106059Y-129035505D01*
X134201297Y-129178363D01*
X134296535Y-129273601D01*
X134391773Y-129321220D01*
X132963202Y-129035505D02*
X133153678Y-129035505D01*
X133248916Y-129083125D01*
X133296535Y-129130744D01*
X133391773Y-129273601D01*
X133439392Y-129464077D01*
X133439392Y-129845029D01*
X133391773Y-129940267D01*
X133344154Y-129987886D01*
X133248916Y-130035505D01*
X133058440Y-130035505D01*
X132963202Y-129987886D01*
X132915583Y-129940267D01*
X132867964Y-129845029D01*
X132867964Y-129606934D01*
X132915583Y-129511696D01*
X132963202Y-129464077D01*
X133058440Y-129416458D01*
X133248916Y-129416458D01*
X133344154Y-129464077D01*
X133391773Y-129511696D01*
X133439392Y-129606934D01*
X96806059Y-119150410D02*
X96844154Y-119264696D01*
X96844154Y-119455172D01*
X96806059Y-119531363D01*
X96767964Y-119569458D01*
X96691773Y-119607553D01*
X96615583Y-119607553D01*
X96539392Y-119569458D01*
X96501297Y-119531363D01*
X96463202Y-119455172D01*
X96425107Y-119302791D01*
X96387011Y-119226601D01*
X96348916Y-119188505D01*
X96272726Y-119150410D01*
X96196535Y-119150410D01*
X96120345Y-119188505D01*
X96082250Y-119226601D01*
X96044154Y-119302791D01*
X96044154Y-119493267D01*
X96082250Y-119607553D01*
X96044154Y-120102791D02*
X96044154Y-120255172D01*
X96082250Y-120331363D01*
X96158440Y-120407553D01*
X96310821Y-120445648D01*
X96577488Y-120445648D01*
X96729869Y-120407553D01*
X96806059Y-120331363D01*
X96844154Y-120255172D01*
X96844154Y-120102791D01*
X96806059Y-120026601D01*
X96729869Y-119950410D01*
X96577488Y-119912315D01*
X96310821Y-119912315D01*
X96158440Y-119950410D01*
X96082250Y-120026601D01*
X96044154Y-120102791D01*
X96844154Y-120788505D02*
X96044154Y-120788505D01*
X96044154Y-120978982D01*
X96082250Y-121093267D01*
X96158440Y-121169458D01*
X96234630Y-121207553D01*
X96387011Y-121245648D01*
X96501297Y-121245648D01*
X96653678Y-121207553D01*
X96729869Y-121169458D01*
X96806059Y-121093267D01*
X96844154Y-120978982D01*
X96844154Y-120788505D01*
X96539392Y-121588505D02*
X96539392Y-122198029D01*
X96044154Y-122502791D02*
X96044154Y-122998029D01*
X96348916Y-122731363D01*
X96348916Y-122845648D01*
X96387011Y-122921839D01*
X96425107Y-122959934D01*
X96501297Y-122998029D01*
X96691773Y-122998029D01*
X96767964Y-122959934D01*
X96806059Y-122921839D01*
X96844154Y-122845648D01*
X96844154Y-122617077D01*
X96806059Y-122540886D01*
X96767964Y-122502791D01*
X96120345Y-123302791D02*
X96082250Y-123340886D01*
X96044154Y-123417077D01*
X96044154Y-123607553D01*
X96082250Y-123683744D01*
X96120345Y-123721839D01*
X96196535Y-123759934D01*
X96272726Y-123759934D01*
X96387011Y-123721839D01*
X96844154Y-123264696D01*
X96844154Y-123759934D01*
X96044154Y-124026601D02*
X96044154Y-124521839D01*
X96348916Y-124255172D01*
X96348916Y-124369458D01*
X96387011Y-124445648D01*
X96425107Y-124483744D01*
X96501297Y-124521839D01*
X96691773Y-124521839D01*
X96767964Y-124483744D01*
X96806059Y-124445648D01*
X96844154Y-124369458D01*
X96844154Y-124140886D01*
X96806059Y-124064696D01*
X96767964Y-124026601D01*
X92996059Y-118642410D02*
X93034154Y-118756696D01*
X93034154Y-118947172D01*
X92996059Y-119023363D01*
X92957964Y-119061458D01*
X92881773Y-119099553D01*
X92805583Y-119099553D01*
X92729392Y-119061458D01*
X92691297Y-119023363D01*
X92653202Y-118947172D01*
X92615107Y-118794791D01*
X92577011Y-118718601D01*
X92538916Y-118680505D01*
X92462726Y-118642410D01*
X92386535Y-118642410D01*
X92310345Y-118680505D01*
X92272250Y-118718601D01*
X92234154Y-118794791D01*
X92234154Y-118985267D01*
X92272250Y-119099553D01*
X92234154Y-119594791D02*
X92234154Y-119747172D01*
X92272250Y-119823363D01*
X92348440Y-119899553D01*
X92500821Y-119937648D01*
X92767488Y-119937648D01*
X92919869Y-119899553D01*
X92996059Y-119823363D01*
X93034154Y-119747172D01*
X93034154Y-119594791D01*
X92996059Y-119518601D01*
X92919869Y-119442410D01*
X92767488Y-119404315D01*
X92500821Y-119404315D01*
X92348440Y-119442410D01*
X92272250Y-119518601D01*
X92234154Y-119594791D01*
X93034154Y-120280505D02*
X92234154Y-120280505D01*
X92234154Y-120470982D01*
X92272250Y-120585267D01*
X92348440Y-120661458D01*
X92424630Y-120699553D01*
X92577011Y-120737648D01*
X92691297Y-120737648D01*
X92843678Y-120699553D01*
X92919869Y-120661458D01*
X92996059Y-120585267D01*
X93034154Y-120470982D01*
X93034154Y-120280505D01*
X92729392Y-121080505D02*
X92729392Y-121690029D01*
X93034154Y-122490029D02*
X93034154Y-122032886D01*
X93034154Y-122261458D02*
X92234154Y-122261458D01*
X92348440Y-122185267D01*
X92424630Y-122109077D01*
X92462726Y-122032886D01*
X92310345Y-122794791D02*
X92272250Y-122832886D01*
X92234154Y-122909077D01*
X92234154Y-123099553D01*
X92272250Y-123175744D01*
X92310345Y-123213839D01*
X92386535Y-123251934D01*
X92462726Y-123251934D01*
X92577011Y-123213839D01*
X93034154Y-122756696D01*
X93034154Y-123251934D01*
X92234154Y-123518601D02*
X92234154Y-124013839D01*
X92538916Y-123747172D01*
X92538916Y-123861458D01*
X92577011Y-123937648D01*
X92615107Y-123975744D01*
X92691297Y-124013839D01*
X92881773Y-124013839D01*
X92957964Y-123975744D01*
X92996059Y-123937648D01*
X93034154Y-123861458D01*
X93034154Y-123632886D01*
X92996059Y-123556696D01*
X92957964Y-123518601D01*
X300642202Y-116827505D02*
X300642202Y-115827505D01*
X300070773Y-116827505D02*
X300499345Y-116256077D01*
X300070773Y-115827505D02*
X300642202Y-116398934D01*
X299213630Y-116827505D02*
X299213630Y-116303696D01*
X299261250Y-116208458D01*
X299356488Y-116160839D01*
X299546964Y-116160839D01*
X299642202Y-116208458D01*
X299213630Y-116779886D02*
X299308869Y-116827505D01*
X299546964Y-116827505D01*
X299642202Y-116779886D01*
X299689821Y-116684648D01*
X299689821Y-116589410D01*
X299642202Y-116494172D01*
X299546964Y-116446553D01*
X299308869Y-116446553D01*
X299213630Y-116398934D01*
X298737440Y-116827505D02*
X298737440Y-116160839D01*
X298737440Y-115827505D02*
X298785059Y-115875125D01*
X298737440Y-115922744D01*
X298689821Y-115875125D01*
X298737440Y-115827505D01*
X298737440Y-115922744D01*
X298118392Y-116827505D02*
X298213630Y-116779886D01*
X298261250Y-116684648D01*
X298261250Y-115827505D01*
X297737440Y-116827505D02*
X297737440Y-115827505D01*
X297308869Y-116827505D02*
X297308869Y-116303696D01*
X297356488Y-116208458D01*
X297451726Y-116160839D01*
X297594583Y-116160839D01*
X297689821Y-116208458D01*
X297737440Y-116256077D01*
X295499345Y-116732267D02*
X295546964Y-116779886D01*
X295689821Y-116827505D01*
X295785059Y-116827505D01*
X295927916Y-116779886D01*
X296023154Y-116684648D01*
X296070773Y-116589410D01*
X296118392Y-116398934D01*
X296118392Y-116256077D01*
X296070773Y-116065601D01*
X296023154Y-115970363D01*
X295927916Y-115875125D01*
X295785059Y-115827505D01*
X295689821Y-115827505D01*
X295546964Y-115875125D01*
X295499345Y-115922744D01*
X295070773Y-116827505D02*
X295070773Y-115827505D01*
X294642202Y-116827505D02*
X294642202Y-116303696D01*
X294689821Y-116208458D01*
X294785059Y-116160839D01*
X294927916Y-116160839D01*
X295023154Y-116208458D01*
X295070773Y-116256077D01*
X294023154Y-116827505D02*
X294118392Y-116779886D01*
X294166011Y-116732267D01*
X294213630Y-116637029D01*
X294213630Y-116351315D01*
X294166011Y-116256077D01*
X294118392Y-116208458D01*
X294023154Y-116160839D01*
X293880297Y-116160839D01*
X293785059Y-116208458D01*
X293737440Y-116256077D01*
X293689821Y-116351315D01*
X293689821Y-116637029D01*
X293737440Y-116732267D01*
X293785059Y-116779886D01*
X293880297Y-116827505D01*
X294023154Y-116827505D01*
X292832678Y-116779886D02*
X292927916Y-116827505D01*
X293118392Y-116827505D01*
X293213630Y-116779886D01*
X293261250Y-116732267D01*
X293308869Y-116637029D01*
X293308869Y-116351315D01*
X293261250Y-116256077D01*
X293213630Y-116208458D01*
X293118392Y-116160839D01*
X292927916Y-116160839D01*
X292832678Y-116208458D01*
X323780297Y-116541791D02*
X323304107Y-116541791D01*
X323875535Y-116827505D02*
X323542202Y-115827505D01*
X323208869Y-116827505D01*
X322399345Y-116827505D02*
X322875535Y-116827505D01*
X322875535Y-115827505D01*
X322066011Y-116827505D02*
X322066011Y-115827505D01*
X321685059Y-115827505D01*
X321589821Y-115875125D01*
X321542202Y-115922744D01*
X321494583Y-116017982D01*
X321494583Y-116160839D01*
X321542202Y-116256077D01*
X321589821Y-116303696D01*
X321685059Y-116351315D01*
X322066011Y-116351315D01*
X321113630Y-116779886D02*
X320970773Y-116827505D01*
X320732678Y-116827505D01*
X320637440Y-116779886D01*
X320589821Y-116732267D01*
X320542202Y-116637029D01*
X320542202Y-116541791D01*
X320589821Y-116446553D01*
X320637440Y-116398934D01*
X320732678Y-116351315D01*
X320923154Y-116303696D01*
X321018392Y-116256077D01*
X321066011Y-116208458D01*
X321113630Y-116113220D01*
X321113630Y-116017982D01*
X321066011Y-115922744D01*
X321018392Y-115875125D01*
X320923154Y-115827505D01*
X320685059Y-115827505D01*
X320542202Y-115875125D01*
X350521488Y-116573505D02*
X350521488Y-115573505D01*
X350188154Y-116287791D01*
X349854821Y-115573505D01*
X349854821Y-116573505D01*
X349473869Y-115573505D02*
X348807202Y-116573505D01*
X348807202Y-115573505D02*
X349473869Y-116573505D01*
X347711964Y-116525886D02*
X347569107Y-116573505D01*
X347331011Y-116573505D01*
X347235773Y-116525886D01*
X347188154Y-116478267D01*
X347140535Y-116383029D01*
X347140535Y-116287791D01*
X347188154Y-116192553D01*
X347235773Y-116144934D01*
X347331011Y-116097315D01*
X347521488Y-116049696D01*
X347616726Y-116002077D01*
X347664345Y-115954458D01*
X347711964Y-115859220D01*
X347711964Y-115763982D01*
X347664345Y-115668744D01*
X347616726Y-115621125D01*
X347521488Y-115573505D01*
X347283392Y-115573505D01*
X347140535Y-115621125D01*
X346807202Y-115906839D02*
X346616726Y-116573505D01*
X346426250Y-116097315D01*
X346235773Y-116573505D01*
X346045297Y-115906839D01*
X345664345Y-116573505D02*
X345664345Y-115906839D01*
X345664345Y-115573505D02*
X345711964Y-115621125D01*
X345664345Y-115668744D01*
X345616726Y-115621125D01*
X345664345Y-115573505D01*
X345664345Y-115668744D01*
X345331011Y-115906839D02*
X344950059Y-115906839D01*
X345188154Y-115573505D02*
X345188154Y-116430648D01*
X345140535Y-116525886D01*
X345045297Y-116573505D01*
X344950059Y-116573505D01*
X344188154Y-116525886D02*
X344283392Y-116573505D01*
X344473869Y-116573505D01*
X344569107Y-116525886D01*
X344616726Y-116478267D01*
X344664345Y-116383029D01*
X344664345Y-116097315D01*
X344616726Y-116002077D01*
X344569107Y-115954458D01*
X344473869Y-115906839D01*
X344283392Y-115906839D01*
X344188154Y-115954458D01*
X343759583Y-116573505D02*
X343759583Y-115573505D01*
X343331011Y-116573505D02*
X343331011Y-116049696D01*
X343378630Y-115954458D01*
X343473869Y-115906839D01*
X343616726Y-115906839D01*
X343711964Y-115954458D01*
X343759583Y-116002077D01*
X256900630Y-122042934D02*
X256900630Y-122138172D01*
X256948250Y-122233410D01*
X256995869Y-122281029D01*
X257091107Y-122328648D01*
X257281583Y-122376267D01*
X257519678Y-122376267D01*
X257710154Y-122328648D01*
X257805392Y-122281029D01*
X257853011Y-122233410D01*
X257900630Y-122138172D01*
X257900630Y-122042934D01*
X257853011Y-121947696D01*
X257805392Y-121900077D01*
X257710154Y-121852458D01*
X257519678Y-121804839D01*
X257281583Y-121804839D01*
X257091107Y-121852458D01*
X256995869Y-121900077D01*
X256948250Y-121947696D01*
X256900630Y-122042934D01*
X257233964Y-123233410D02*
X257900630Y-123233410D01*
X256853011Y-122995315D02*
X257567297Y-122757220D01*
X257567297Y-123376267D01*
X256900630Y-123947696D02*
X256900630Y-124042934D01*
X256948250Y-124138172D01*
X256995869Y-124185791D01*
X257091107Y-124233410D01*
X257281583Y-124281029D01*
X257519678Y-124281029D01*
X257710154Y-124233410D01*
X257805392Y-124185791D01*
X257853011Y-124138172D01*
X257900630Y-124042934D01*
X257900630Y-123947696D01*
X257853011Y-123852458D01*
X257805392Y-123804839D01*
X257710154Y-123757220D01*
X257519678Y-123709601D01*
X257281583Y-123709601D01*
X257091107Y-123757220D01*
X256995869Y-123804839D01*
X256948250Y-123852458D01*
X256900630Y-123947696D01*
X256995869Y-124661982D02*
X256948250Y-124709601D01*
X256900630Y-124804839D01*
X256900630Y-125042934D01*
X256948250Y-125138172D01*
X256995869Y-125185791D01*
X257091107Y-125233410D01*
X257186345Y-125233410D01*
X257329202Y-125185791D01*
X257900630Y-124614363D01*
X257900630Y-125233410D01*
X253900630Y-122042934D02*
X253900630Y-122138172D01*
X253948250Y-122233410D01*
X253995869Y-122281029D01*
X254091107Y-122328648D01*
X254281583Y-122376267D01*
X254519678Y-122376267D01*
X254710154Y-122328648D01*
X254805392Y-122281029D01*
X254853011Y-122233410D01*
X254900630Y-122138172D01*
X254900630Y-122042934D01*
X254853011Y-121947696D01*
X254805392Y-121900077D01*
X254710154Y-121852458D01*
X254519678Y-121804839D01*
X254281583Y-121804839D01*
X254091107Y-121852458D01*
X253995869Y-121900077D01*
X253948250Y-121947696D01*
X253900630Y-122042934D01*
X253900630Y-123233410D02*
X253900630Y-123042934D01*
X253948250Y-122947696D01*
X253995869Y-122900077D01*
X254138726Y-122804839D01*
X254329202Y-122757220D01*
X254710154Y-122757220D01*
X254805392Y-122804839D01*
X254853011Y-122852458D01*
X254900630Y-122947696D01*
X254900630Y-123138172D01*
X254853011Y-123233410D01*
X254805392Y-123281029D01*
X254710154Y-123328648D01*
X254472059Y-123328648D01*
X254376821Y-123281029D01*
X254329202Y-123233410D01*
X254281583Y-123138172D01*
X254281583Y-122947696D01*
X254329202Y-122852458D01*
X254376821Y-122804839D01*
X254472059Y-122757220D01*
X253900630Y-123947696D02*
X253900630Y-124042934D01*
X253948250Y-124138172D01*
X253995869Y-124185791D01*
X254091107Y-124233410D01*
X254281583Y-124281029D01*
X254519678Y-124281029D01*
X254710154Y-124233410D01*
X254805392Y-124185791D01*
X254853011Y-124138172D01*
X254900630Y-124042934D01*
X254900630Y-123947696D01*
X254853011Y-123852458D01*
X254805392Y-123804839D01*
X254710154Y-123757220D01*
X254519678Y-123709601D01*
X254281583Y-123709601D01*
X254091107Y-123757220D01*
X253995869Y-123804839D01*
X253948250Y-123852458D01*
X253900630Y-123947696D01*
X253900630Y-124614363D02*
X253900630Y-125233410D01*
X254281583Y-124900077D01*
X254281583Y-125042934D01*
X254329202Y-125138172D01*
X254376821Y-125185791D01*
X254472059Y-125233410D01*
X254710154Y-125233410D01*
X254805392Y-125185791D01*
X254853011Y-125138172D01*
X254900630Y-125042934D01*
X254900630Y-124757220D01*
X254853011Y-124661982D01*
X254805392Y-124614363D01*
X250900630Y-122042934D02*
X250900630Y-122138172D01*
X250948250Y-122233410D01*
X250995869Y-122281029D01*
X251091107Y-122328648D01*
X251281583Y-122376267D01*
X251519678Y-122376267D01*
X251710154Y-122328648D01*
X251805392Y-122281029D01*
X251853011Y-122233410D01*
X251900630Y-122138172D01*
X251900630Y-122042934D01*
X251853011Y-121947696D01*
X251805392Y-121900077D01*
X251710154Y-121852458D01*
X251519678Y-121804839D01*
X251281583Y-121804839D01*
X251091107Y-121852458D01*
X250995869Y-121900077D01*
X250948250Y-121947696D01*
X250900630Y-122042934D01*
X251329202Y-122947696D02*
X251281583Y-122852458D01*
X251233964Y-122804839D01*
X251138726Y-122757220D01*
X251091107Y-122757220D01*
X250995869Y-122804839D01*
X250948250Y-122852458D01*
X250900630Y-122947696D01*
X250900630Y-123138172D01*
X250948250Y-123233410D01*
X250995869Y-123281029D01*
X251091107Y-123328648D01*
X251138726Y-123328648D01*
X251233964Y-123281029D01*
X251281583Y-123233410D01*
X251329202Y-123138172D01*
X251329202Y-122947696D01*
X251376821Y-122852458D01*
X251424440Y-122804839D01*
X251519678Y-122757220D01*
X251710154Y-122757220D01*
X251805392Y-122804839D01*
X251853011Y-122852458D01*
X251900630Y-122947696D01*
X251900630Y-123138172D01*
X251853011Y-123233410D01*
X251805392Y-123281029D01*
X251710154Y-123328648D01*
X251519678Y-123328648D01*
X251424440Y-123281029D01*
X251376821Y-123233410D01*
X251329202Y-123138172D01*
X250900630Y-123947696D02*
X250900630Y-124042934D01*
X250948250Y-124138172D01*
X250995869Y-124185791D01*
X251091107Y-124233410D01*
X251281583Y-124281029D01*
X251519678Y-124281029D01*
X251710154Y-124233410D01*
X251805392Y-124185791D01*
X251853011Y-124138172D01*
X251900630Y-124042934D01*
X251900630Y-123947696D01*
X251853011Y-123852458D01*
X251805392Y-123804839D01*
X251710154Y-123757220D01*
X251519678Y-123709601D01*
X251281583Y-123709601D01*
X251091107Y-123757220D01*
X250995869Y-123804839D01*
X250948250Y-123852458D01*
X250900630Y-123947696D01*
X250900630Y-125185791D02*
X250900630Y-124709601D01*
X251376821Y-124661982D01*
X251329202Y-124709601D01*
X251281583Y-124804839D01*
X251281583Y-125042934D01*
X251329202Y-125138172D01*
X251376821Y-125185791D01*
X251472059Y-125233410D01*
X251710154Y-125233410D01*
X251805392Y-125185791D01*
X251853011Y-125138172D01*
X251900630Y-125042934D01*
X251900630Y-124804839D01*
X251853011Y-124709601D01*
X251805392Y-124661982D01*
X248900630Y-121376267D02*
X248900630Y-120804839D01*
X248900630Y-121090553D02*
X247900630Y-121090553D01*
X248043488Y-120995315D01*
X248138726Y-120900077D01*
X248186345Y-120804839D01*
X247995869Y-121757220D02*
X247948250Y-121804839D01*
X247900630Y-121900077D01*
X247900630Y-122138172D01*
X247948250Y-122233410D01*
X247995869Y-122281029D01*
X248091107Y-122328648D01*
X248186345Y-122328648D01*
X248329202Y-122281029D01*
X248900630Y-121709601D01*
X248900630Y-122328648D01*
X247900630Y-122947696D02*
X247900630Y-123042934D01*
X247948250Y-123138172D01*
X247995869Y-123185791D01*
X248091107Y-123233410D01*
X248281583Y-123281029D01*
X248519678Y-123281029D01*
X248710154Y-123233410D01*
X248805392Y-123185791D01*
X248853011Y-123138172D01*
X248900630Y-123042934D01*
X248900630Y-122947696D01*
X248853011Y-122852458D01*
X248805392Y-122804839D01*
X248710154Y-122757220D01*
X248519678Y-122709601D01*
X248281583Y-122709601D01*
X248091107Y-122757220D01*
X247995869Y-122804839D01*
X247948250Y-122852458D01*
X247900630Y-122947696D01*
X247900630Y-124138172D02*
X247900630Y-123947696D01*
X247948250Y-123852458D01*
X247995869Y-123804839D01*
X248138726Y-123709601D01*
X248329202Y-123661982D01*
X248710154Y-123661982D01*
X248805392Y-123709601D01*
X248853011Y-123757220D01*
X248900630Y-123852458D01*
X248900630Y-124042934D01*
X248853011Y-124138172D01*
X248805392Y-124185791D01*
X248710154Y-124233410D01*
X248472059Y-124233410D01*
X248376821Y-124185791D01*
X248329202Y-124138172D01*
X248281583Y-124042934D01*
X248281583Y-123852458D01*
X248329202Y-123757220D01*
X248376821Y-123709601D01*
X248472059Y-123661982D01*
D19*
X82892916Y-128415029D02*
X82892916Y-129062648D01*
X82854821Y-129138839D01*
X82816726Y-129176934D01*
X82740535Y-129215029D01*
X82588154Y-129215029D01*
X82511964Y-129176934D01*
X82473869Y-129138839D01*
X82435773Y-129062648D01*
X82435773Y-128415029D01*
X81521488Y-129291220D02*
X81597678Y-129253125D01*
X81673869Y-129176934D01*
X81788154Y-129062648D01*
X81864345Y-129024553D01*
X81940535Y-129024553D01*
X81902440Y-129215029D02*
X81978630Y-129176934D01*
X82054821Y-129100744D01*
X82092916Y-128948363D01*
X82092916Y-128681696D01*
X82054821Y-128529315D01*
X81978630Y-128453125D01*
X81902440Y-128415029D01*
X81750059Y-128415029D01*
X81673869Y-128453125D01*
X81597678Y-128529315D01*
X81559583Y-128681696D01*
X81559583Y-128948363D01*
X81597678Y-129100744D01*
X81673869Y-129176934D01*
X81750059Y-129215029D01*
X81902440Y-129215029D01*
X80950059Y-128795982D02*
X81216726Y-128795982D01*
X81216726Y-129215029D02*
X81216726Y-128415029D01*
X80835773Y-128415029D01*
X80531011Y-129215029D02*
X80531011Y-128415029D01*
X80073869Y-129215029D01*
X80073869Y-128415029D01*
X79692916Y-128910267D02*
X79083392Y-128910267D01*
X78359583Y-128681696D02*
X78359583Y-129215029D01*
X78550059Y-128376934D02*
X78740535Y-128948363D01*
X78245297Y-128948363D01*
X77826250Y-128757886D02*
X77902440Y-128719791D01*
X77940535Y-128681696D01*
X77978630Y-128605505D01*
X77978630Y-128567410D01*
X77940535Y-128491220D01*
X77902440Y-128453125D01*
X77826250Y-128415029D01*
X77673869Y-128415029D01*
X77597678Y-128453125D01*
X77559583Y-128491220D01*
X77521488Y-128567410D01*
X77521488Y-128605505D01*
X77559583Y-128681696D01*
X77597678Y-128719791D01*
X77673869Y-128757886D01*
X77826250Y-128757886D01*
X77902440Y-128795982D01*
X77940535Y-128834077D01*
X77978630Y-128910267D01*
X77978630Y-129062648D01*
X77940535Y-129138839D01*
X77902440Y-129176934D01*
X77826250Y-129215029D01*
X77673869Y-129215029D01*
X77597678Y-129176934D01*
X77559583Y-129138839D01*
X77521488Y-129062648D01*
X77521488Y-128910267D01*
X77559583Y-128834077D01*
X77597678Y-128795982D01*
X77673869Y-128757886D01*
D10*
X68586369Y-132796279D02*
X68129226Y-132796279D01*
X68357797Y-133596279D02*
X68357797Y-132796279D01*
X67329226Y-133672470D02*
X67405416Y-133634375D01*
X67481607Y-133558184D01*
X67595892Y-133443898D01*
X67672083Y-133405803D01*
X67748273Y-133405803D01*
X67710178Y-133596279D02*
X67786369Y-133558184D01*
X67862559Y-133481994D01*
X67900654Y-133329613D01*
X67900654Y-133062946D01*
X67862559Y-132910565D01*
X67786369Y-132834375D01*
X67710178Y-132796279D01*
X67557797Y-132796279D01*
X67481607Y-132834375D01*
X67405416Y-132910565D01*
X67367321Y-133062946D01*
X67367321Y-133329613D01*
X67405416Y-133481994D01*
X67481607Y-133558184D01*
X67557797Y-133596279D01*
X67710178Y-133596279D01*
X66757797Y-133177232D02*
X67024464Y-133177232D01*
X67024464Y-133596279D02*
X67024464Y-132796279D01*
X66643511Y-132796279D01*
X66338750Y-133596279D02*
X66338750Y-132796279D01*
X66033988Y-132796279D01*
X65957797Y-132834375D01*
X65919702Y-132872470D01*
X65881607Y-132948660D01*
X65881607Y-133062946D01*
X65919702Y-133139136D01*
X65957797Y-133177232D01*
X66033988Y-133215327D01*
X66338750Y-133215327D01*
X65538750Y-133291517D02*
X64929226Y-133291517D01*
X64205416Y-133062946D02*
X64205416Y-133596279D01*
X64395892Y-132758184D02*
X64586369Y-133329613D01*
X64091130Y-133329613D01*
X63443511Y-133062946D02*
X63443511Y-133596279D01*
X63633988Y-132758184D02*
X63824464Y-133329613D01*
X63329226Y-133329613D01*
D19*
X79559285Y-116291220D02*
X79635476Y-116253125D01*
X79711666Y-116176934D01*
X79825952Y-116062648D01*
X79902142Y-116024553D01*
X79978333Y-116024553D01*
X79940238Y-116215029D02*
X80016428Y-116176934D01*
X80092619Y-116100744D01*
X80130714Y-115948363D01*
X80130714Y-115681696D01*
X80092619Y-115529315D01*
X80016428Y-115453125D01*
X79940238Y-115415029D01*
X79787857Y-115415029D01*
X79711666Y-115453125D01*
X79635476Y-115529315D01*
X79597380Y-115681696D01*
X79597380Y-115948363D01*
X79635476Y-116100744D01*
X79711666Y-116176934D01*
X79787857Y-116215029D01*
X79940238Y-116215029D01*
X78987857Y-115795982D02*
X79254523Y-115795982D01*
X79254523Y-116215029D02*
X79254523Y-115415029D01*
X78873571Y-115415029D01*
X78568809Y-116215029D02*
X78568809Y-115415029D01*
X78111666Y-116215029D01*
X78111666Y-115415029D01*
X77730714Y-115910267D02*
X77121190Y-115910267D01*
X76778333Y-115491220D02*
X76740238Y-115453125D01*
X76664047Y-115415029D01*
X76473571Y-115415029D01*
X76397380Y-115453125D01*
X76359285Y-115491220D01*
X76321190Y-115567410D01*
X76321190Y-115643601D01*
X76359285Y-115757886D01*
X76816428Y-116215029D01*
X76321190Y-116215029D01*
X75864047Y-115757886D02*
X75940238Y-115719791D01*
X75978333Y-115681696D01*
X76016428Y-115605505D01*
X76016428Y-115567410D01*
X75978333Y-115491220D01*
X75940238Y-115453125D01*
X75864047Y-115415029D01*
X75711666Y-115415029D01*
X75635476Y-115453125D01*
X75597380Y-115491220D01*
X75559285Y-115567410D01*
X75559285Y-115605505D01*
X75597380Y-115681696D01*
X75635476Y-115719791D01*
X75711666Y-115757886D01*
X75864047Y-115757886D01*
X75940238Y-115795982D01*
X75978333Y-115834077D01*
X76016428Y-115910267D01*
X76016428Y-116062648D01*
X75978333Y-116138839D01*
X75940238Y-116176934D01*
X75864047Y-116215029D01*
X75711666Y-116215029D01*
X75635476Y-116176934D01*
X75597380Y-116138839D01*
X75559285Y-116062648D01*
X75559285Y-115910267D01*
X75597380Y-115834077D01*
X75635476Y-115795982D01*
X75711666Y-115757886D01*
X67653035Y-124204970D02*
X67729226Y-124166875D01*
X67805416Y-124090684D01*
X67919702Y-123976398D01*
X67995892Y-123938303D01*
X68072083Y-123938303D01*
X68033988Y-124128779D02*
X68110178Y-124090684D01*
X68186369Y-124014494D01*
X68224464Y-123862113D01*
X68224464Y-123595446D01*
X68186369Y-123443065D01*
X68110178Y-123366875D01*
X68033988Y-123328779D01*
X67881607Y-123328779D01*
X67805416Y-123366875D01*
X67729226Y-123443065D01*
X67691130Y-123595446D01*
X67691130Y-123862113D01*
X67729226Y-124014494D01*
X67805416Y-124090684D01*
X67881607Y-124128779D01*
X68033988Y-124128779D01*
X67081607Y-123709732D02*
X67348273Y-123709732D01*
X67348273Y-124128779D02*
X67348273Y-123328779D01*
X66967321Y-123328779D01*
X66662559Y-124128779D02*
X66662559Y-123328779D01*
X66205416Y-124128779D01*
X66205416Y-123328779D01*
X65824464Y-123824017D02*
X65214940Y-123824017D01*
X64491130Y-123595446D02*
X64491130Y-124128779D01*
X64681607Y-123290684D02*
X64872083Y-123862113D01*
X64376845Y-123862113D01*
X63729226Y-123595446D02*
X63729226Y-124128779D01*
X63919702Y-123290684D02*
X64110178Y-123862113D01*
X63614940Y-123862113D01*
M02*
