G04 #@! TF.GenerationSoftware,KiCad,Pcbnew,5.1.4*
G04 #@! TF.CreationDate,2019-10-10T02:32:09-03:00*
G04 #@! TF.ProjectId,ruler,72756c65-722e-46b6-9963-61645f706362,Alpha*
G04 #@! TF.SameCoordinates,Original*
G04 #@! TF.FileFunction,Soldermask,Bot*
G04 #@! TF.FilePolarity,Negative*
%FSLAX46Y46*%
G04 Gerber Fmt 4.6, Leading zero omitted, Abs format (unit mm)*
G04 Created by KiCad (PCBNEW 5.1.4) date 2019-10-10 02:32:09*
%MOMM*%
%LPD*%
G04 APERTURE LIST*
%ADD10C,0.254000*%
G04 APERTURE END LIST*
D10*
G36*
X70264750Y-139735375D02*
G01*
X61637750Y-139735375D01*
X61637750Y-138133375D01*
X70264750Y-138133375D01*
X70264750Y-139735375D01*
X70264750Y-139735375D01*
G37*
G36*
X72439750Y-137560375D02*
G01*
X70837750Y-137560375D01*
X70837750Y-128908375D01*
X72439750Y-128908375D01*
X72439750Y-137560375D01*
X72439750Y-137560375D01*
G37*
G36*
X61039750Y-136735375D02*
G01*
X60968942Y-136735375D01*
X60944556Y-136737777D01*
X60921107Y-136744890D01*
X60899496Y-136756441D01*
X60880554Y-136771986D01*
X60865009Y-136790928D01*
X60853458Y-136812539D01*
X60846345Y-136835988D01*
X60843943Y-136860374D01*
X60846345Y-136884760D01*
X60853458Y-136908209D01*
X60865009Y-136929820D01*
X60889643Y-136956999D01*
X60945382Y-137002743D01*
X60986120Y-137052382D01*
X61016392Y-137109017D01*
X61035033Y-137170468D01*
X61041327Y-137234375D01*
X61035033Y-137298282D01*
X61016392Y-137359733D01*
X60986120Y-137416368D01*
X60945382Y-137466007D01*
X60895743Y-137506745D01*
X60839108Y-137537017D01*
X60777657Y-137555658D01*
X60729763Y-137560375D01*
X59747737Y-137560375D01*
X59699843Y-137555658D01*
X59638392Y-137537017D01*
X59581757Y-137506745D01*
X59532118Y-137466007D01*
X59491380Y-137416368D01*
X59461108Y-137359733D01*
X59442467Y-137298282D01*
X59436173Y-137234375D01*
X59442467Y-137170468D01*
X59461108Y-137109017D01*
X59491380Y-137052382D01*
X59532118Y-137002743D01*
X59587857Y-136956999D01*
X59605184Y-136939672D01*
X59618798Y-136919298D01*
X59628175Y-136896659D01*
X59632955Y-136872625D01*
X59632955Y-136848121D01*
X59628174Y-136824088D01*
X59618797Y-136801449D01*
X59605183Y-136781075D01*
X59587856Y-136763748D01*
X59567482Y-136750134D01*
X59544843Y-136740757D01*
X59508558Y-136735375D01*
X59437750Y-136735375D01*
X59437750Y-128908375D01*
X61039750Y-128908375D01*
X61039750Y-136735375D01*
X61039750Y-136735375D01*
G37*
G36*
X82577250Y-130758376D02*
G01*
X82579652Y-130782762D01*
X82586765Y-130806211D01*
X82598316Y-130827822D01*
X82613861Y-130846764D01*
X82632803Y-130862309D01*
X82654414Y-130873860D01*
X82677863Y-130880973D01*
X82702249Y-130883375D01*
X83652250Y-130883375D01*
X83652250Y-135585375D01*
X82702249Y-135585375D01*
X82677863Y-135587777D01*
X82654414Y-135594890D01*
X82632803Y-135606441D01*
X82613861Y-135621986D01*
X82598316Y-135640928D01*
X82586765Y-135662539D01*
X82579652Y-135685988D01*
X82577250Y-135710374D01*
X82577250Y-136660375D01*
X77875250Y-136660375D01*
X77875250Y-135679541D01*
X77872848Y-135655155D01*
X77865735Y-135631706D01*
X77854184Y-135610095D01*
X77838639Y-135591153D01*
X77819697Y-135575608D01*
X77798086Y-135564057D01*
X77774637Y-135556944D01*
X77750251Y-135554542D01*
X77725865Y-135556944D01*
X77702416Y-135564057D01*
X77684035Y-135573882D01*
X77655709Y-135582475D01*
X77626250Y-135585376D01*
X76951250Y-135585376D01*
X76921791Y-135582475D01*
X76893465Y-135573882D01*
X76867359Y-135559928D01*
X76844477Y-135541149D01*
X76825698Y-135518267D01*
X76811744Y-135492161D01*
X76803151Y-135463835D01*
X76800250Y-135434376D01*
X76800250Y-135434374D01*
X76803151Y-135404915D01*
X76811744Y-135376589D01*
X76818673Y-135363626D01*
X76825701Y-135346658D01*
X76830481Y-135322624D01*
X76830481Y-135298120D01*
X76825700Y-135274087D01*
X76816322Y-135251448D01*
X76802708Y-135231074D01*
X76800250Y-135228616D01*
X76800250Y-130883375D01*
X77750251Y-130883375D01*
X77774637Y-130880973D01*
X77798086Y-130873860D01*
X77819697Y-130862309D01*
X77838639Y-130846764D01*
X77854184Y-130827822D01*
X77865735Y-130806211D01*
X77872848Y-130782762D01*
X77875250Y-130758376D01*
X77875250Y-129808375D01*
X82577250Y-129808375D01*
X82577250Y-130758376D01*
X82577250Y-130758376D01*
G37*
G36*
X143833250Y-136414125D02*
G01*
X141731250Y-136414125D01*
X141731250Y-135112125D01*
X143833250Y-135112125D01*
X143833250Y-136414125D01*
X143833250Y-136414125D01*
G37*
G36*
X140133250Y-136414125D02*
G01*
X138031250Y-136414125D01*
X138031250Y-135112125D01*
X140133250Y-135112125D01*
X140133250Y-136414125D01*
X140133250Y-136414125D01*
G37*
G36*
X117184822Y-130324738D02*
G01*
X117188162Y-130325403D01*
X117188193Y-130325406D01*
X117198075Y-130327373D01*
X117198110Y-130327384D01*
X117198584Y-130327478D01*
X117208732Y-130331685D01*
X117217887Y-130337803D01*
X117218239Y-130338155D01*
X117218245Y-130338160D01*
X117225353Y-130345268D01*
X117225358Y-130345274D01*
X117225710Y-130345626D01*
X117231810Y-130354754D01*
X117231992Y-130355194D01*
X117232013Y-130355233D01*
X117235869Y-130364548D01*
X117235880Y-130364584D01*
X117236067Y-130365036D01*
X117238773Y-130378663D01*
X117239053Y-130384376D01*
X117239053Y-130958401D01*
X117239052Y-130962318D01*
X117239052Y-130986466D01*
X117239051Y-131010377D01*
X117239050Y-131034018D01*
X117239049Y-131057370D01*
X117239049Y-131057372D01*
X117239047Y-131080413D01*
X117239047Y-131080415D01*
X117239044Y-131103127D01*
X117239041Y-131125489D01*
X117239038Y-131147481D01*
X117239038Y-131147483D01*
X117239035Y-131169084D01*
X117239035Y-131169086D01*
X117239031Y-131190276D01*
X117239031Y-131190280D01*
X117239026Y-131211040D01*
X117239026Y-131211045D01*
X117239022Y-131231346D01*
X117239022Y-131231349D01*
X117239017Y-131251186D01*
X117239017Y-131251189D01*
X117239011Y-131270535D01*
X117239005Y-131289370D01*
X117239005Y-131289371D01*
X117238999Y-131307674D01*
X117238999Y-131307675D01*
X117238993Y-131325426D01*
X117238987Y-131342605D01*
X117238987Y-131342610D01*
X117238980Y-131359197D01*
X117238980Y-131359201D01*
X117238972Y-131375175D01*
X117238972Y-131375181D01*
X117238965Y-131390515D01*
X117238965Y-131390519D01*
X117238957Y-131405208D01*
X117238957Y-131405210D01*
X117238949Y-131419226D01*
X117238949Y-131419227D01*
X117238941Y-131432550D01*
X117238941Y-131432557D01*
X117238932Y-131445167D01*
X117238932Y-131445172D01*
X117238924Y-131457041D01*
X117238924Y-131457048D01*
X117238915Y-131468170D01*
X117238915Y-131468174D01*
X117238906Y-131478523D01*
X117238906Y-131478532D01*
X117238896Y-131488086D01*
X117238896Y-131488088D01*
X117238887Y-131496826D01*
X117238887Y-131496841D01*
X117238877Y-131504747D01*
X117238877Y-131504755D01*
X117238867Y-131511806D01*
X117238867Y-131511817D01*
X117238857Y-131517994D01*
X117238857Y-131518009D01*
X117238847Y-131523291D01*
X117238847Y-131523314D01*
X117238837Y-131527681D01*
X117238864Y-131527681D01*
X117238859Y-131527733D01*
X117238837Y-131527733D01*
X117238826Y-131531164D01*
X117238826Y-131531211D01*
X117238816Y-131533687D01*
X117238823Y-131533687D01*
X117238814Y-131533775D01*
X117238814Y-131533875D01*
X117238807Y-131534770D01*
X117238615Y-131537995D01*
X117235833Y-131552916D01*
X117233724Y-131577330D01*
X117236418Y-131601685D01*
X117243811Y-131625047D01*
X117255621Y-131646518D01*
X117271392Y-131665272D01*
X117299790Y-131686071D01*
X117346891Y-131711247D01*
X117514542Y-131848833D01*
X117652128Y-132016484D01*
X117754362Y-132207749D01*
X117817320Y-132415293D01*
X117838577Y-132631125D01*
X117817320Y-132846957D01*
X117754362Y-133054501D01*
X117652128Y-133245766D01*
X117514542Y-133413417D01*
X117346891Y-133551003D01*
X117300088Y-133576020D01*
X117279713Y-133589633D01*
X117262386Y-133606960D01*
X117248773Y-133627335D01*
X117239395Y-133649974D01*
X117234615Y-133674007D01*
X117234615Y-133698511D01*
X117236544Y-133711283D01*
X117238137Y-133719077D01*
X117238486Y-133722004D01*
X117238774Y-133727602D01*
X117238782Y-133728713D01*
X117238782Y-133728809D01*
X117238788Y-133728865D01*
X117238783Y-133728865D01*
X117238795Y-133731495D01*
X117238796Y-133731715D01*
X117238807Y-133734941D01*
X117238808Y-133735322D01*
X117238808Y-133735666D01*
X117238819Y-133739712D01*
X117238845Y-133739712D01*
X117238846Y-133739729D01*
X117238820Y-133739729D01*
X117238832Y-133745157D01*
X117238832Y-133745184D01*
X117238843Y-133751285D01*
X117238843Y-133751794D01*
X117238854Y-133758514D01*
X117238854Y-133758714D01*
X117238865Y-133766585D01*
X117238865Y-133766987D01*
X117238876Y-133775482D01*
X117238876Y-133775642D01*
X117238887Y-133785184D01*
X117238887Y-133785508D01*
X117238897Y-133795693D01*
X117238897Y-133795816D01*
X117238907Y-133806950D01*
X117238907Y-133807213D01*
X117238917Y-133818957D01*
X117238917Y-133819063D01*
X117238927Y-133831691D01*
X117238927Y-133831796D01*
X117238936Y-133845148D01*
X117238936Y-133845347D01*
X117238945Y-133859280D01*
X117238945Y-133859361D01*
X117238954Y-133874081D01*
X117238954Y-133874162D01*
X117238962Y-133889600D01*
X117238962Y-133889605D01*
X117238971Y-133905609D01*
X117238971Y-133905686D01*
X117238978Y-133922362D01*
X117238978Y-133922368D01*
X117238986Y-133939582D01*
X117238986Y-133939714D01*
X117238993Y-133957438D01*
X117238993Y-133957488D01*
X117239000Y-133975830D01*
X117239000Y-133975881D01*
X117239006Y-133994759D01*
X117239006Y-133994799D01*
X117239012Y-134014187D01*
X117239012Y-134014227D01*
X117239018Y-134034104D01*
X117239018Y-134034145D01*
X117239023Y-134054528D01*
X117239028Y-134075327D01*
X117239028Y-134075357D01*
X117239033Y-134096586D01*
X117239033Y-134096652D01*
X117239037Y-134118262D01*
X117239037Y-134118288D01*
X117239040Y-134140332D01*
X117239040Y-134140337D01*
X117239044Y-134162735D01*
X117239044Y-134162762D01*
X117239046Y-134185528D01*
X117239048Y-134208621D01*
X117239050Y-134232010D01*
X117239050Y-134232024D01*
X117239051Y-134255710D01*
X117239052Y-134279662D01*
X117239053Y-134303855D01*
X117239053Y-134877862D01*
X117238773Y-134883572D01*
X117238107Y-134886916D01*
X117238105Y-134886936D01*
X117236139Y-134896812D01*
X117236130Y-134896841D01*
X117236033Y-134897329D01*
X117231841Y-134907449D01*
X117225770Y-134916546D01*
X117225447Y-134916869D01*
X117225379Y-134916952D01*
X117218214Y-134924117D01*
X117218131Y-134924185D01*
X117217808Y-134924508D01*
X117208711Y-134930579D01*
X117198591Y-134934771D01*
X117198103Y-134934868D01*
X117198074Y-134934877D01*
X117188198Y-134936843D01*
X117188178Y-134936845D01*
X117184834Y-134937511D01*
X117179124Y-134937791D01*
X115785258Y-134937791D01*
X115779548Y-134937511D01*
X115776204Y-134936845D01*
X115776184Y-134936843D01*
X115766308Y-134934877D01*
X115766279Y-134934868D01*
X115765791Y-134934771D01*
X115755671Y-134930579D01*
X115746574Y-134924508D01*
X115746251Y-134924185D01*
X115746168Y-134924117D01*
X115739003Y-134916952D01*
X115738935Y-134916869D01*
X115738612Y-134916546D01*
X115732541Y-134907449D01*
X115728349Y-134897329D01*
X115728252Y-134896841D01*
X115728243Y-134896812D01*
X115726277Y-134886936D01*
X115726275Y-134886916D01*
X115725609Y-134883572D01*
X115725329Y-134877862D01*
X115725329Y-133857124D01*
X115722927Y-133832738D01*
X115715814Y-133809289D01*
X115704263Y-133787678D01*
X115688718Y-133768736D01*
X115669776Y-133753191D01*
X115648165Y-133741640D01*
X115624716Y-133734527D01*
X115600330Y-133732125D01*
X115464169Y-133732125D01*
X115439783Y-133734527D01*
X115416334Y-133741640D01*
X115394723Y-133753191D01*
X115375781Y-133768736D01*
X115360236Y-133787678D01*
X115348685Y-133809289D01*
X115341572Y-133832738D01*
X115339170Y-133857124D01*
X115339170Y-134877862D01*
X115338890Y-134883572D01*
X115338224Y-134886916D01*
X115338222Y-134886936D01*
X115336256Y-134896812D01*
X115336247Y-134896841D01*
X115336150Y-134897329D01*
X115331958Y-134907449D01*
X115325887Y-134916546D01*
X115325564Y-134916869D01*
X115325496Y-134916952D01*
X115318331Y-134924117D01*
X115318248Y-134924185D01*
X115317925Y-134924508D01*
X115308828Y-134930579D01*
X115298708Y-134934771D01*
X115298220Y-134934868D01*
X115298191Y-134934877D01*
X115288315Y-134936843D01*
X115288295Y-134936845D01*
X115284951Y-134937511D01*
X115279241Y-134937791D01*
X113885376Y-134937791D01*
X113879666Y-134937511D01*
X113876322Y-134936845D01*
X113876302Y-134936843D01*
X113866426Y-134934877D01*
X113866397Y-134934868D01*
X113865909Y-134934771D01*
X113855789Y-134930579D01*
X113846692Y-134924508D01*
X113846369Y-134924185D01*
X113846286Y-134924117D01*
X113839121Y-134916952D01*
X113839053Y-134916869D01*
X113838730Y-134916546D01*
X113832659Y-134907449D01*
X113828467Y-134897329D01*
X113828370Y-134896841D01*
X113828361Y-134896812D01*
X113826395Y-134886936D01*
X113826393Y-134886916D01*
X113825727Y-134883572D01*
X113825447Y-134877862D01*
X113825447Y-134255895D01*
X113825449Y-134224472D01*
X113825451Y-134194055D01*
X113825451Y-134194053D01*
X113825454Y-134164637D01*
X113825454Y-134164635D01*
X113825458Y-134136217D01*
X113825458Y-134136215D01*
X113825463Y-134108790D01*
X113825463Y-134108787D01*
X113825469Y-134082351D01*
X113825469Y-134082350D01*
X113825475Y-134056899D01*
X113825475Y-134056896D01*
X113825482Y-134032425D01*
X113825482Y-134032423D01*
X113825490Y-134008929D01*
X113825490Y-134008925D01*
X113825499Y-133986404D01*
X113825499Y-133986401D01*
X113825509Y-133964848D01*
X113825509Y-133964847D01*
X113825519Y-133944257D01*
X113825519Y-133944248D01*
X113825531Y-133924619D01*
X113825531Y-133924617D01*
X113825543Y-133905943D01*
X113825543Y-133905939D01*
X113825556Y-133888217D01*
X113825556Y-133888210D01*
X113825570Y-133871435D01*
X113825570Y-133871429D01*
X113825585Y-133855597D01*
X113825585Y-133855595D01*
X113825600Y-133840703D01*
X113825600Y-133840691D01*
X113825617Y-133826733D01*
X113825617Y-133826727D01*
X113825634Y-133813700D01*
X113825634Y-133813691D01*
X113825652Y-133801590D01*
X113825652Y-133801577D01*
X113825671Y-133790399D01*
X113825671Y-133790385D01*
X113825691Y-133780125D01*
X113825691Y-133780109D01*
X113825712Y-133770763D01*
X113825685Y-133770763D01*
X113825687Y-133770749D01*
X113825713Y-133770749D01*
X113825734Y-133762313D01*
X113825734Y-133761899D01*
X113825756Y-133754751D01*
X113825756Y-133754719D01*
X113825780Y-133748090D01*
X113825737Y-133748090D01*
X113825741Y-133748057D01*
X113825781Y-133748057D01*
X113825805Y-133742325D01*
X113825806Y-133741802D01*
X113825829Y-133737431D01*
X113825815Y-133737431D01*
X113825823Y-133737351D01*
X113825830Y-133737351D01*
X113825856Y-133733402D01*
X113825837Y-133733402D01*
X113825850Y-133733275D01*
X113825857Y-133733275D01*
X113825884Y-133730210D01*
X113825864Y-133730210D01*
X113825889Y-133729965D01*
X113825891Y-133729667D01*
X113825911Y-133728097D01*
X113825932Y-133726870D01*
X113825934Y-133726767D01*
X113825982Y-133725393D01*
X113827153Y-133716030D01*
X113830624Y-133697688D01*
X113830396Y-133673185D01*
X113825391Y-133649198D01*
X113815803Y-133626647D01*
X113802000Y-133606400D01*
X113784513Y-133589236D01*
X113765043Y-133576357D01*
X113717607Y-133551002D01*
X113549958Y-133413417D01*
X113412372Y-133245766D01*
X113310138Y-133054501D01*
X113247180Y-132846957D01*
X113225923Y-132631125D01*
X113247180Y-132415293D01*
X113310138Y-132207749D01*
X113412372Y-132016484D01*
X113549958Y-131848833D01*
X113717609Y-131711247D01*
X113769519Y-131683500D01*
X113789894Y-131669886D01*
X113807221Y-131652559D01*
X113820834Y-131632185D01*
X113830212Y-131609546D01*
X113834992Y-131585513D01*
X113834992Y-131561009D01*
X113831921Y-131545188D01*
X113832234Y-131545123D01*
X113832096Y-131544459D01*
X113832097Y-131544459D01*
X113832085Y-131544402D01*
X113831681Y-131542456D01*
X113831330Y-131540549D01*
X113831255Y-131540113D01*
X113831005Y-131538606D01*
X113830735Y-131536905D01*
X113830597Y-131536017D01*
X113830596Y-131536014D01*
X113830304Y-131534096D01*
X113830262Y-131533803D01*
X113830255Y-131533775D01*
X113830225Y-131533576D01*
X113830207Y-131533579D01*
X113830148Y-131533338D01*
X113830189Y-131533332D01*
X113829720Y-131530160D01*
X113829562Y-131530183D01*
X113829553Y-131529981D01*
X113829690Y-131529961D01*
X113829197Y-131526543D01*
X113829113Y-131526555D01*
X113829069Y-131526365D01*
X113829170Y-131526351D01*
X113828743Y-131523314D01*
X113828734Y-131523247D01*
X113828732Y-131523238D01*
X113828675Y-131522834D01*
X113828638Y-131522839D01*
X113828597Y-131522661D01*
X113828651Y-131522654D01*
X113828174Y-131519185D01*
X113828170Y-131519155D01*
X113828143Y-131518959D01*
X113828114Y-131518743D01*
X113827704Y-131515659D01*
X113827619Y-131515670D01*
X113827609Y-131515373D01*
X113827665Y-131515366D01*
X113827589Y-131514769D01*
X113827588Y-131514746D01*
X113827564Y-131514578D01*
X113827359Y-131512972D01*
X113827339Y-131512801D01*
X113827336Y-131512786D01*
X113827291Y-131512436D01*
X113827259Y-131512440D01*
X113827216Y-131512241D01*
X113827266Y-131512235D01*
X113826371Y-131505015D01*
X113825868Y-131499590D01*
X113825700Y-131494150D01*
X113825700Y-131120493D01*
X113825701Y-131101586D01*
X113825701Y-131083595D01*
X113825703Y-131066505D01*
X113825703Y-131066498D01*
X113825704Y-131050289D01*
X113825704Y-131050281D01*
X113825707Y-131034909D01*
X113825707Y-131034904D01*
X113825711Y-131020354D01*
X113825711Y-131020350D01*
X113825716Y-131006597D01*
X113825716Y-131006592D01*
X113825722Y-130993611D01*
X113825722Y-130993599D01*
X113825730Y-130981366D01*
X113825730Y-130981360D01*
X113825739Y-130969849D01*
X113825739Y-130969835D01*
X113825750Y-130959022D01*
X113825750Y-130959007D01*
X113825763Y-130948867D01*
X113825763Y-130948850D01*
X113825778Y-130939359D01*
X113825778Y-130939340D01*
X113825795Y-130930472D01*
X113825772Y-130930472D01*
X113825775Y-130930443D01*
X113825796Y-130930443D01*
X113825816Y-130922173D01*
X113825816Y-130922155D01*
X113825837Y-130914460D01*
X113825837Y-130914131D01*
X113825861Y-130907270D01*
X113825861Y-130907238D01*
X113825888Y-130900616D01*
X113825840Y-130900616D01*
X113825845Y-130900560D01*
X113825888Y-130900560D01*
X113825919Y-130894437D01*
X113825860Y-130894437D01*
X113825864Y-130894392D01*
X113825920Y-130894392D01*
X113825953Y-130888744D01*
X113825953Y-130888671D01*
X113825990Y-130883473D01*
X113825958Y-130883473D01*
X113825966Y-130883401D01*
X113825991Y-130883401D01*
X113826031Y-130878627D01*
X113825978Y-130878627D01*
X113825987Y-130878545D01*
X113826032Y-130878545D01*
X113826075Y-130874172D01*
X113826028Y-130874172D01*
X113826039Y-130874062D01*
X113826075Y-130874062D01*
X113826122Y-130870064D01*
X113826075Y-130870063D01*
X113826087Y-130869937D01*
X113826124Y-130869938D01*
X113826175Y-130866291D01*
X113825901Y-130866287D01*
X113825893Y-130866140D01*
X113826178Y-130866145D01*
X113826233Y-130862824D01*
X113826164Y-130862823D01*
X113826184Y-130862635D01*
X113826236Y-130862636D01*
X113826296Y-130859615D01*
X113826219Y-130859613D01*
X113826237Y-130859438D01*
X113826300Y-130859439D01*
X113826363Y-130856695D01*
X113826293Y-130856693D01*
X113826278Y-130856447D01*
X113826370Y-130856450D01*
X113826427Y-130854373D01*
X113826434Y-130854166D01*
X113826433Y-130854147D01*
X113826438Y-130853957D01*
X113826421Y-130853957D01*
X113826405Y-130853701D01*
X113826445Y-130853702D01*
X113826517Y-130851436D01*
X113826400Y-130851432D01*
X113826434Y-130851119D01*
X113826527Y-130851122D01*
X113826572Y-130849928D01*
X113826584Y-130849685D01*
X113826582Y-130849645D01*
X113826604Y-130849058D01*
X113826588Y-130849057D01*
X113826592Y-130848827D01*
X113826544Y-130848826D01*
X113826538Y-130848706D01*
X113826619Y-130848710D01*
X113826701Y-130846822D01*
X113826679Y-130846821D01*
X113826725Y-130846431D01*
X113826751Y-130845776D01*
X113826805Y-130844707D01*
X113826820Y-130844428D01*
X113826822Y-130844392D01*
X113826827Y-130844306D01*
X113826887Y-130843260D01*
X113826937Y-130842514D01*
X113826929Y-130842250D01*
X113826947Y-130842251D01*
X113827044Y-130840766D01*
X113827052Y-130840703D01*
X113827108Y-130839835D01*
X113827174Y-130838923D01*
X113827169Y-130838923D01*
X113827190Y-130838767D01*
X113827238Y-130838092D01*
X113827288Y-130837458D01*
X113827368Y-130836496D01*
X113827368Y-130836484D01*
X113827403Y-130836068D01*
X113827413Y-130835967D01*
X113827413Y-130835956D01*
X113827456Y-130835452D01*
X113827411Y-130835448D01*
X113827411Y-130835227D01*
X113827476Y-130835233D01*
X113827596Y-130833890D01*
X113827433Y-130833875D01*
X113827451Y-130833750D01*
X113827461Y-130833709D01*
X113827611Y-130833723D01*
X113827737Y-130832358D01*
X113827730Y-130832357D01*
X113827739Y-130832248D01*
X113827746Y-130832249D01*
X113827879Y-130830838D01*
X113827876Y-130830838D01*
X113827888Y-130830757D01*
X113827986Y-130829710D01*
X113828072Y-130828846D01*
X113828190Y-130827764D01*
X113830640Y-130806512D01*
X113830873Y-130804664D01*
X113831188Y-130802548D01*
X113834524Y-130781754D01*
X113834825Y-130779998D01*
X113835261Y-130777751D01*
X113839463Y-130757417D01*
X113840014Y-130754918D01*
X113840344Y-130753564D01*
X113845562Y-130733012D01*
X113846006Y-130731336D01*
X113846635Y-130729162D01*
X113852656Y-130709251D01*
X113853252Y-130707355D01*
X113853869Y-130705540D01*
X113860820Y-130685810D01*
X113861558Y-130683791D01*
X113862245Y-130682036D01*
X113870055Y-130662696D01*
X113870725Y-130661086D01*
X113871627Y-130659048D01*
X113880309Y-130640063D01*
X113881149Y-130638281D01*
X113882067Y-130636442D01*
X113891585Y-130617891D01*
X113892455Y-130616238D01*
X113893449Y-130614449D01*
X113903879Y-130596189D01*
X113904987Y-130594304D01*
X113905843Y-130592920D01*
X113917211Y-130574939D01*
X113918125Y-130573526D01*
X113919381Y-130571675D01*
X113931446Y-130554355D01*
X113932648Y-130552672D01*
X113933731Y-130551225D01*
X113946763Y-130534181D01*
X113947756Y-130532908D01*
X113949026Y-130531349D01*
X113959206Y-130519119D01*
X113960251Y-130517887D01*
X113961296Y-130516700D01*
X113972821Y-130503855D01*
X113973902Y-130502673D01*
X113974974Y-130501541D01*
X113987125Y-130488930D01*
X113988304Y-130487728D01*
X113989220Y-130486827D01*
X114001860Y-130474596D01*
X114003162Y-130473361D01*
X114004131Y-130472473D01*
X114016988Y-130460887D01*
X114018241Y-130459779D01*
X114019492Y-130458715D01*
X114032433Y-130447911D01*
X114033475Y-130447055D01*
X114034884Y-130445940D01*
X114048094Y-130435695D01*
X114049168Y-130434876D01*
X114050551Y-130433859D01*
X114064464Y-130423827D01*
X114065791Y-130422889D01*
X114067228Y-130421915D01*
X114081130Y-130412673D01*
X114082864Y-130411548D01*
X114083958Y-130410867D01*
X114098628Y-130401915D01*
X114099640Y-130401308D01*
X114101437Y-130400276D01*
X114116366Y-130391927D01*
X114117881Y-130391097D01*
X114119096Y-130390460D01*
X114135091Y-130382246D01*
X114136371Y-130381601D01*
X114136962Y-130381311D01*
X114141955Y-130378887D01*
X114142950Y-130378412D01*
X114144092Y-130377885D01*
X114162400Y-130369586D01*
X114164206Y-130368791D01*
X114165789Y-130368133D01*
X114184013Y-130360775D01*
X114185378Y-130360238D01*
X114187588Y-130359423D01*
X114205780Y-130352975D01*
X114207807Y-130352282D01*
X114209382Y-130351782D01*
X114227981Y-130346088D01*
X114229986Y-130345500D01*
X114231709Y-130345035D01*
X114250658Y-130340126D01*
X114252092Y-130339769D01*
X114254375Y-130339252D01*
X114273484Y-130335170D01*
X114275601Y-130334744D01*
X114277155Y-130334465D01*
X114296944Y-130331096D01*
X114298553Y-130330837D01*
X114300462Y-130330569D01*
X114320901Y-130327927D01*
X114322384Y-130327749D01*
X114324231Y-130327563D01*
X114344981Y-130325679D01*
X114347387Y-130325492D01*
X114349037Y-130325403D01*
X114349539Y-130325381D01*
X114351365Y-130325322D01*
X114352275Y-130325299D01*
X114353039Y-130325290D01*
X114353530Y-130325235D01*
X114353531Y-130325271D01*
X114356730Y-130325219D01*
X114356727Y-130325024D01*
X114356943Y-130325042D01*
X114356945Y-130325216D01*
X114360550Y-130325171D01*
X114360732Y-130325170D01*
X114360745Y-130325169D01*
X114361039Y-130325165D01*
X114361039Y-130325138D01*
X114361195Y-130325122D01*
X114361195Y-130325163D01*
X114365843Y-130325118D01*
X114366000Y-130325117D01*
X114366006Y-130325116D01*
X114366143Y-130325115D01*
X114366143Y-130325102D01*
X114366251Y-130325091D01*
X114366251Y-130325114D01*
X114371906Y-130325070D01*
X114372074Y-130325069D01*
X114378608Y-130325025D01*
X114378670Y-130325025D01*
X114385937Y-130324984D01*
X114385937Y-130324932D01*
X114385987Y-130324927D01*
X114385987Y-130324984D01*
X114393857Y-130324946D01*
X114394086Y-130324946D01*
X114402589Y-130324909D01*
X114402589Y-130324867D01*
X114402617Y-130324865D01*
X114402617Y-130324908D01*
X114411582Y-130324875D01*
X114411956Y-130324874D01*
X114421344Y-130324844D01*
X114421436Y-130324844D01*
X114421791Y-130324843D01*
X114431996Y-130324814D01*
X114432068Y-130324814D01*
X114432241Y-130324813D01*
X114432241Y-130324814D01*
X114442811Y-130324788D01*
X114442811Y-130324763D01*
X114442832Y-130324761D01*
X114442832Y-130324787D01*
X114454086Y-130324762D01*
X114454105Y-130324762D01*
X114465766Y-130324740D01*
X114465779Y-130324740D01*
X114477806Y-130324720D01*
X114477817Y-130324720D01*
X114490170Y-130324702D01*
X114490186Y-130324702D01*
X114502824Y-130324687D01*
X114502834Y-130324687D01*
X114515716Y-130324674D01*
X114515731Y-130324674D01*
X114528817Y-130324664D01*
X114528821Y-130324664D01*
X114542069Y-130324655D01*
X114542087Y-130324655D01*
X114555459Y-130324650D01*
X114555462Y-130324650D01*
X114568915Y-130324646D01*
X114568928Y-130324646D01*
X114582422Y-130324645D01*
X114582430Y-130324645D01*
X114595924Y-130324646D01*
X114595938Y-130324646D01*
X114609392Y-130324650D01*
X114609395Y-130324650D01*
X114622769Y-130324655D01*
X114622783Y-130324655D01*
X114636034Y-130324663D01*
X114636047Y-130324663D01*
X114649137Y-130324674D01*
X114649147Y-130324674D01*
X114662034Y-130324687D01*
X114662044Y-130324687D01*
X114674687Y-130324702D01*
X114674703Y-130324702D01*
X114687062Y-130324720D01*
X114687068Y-130324720D01*
X114699102Y-130324739D01*
X114699126Y-130324739D01*
X114710794Y-130324762D01*
X114710802Y-130324762D01*
X114722065Y-130324786D01*
X114722065Y-130324761D01*
X114722089Y-130324763D01*
X114722089Y-130324787D01*
X114732664Y-130324813D01*
X114732664Y-130324812D01*
X114732852Y-130324813D01*
X114732914Y-130324813D01*
X114743110Y-130324842D01*
X114743466Y-130324843D01*
X114743573Y-130324843D01*
X114753001Y-130324874D01*
X114753281Y-130324875D01*
X114762327Y-130324908D01*
X114762327Y-130324865D01*
X114762360Y-130324868D01*
X114762360Y-130324909D01*
X114770821Y-130324944D01*
X114771017Y-130324944D01*
X114771017Y-130324945D01*
X114778989Y-130324984D01*
X114778989Y-130324926D01*
X114779024Y-130324929D01*
X114779024Y-130324984D01*
X114786305Y-130325024D01*
X114786431Y-130325025D01*
X114786654Y-130325026D01*
X114792925Y-130325068D01*
X114793102Y-130325069D01*
X114798764Y-130325113D01*
X114798764Y-130325091D01*
X114798871Y-130325102D01*
X114798871Y-130325114D01*
X114798998Y-130325115D01*
X114799006Y-130325116D01*
X114799188Y-130325117D01*
X114803836Y-130325162D01*
X114803836Y-130325123D01*
X114803991Y-130325139D01*
X114803991Y-130325164D01*
X114804274Y-130325168D01*
X114804289Y-130325169D01*
X114804494Y-130325170D01*
X114808103Y-130325215D01*
X114808105Y-130325064D01*
X114808320Y-130325050D01*
X114808317Y-130325219D01*
X114811534Y-130325271D01*
X114811535Y-130325232D01*
X114812078Y-130325289D01*
X114812708Y-130325296D01*
X114813772Y-130325322D01*
X114815569Y-130325380D01*
X114816111Y-130325404D01*
X114817536Y-130325479D01*
X114819630Y-130325630D01*
X114832933Y-130326735D01*
X114834414Y-130326869D01*
X114835186Y-130326949D01*
X114850291Y-130328578D01*
X114851745Y-130328746D01*
X114852801Y-130328885D01*
X114867599Y-130330920D01*
X114868156Y-130331000D01*
X114870280Y-130331338D01*
X114884009Y-130333667D01*
X114885946Y-130334015D01*
X114886739Y-130334171D01*
X114900855Y-130337033D01*
X114901865Y-130337244D01*
X114903598Y-130337636D01*
X114917595Y-130340935D01*
X114918657Y-130341192D01*
X114920097Y-130341565D01*
X114934302Y-130345361D01*
X114935796Y-130345773D01*
X114936588Y-130346003D01*
X114947796Y-130349325D01*
X114949274Y-130349777D01*
X114950851Y-130350291D01*
X114970363Y-130356847D01*
X114972312Y-130357526D01*
X114974164Y-130358219D01*
X114993287Y-130365619D01*
X114995321Y-130366434D01*
X114996953Y-130367131D01*
X115015888Y-130375445D01*
X115017624Y-130376230D01*
X115019418Y-130377089D01*
X115037992Y-130386243D01*
X115039701Y-130387108D01*
X115041453Y-130388044D01*
X115059679Y-130398047D01*
X115061008Y-130398793D01*
X115063012Y-130399976D01*
X115080599Y-130410657D01*
X115082691Y-130411965D01*
X115083812Y-130412700D01*
X115101194Y-130424337D01*
X115102634Y-130425323D01*
X115104469Y-130426638D01*
X115120927Y-130438750D01*
X115122782Y-130440150D01*
X115124036Y-130441142D01*
X115140354Y-130454321D01*
X115141389Y-130455171D01*
X115143062Y-130456604D01*
X115154133Y-130466297D01*
X115155602Y-130467611D01*
X115156554Y-130468494D01*
X115170831Y-130481968D01*
X115172317Y-130483401D01*
X115173441Y-130484530D01*
X115187326Y-130498741D01*
X115188163Y-130499612D01*
X115189745Y-130501326D01*
X115202798Y-130515812D01*
X115203997Y-130517169D01*
X115205182Y-130518568D01*
X115217634Y-130533592D01*
X115218674Y-130534870D01*
X115219220Y-130535560D01*
X115222880Y-130540238D01*
X115223899Y-130541564D01*
X115224425Y-130542270D01*
X115237065Y-130559448D01*
X115238265Y-130561119D01*
X115239359Y-130562717D01*
X115251015Y-130580147D01*
X115251911Y-130581516D01*
X115253144Y-130583496D01*
X115263879Y-130601220D01*
X115265048Y-130603206D01*
X115265889Y-130604710D01*
X115275862Y-130622975D01*
X115276675Y-130624501D01*
X115277715Y-130626562D01*
X115286864Y-130645262D01*
X115287630Y-130646870D01*
X115288488Y-130648779D01*
X115296774Y-130667823D01*
X115297571Y-130669715D01*
X115298255Y-130671443D01*
X115305702Y-130690880D01*
X115306410Y-130692795D01*
X115307038Y-130694614D01*
X115313643Y-130714456D01*
X115314112Y-130715915D01*
X115314791Y-130718196D01*
X115320447Y-130738093D01*
X115321091Y-130740478D01*
X115321429Y-130741852D01*
X115326279Y-130762332D01*
X115326631Y-130763886D01*
X115327116Y-130766269D01*
X115330983Y-130786582D01*
X115331387Y-130788859D01*
X115331641Y-130790497D01*
X115334673Y-130811435D01*
X115334926Y-130813331D01*
X115335140Y-130815258D01*
X115337228Y-130836185D01*
X115337411Y-130838257D01*
X115337537Y-130840152D01*
X115338717Y-130861533D01*
X115338783Y-130862945D01*
X115338825Y-130864438D01*
X115338836Y-130865288D01*
X115338839Y-130865610D01*
X115338840Y-130865921D01*
X115338854Y-130866061D01*
X115338841Y-130866061D01*
X115338850Y-130867994D01*
X115338851Y-130868153D01*
X115338860Y-130871113D01*
X115338884Y-130871113D01*
X115338888Y-130871154D01*
X115338860Y-130871154D01*
X115338869Y-130875032D01*
X115338869Y-130875057D01*
X115338878Y-130879590D01*
X115338878Y-130880135D01*
X115338887Y-130885271D01*
X115338887Y-130885736D01*
X115338896Y-130891768D01*
X115338896Y-130891942D01*
X115338906Y-130899031D01*
X115338906Y-130899420D01*
X115338915Y-130907248D01*
X115338925Y-130915881D01*
X115338925Y-130916206D01*
X115338934Y-130925520D01*
X115338934Y-130925522D01*
X115338944Y-130935570D01*
X115338944Y-130935701D01*
X115338953Y-130946519D01*
X115338953Y-130946524D01*
X115338963Y-130957864D01*
X115338963Y-130958113D01*
X115338972Y-130969931D01*
X115338972Y-130970026D01*
X115338981Y-130982547D01*
X115338981Y-130982638D01*
X115338990Y-130995697D01*
X115338990Y-130995783D01*
X115338999Y-131009354D01*
X115338999Y-131009438D01*
X115339008Y-131023487D01*
X115339008Y-131023572D01*
X115339016Y-131038140D01*
X115339016Y-131038146D01*
X115339025Y-131053065D01*
X115339025Y-131053237D01*
X115339033Y-131068464D01*
X115339033Y-131068530D01*
X115339041Y-131084208D01*
X115339041Y-131084275D01*
X115339048Y-131100294D01*
X115339048Y-131100348D01*
X115339055Y-131116667D01*
X115339055Y-131116722D01*
X115339062Y-131133312D01*
X115339062Y-131133367D01*
X115339068Y-131150251D01*
X115339068Y-131150253D01*
X115339161Y-131405172D01*
X115341572Y-131429557D01*
X115348693Y-131453003D01*
X115360252Y-131474610D01*
X115375805Y-131493546D01*
X115394752Y-131509084D01*
X115416367Y-131520627D01*
X115439819Y-131527732D01*
X115464160Y-131530125D01*
X115600330Y-131530125D01*
X115624716Y-131527723D01*
X115648165Y-131520610D01*
X115669776Y-131509059D01*
X115688718Y-131493514D01*
X115704263Y-131474572D01*
X115715814Y-131452961D01*
X115722927Y-131429512D01*
X115725329Y-131405126D01*
X115725329Y-130384388D01*
X115725609Y-130378678D01*
X115726275Y-130375334D01*
X115726277Y-130375314D01*
X115728243Y-130365438D01*
X115728252Y-130365409D01*
X115728349Y-130364921D01*
X115732541Y-130354801D01*
X115738612Y-130345704D01*
X115738935Y-130345381D01*
X115739003Y-130345298D01*
X115746168Y-130338133D01*
X115746251Y-130338065D01*
X115746574Y-130337742D01*
X115755671Y-130331671D01*
X115765791Y-130327479D01*
X115766279Y-130327382D01*
X115766308Y-130327373D01*
X115776184Y-130325407D01*
X115776204Y-130325405D01*
X115779548Y-130324739D01*
X115785258Y-130324459D01*
X117179137Y-130324459D01*
X117184822Y-130324738D01*
X117184822Y-130324738D01*
G37*
G36*
X139921442Y-132917771D02*
G01*
X139970664Y-132932703D01*
X140016028Y-132956951D01*
X140055792Y-132989583D01*
X140088424Y-133029347D01*
X140112672Y-133074711D01*
X140127604Y-133123933D01*
X140133250Y-133181265D01*
X140133250Y-133944985D01*
X140127604Y-134002317D01*
X140112672Y-134051539D01*
X140088424Y-134096903D01*
X140055792Y-134136667D01*
X140016028Y-134169299D01*
X139970664Y-134193547D01*
X139921442Y-134208479D01*
X139864110Y-134214125D01*
X138300390Y-134214125D01*
X138243058Y-134208479D01*
X138193836Y-134193547D01*
X138148472Y-134169299D01*
X138108708Y-134136667D01*
X138076076Y-134096903D01*
X138051828Y-134051539D01*
X138036896Y-134002317D01*
X138031250Y-133944985D01*
X138031250Y-133181265D01*
X138036896Y-133123933D01*
X138051828Y-133074711D01*
X138076076Y-133029347D01*
X138108708Y-132989583D01*
X138148472Y-132956951D01*
X138193836Y-132932703D01*
X138243058Y-132917771D01*
X138300390Y-132912125D01*
X139864110Y-132912125D01*
X139921442Y-132917771D01*
X139921442Y-132917771D01*
G37*
G36*
X143833250Y-134214125D02*
G01*
X141731250Y-134214125D01*
X141731250Y-132912125D01*
X143833250Y-132912125D01*
X143833250Y-134214125D01*
X143833250Y-134214125D01*
G37*
G36*
X178206273Y-129300715D02*
G01*
X178306932Y-129331250D01*
X178357263Y-129346517D01*
X178496415Y-129420896D01*
X178618383Y-129520992D01*
X178718479Y-129642960D01*
X178792858Y-129782112D01*
X178808125Y-129832443D01*
X178838660Y-129933102D01*
X178850250Y-130050780D01*
X178850250Y-133029470D01*
X178838660Y-133147148D01*
X178827064Y-133185375D01*
X178792858Y-133298138D01*
X178718480Y-133437289D01*
X178718479Y-133437290D01*
X178618383Y-133559258D01*
X178508789Y-133649198D01*
X178496414Y-133659354D01*
X178357262Y-133733733D01*
X178309932Y-133748090D01*
X178206272Y-133779535D01*
X178049250Y-133795000D01*
X177892227Y-133779535D01*
X177788567Y-133748090D01*
X177741237Y-133733733D01*
X177602085Y-133659354D01*
X177563070Y-133627335D01*
X177480117Y-133559258D01*
X177380021Y-133437289D01*
X177367261Y-133413417D01*
X177305642Y-133298137D01*
X177287286Y-133237625D01*
X177259840Y-133147147D01*
X177252113Y-133068695D01*
X177248250Y-133029470D01*
X177248251Y-130050779D01*
X177259841Y-129933104D01*
X177259841Y-129933102D01*
X177290376Y-129832443D01*
X177305643Y-129782112D01*
X177380022Y-129642960D01*
X177480118Y-129520992D01*
X177602086Y-129420896D01*
X177741238Y-129346517D01*
X177791569Y-129331250D01*
X177892228Y-129300715D01*
X178049250Y-129285250D01*
X178206273Y-129300715D01*
X178206273Y-129300715D01*
G37*
G36*
X185506273Y-129300715D02*
G01*
X185606932Y-129331250D01*
X185657263Y-129346517D01*
X185796415Y-129420896D01*
X185918383Y-129520992D01*
X186018479Y-129642960D01*
X186092858Y-129782112D01*
X186108125Y-129832443D01*
X186138660Y-129933102D01*
X186150250Y-130050780D01*
X186150250Y-133029470D01*
X186138660Y-133147148D01*
X186127064Y-133185375D01*
X186092858Y-133298138D01*
X186018480Y-133437289D01*
X186018479Y-133437290D01*
X185918383Y-133559258D01*
X185808789Y-133649198D01*
X185796414Y-133659354D01*
X185657262Y-133733733D01*
X185609932Y-133748090D01*
X185506272Y-133779535D01*
X185349250Y-133795000D01*
X185192227Y-133779535D01*
X185088567Y-133748090D01*
X185041237Y-133733733D01*
X184902085Y-133659354D01*
X184863070Y-133627335D01*
X184780117Y-133559258D01*
X184680021Y-133437289D01*
X184667261Y-133413417D01*
X184605642Y-133298137D01*
X184587286Y-133237625D01*
X184559840Y-133147147D01*
X184552113Y-133068695D01*
X184548250Y-133029470D01*
X184548251Y-130050779D01*
X184559841Y-129933104D01*
X184559841Y-129933102D01*
X184590376Y-129832443D01*
X184605643Y-129782112D01*
X184680022Y-129642960D01*
X184780118Y-129520992D01*
X184902086Y-129420896D01*
X185041238Y-129346517D01*
X185091569Y-129331250D01*
X185192228Y-129300715D01*
X185349250Y-129285250D01*
X185506273Y-129300715D01*
X185506273Y-129300715D01*
G37*
G36*
X321760301Y-130982209D02*
G01*
X321776693Y-130987182D01*
X321791805Y-130995259D01*
X321805048Y-131006127D01*
X321815916Y-131019370D01*
X321823993Y-131034482D01*
X321828966Y-131050874D01*
X321831250Y-131074066D01*
X321831250Y-132765784D01*
X321828966Y-132788976D01*
X321823993Y-132805368D01*
X321815916Y-132820480D01*
X321805048Y-132833723D01*
X321791805Y-132844591D01*
X321776693Y-132852668D01*
X321760301Y-132857641D01*
X321737109Y-132859925D01*
X320045391Y-132859925D01*
X320022199Y-132857641D01*
X320005807Y-132852668D01*
X319990695Y-132844591D01*
X319977452Y-132833723D01*
X319966584Y-132820480D01*
X319958507Y-132805368D01*
X319953534Y-132788976D01*
X319951250Y-132765784D01*
X319951250Y-131074066D01*
X319953534Y-131050874D01*
X319958507Y-131034482D01*
X319966584Y-131019370D01*
X319977452Y-131006127D01*
X319990695Y-130995259D01*
X320005807Y-130987182D01*
X320022199Y-130982209D01*
X320045391Y-130979925D01*
X321737109Y-130979925D01*
X321760301Y-130982209D01*
X321760301Y-130982209D01*
G37*
G36*
X323705437Y-131016048D02*
G01*
X323870153Y-131084276D01*
X323876507Y-131086908D01*
X323926769Y-131120492D01*
X324030464Y-131189779D01*
X324161396Y-131320711D01*
X324164546Y-131325426D01*
X324264147Y-131474488D01*
X324264268Y-131474670D01*
X324335127Y-131645738D01*
X324371250Y-131827342D01*
X324371250Y-132012508D01*
X324335127Y-132194112D01*
X324280443Y-132326130D01*
X324264267Y-132365182D01*
X324161395Y-132519140D01*
X324030465Y-132650070D01*
X323876507Y-132752942D01*
X323876506Y-132752943D01*
X323876505Y-132752943D01*
X323705437Y-132823802D01*
X323523833Y-132859925D01*
X323338667Y-132859925D01*
X323157063Y-132823802D01*
X322985995Y-132752943D01*
X322985994Y-132752943D01*
X322985993Y-132752942D01*
X322832035Y-132650070D01*
X322701105Y-132519140D01*
X322598233Y-132365182D01*
X322582057Y-132326130D01*
X322527373Y-132194112D01*
X322491250Y-132012508D01*
X322491250Y-131827342D01*
X322527373Y-131645738D01*
X322598232Y-131474670D01*
X322598354Y-131474488D01*
X322697954Y-131325426D01*
X322701104Y-131320711D01*
X322832036Y-131189779D01*
X322935731Y-131120492D01*
X322985993Y-131086908D01*
X322992347Y-131084276D01*
X323157063Y-131016048D01*
X323338667Y-130979925D01*
X323523833Y-130979925D01*
X323705437Y-131016048D01*
X323705437Y-131016048D01*
G37*
G36*
X345930437Y-131016048D02*
G01*
X346095153Y-131084276D01*
X346101507Y-131086908D01*
X346151769Y-131120492D01*
X346255464Y-131189779D01*
X346386396Y-131320711D01*
X346389546Y-131325426D01*
X346489147Y-131474488D01*
X346489268Y-131474670D01*
X346560127Y-131645738D01*
X346596250Y-131827342D01*
X346596250Y-132012508D01*
X346560127Y-132194112D01*
X346505443Y-132326130D01*
X346489267Y-132365182D01*
X346386395Y-132519140D01*
X346255465Y-132650070D01*
X346101507Y-132752942D01*
X346101506Y-132752943D01*
X346101505Y-132752943D01*
X345930437Y-132823802D01*
X345748833Y-132859925D01*
X345563667Y-132859925D01*
X345382063Y-132823802D01*
X345210995Y-132752943D01*
X345210994Y-132752943D01*
X345210993Y-132752942D01*
X345057035Y-132650070D01*
X344926105Y-132519140D01*
X344823233Y-132365182D01*
X344807057Y-132326130D01*
X344752373Y-132194112D01*
X344716250Y-132012508D01*
X344716250Y-131827342D01*
X344752373Y-131645738D01*
X344823232Y-131474670D01*
X344823354Y-131474488D01*
X344922954Y-131325426D01*
X344926104Y-131320711D01*
X345057036Y-131189779D01*
X345160731Y-131120492D01*
X345210993Y-131086908D01*
X345217347Y-131084276D01*
X345382063Y-131016048D01*
X345563667Y-130979925D01*
X345748833Y-130979925D01*
X345930437Y-131016048D01*
X345930437Y-131016048D01*
G37*
G36*
X349065301Y-130982209D02*
G01*
X349081693Y-130987182D01*
X349096805Y-130995259D01*
X349110048Y-131006127D01*
X349120916Y-131019370D01*
X349128993Y-131034482D01*
X349133966Y-131050874D01*
X349136250Y-131074066D01*
X349136250Y-132765784D01*
X349133966Y-132788976D01*
X349128993Y-132805368D01*
X349120916Y-132820480D01*
X349110048Y-132833723D01*
X349096805Y-132844591D01*
X349081693Y-132852668D01*
X349065301Y-132857641D01*
X349042109Y-132859925D01*
X347350391Y-132859925D01*
X347327199Y-132857641D01*
X347310807Y-132852668D01*
X347295695Y-132844591D01*
X347282452Y-132833723D01*
X347271584Y-132820480D01*
X347263507Y-132805368D01*
X347258534Y-132788976D01*
X347256250Y-132765784D01*
X347256250Y-131074066D01*
X347258534Y-131050874D01*
X347263507Y-131034482D01*
X347271584Y-131019370D01*
X347282452Y-131006127D01*
X347295695Y-130995259D01*
X347310807Y-130987182D01*
X347327199Y-130982209D01*
X347350391Y-130979925D01*
X349042109Y-130979925D01*
X349065301Y-130982209D01*
X349065301Y-130982209D01*
G37*
G36*
X276915111Y-129947623D02*
G01*
X277021696Y-129958120D01*
X277271547Y-130033912D01*
X277295213Y-130041091D01*
X277547278Y-130175823D01*
X277547279Y-130175824D01*
X277547283Y-130175826D01*
X277768226Y-130357149D01*
X277949549Y-130578092D01*
X277949551Y-130578096D01*
X277949552Y-130578097D01*
X278084284Y-130830162D01*
X278084285Y-130830165D01*
X278167255Y-131103679D01*
X278195270Y-131388125D01*
X278167255Y-131672571D01*
X278134075Y-131781950D01*
X278084284Y-131946088D01*
X277951712Y-132194112D01*
X277949549Y-132198158D01*
X277768226Y-132419101D01*
X277547283Y-132600424D01*
X277547279Y-132600426D01*
X277547278Y-132600427D01*
X277295213Y-132735159D01*
X277295210Y-132735160D01*
X277021696Y-132818130D01*
X276919035Y-132828241D01*
X276808528Y-132839125D01*
X275565972Y-132839125D01*
X275455465Y-132828241D01*
X275352804Y-132818130D01*
X275079290Y-132735160D01*
X275079287Y-132735159D01*
X274827222Y-132600427D01*
X274827221Y-132600426D01*
X274827217Y-132600424D01*
X274606274Y-132419101D01*
X274424951Y-132198158D01*
X274422788Y-132194112D01*
X274290216Y-131946088D01*
X274240425Y-131781950D01*
X274207245Y-131672571D01*
X274179230Y-131388125D01*
X274207245Y-131103679D01*
X274290215Y-130830165D01*
X274290216Y-130830162D01*
X274424948Y-130578097D01*
X274424949Y-130578096D01*
X274424951Y-130578092D01*
X274606274Y-130357149D01*
X274827217Y-130175826D01*
X274827221Y-130175824D01*
X274827222Y-130175823D01*
X275079287Y-130041091D01*
X275102953Y-130033912D01*
X275352804Y-129958120D01*
X275459389Y-129947623D01*
X275565972Y-129937125D01*
X276808528Y-129937125D01*
X276915111Y-129947623D01*
X276915111Y-129947623D01*
G37*
G36*
X224665073Y-130776438D02*
G01*
X224825492Y-130825101D01*
X224944567Y-130888748D01*
X224973328Y-130904121D01*
X225102909Y-131010466D01*
X225209254Y-131140047D01*
X225213228Y-131147482D01*
X225288274Y-131287883D01*
X225336937Y-131448302D01*
X225353367Y-131615125D01*
X225336937Y-131781948D01*
X225288274Y-131942367D01*
X225217364Y-132075031D01*
X225209254Y-132090203D01*
X225102909Y-132219784D01*
X224973328Y-132326129D01*
X224973326Y-132326130D01*
X224825492Y-132405149D01*
X224665073Y-132453812D01*
X224540054Y-132466125D01*
X224456446Y-132466125D01*
X224331427Y-132453812D01*
X224171008Y-132405149D01*
X224023174Y-132326130D01*
X224023172Y-132326129D01*
X223893591Y-132219784D01*
X223787246Y-132090203D01*
X223779136Y-132075031D01*
X223708226Y-131942367D01*
X223659563Y-131781948D01*
X223643133Y-131615125D01*
X223659563Y-131448302D01*
X223708226Y-131287883D01*
X223783272Y-131147482D01*
X223787246Y-131140047D01*
X223893591Y-131010466D01*
X224023172Y-130904121D01*
X224051933Y-130888748D01*
X224171008Y-130825101D01*
X224331427Y-130776438D01*
X224456446Y-130764125D01*
X224540054Y-130764125D01*
X224665073Y-130776438D01*
X224665073Y-130776438D01*
G37*
G36*
X89324066Y-130005942D02*
G01*
X89355433Y-130015457D01*
X89384339Y-130030908D01*
X89409675Y-130051700D01*
X89430467Y-130077036D01*
X89445918Y-130105942D01*
X89455433Y-130137309D01*
X89459250Y-130176065D01*
X89459250Y-131530185D01*
X89455433Y-131568941D01*
X89445918Y-131600308D01*
X89430467Y-131629214D01*
X89409675Y-131654550D01*
X89384339Y-131675342D01*
X89355433Y-131690793D01*
X89324066Y-131700308D01*
X89285310Y-131704125D01*
X87931190Y-131704125D01*
X87892434Y-131700308D01*
X87861067Y-131690793D01*
X87832161Y-131675342D01*
X87806825Y-131654550D01*
X87786033Y-131629214D01*
X87770582Y-131600308D01*
X87761067Y-131568941D01*
X87757250Y-131530185D01*
X87757250Y-130176065D01*
X87761067Y-130137309D01*
X87770582Y-130105942D01*
X87786033Y-130077036D01*
X87806825Y-130051700D01*
X87832161Y-130030908D01*
X87861067Y-130015457D01*
X87892434Y-130005942D01*
X87931190Y-130002125D01*
X89285310Y-130002125D01*
X89324066Y-130005942D01*
X89324066Y-130005942D01*
G37*
G36*
X142133250Y-130584125D02*
G01*
X141131250Y-130584125D01*
X141131250Y-128582125D01*
X142133250Y-128582125D01*
X142133250Y-130584125D01*
X142133250Y-130584125D01*
G37*
G36*
X140601933Y-128585850D02*
G01*
X140632393Y-128595091D01*
X140660473Y-128610099D01*
X140685081Y-128630294D01*
X140705276Y-128654902D01*
X140720284Y-128682982D01*
X140729525Y-128713442D01*
X140733250Y-128751265D01*
X140733250Y-129314985D01*
X140729525Y-129352808D01*
X140720284Y-129383268D01*
X140705276Y-129411348D01*
X140685081Y-129435956D01*
X140655173Y-129460500D01*
X140637846Y-129477827D01*
X140624232Y-129498201D01*
X140614855Y-129520840D01*
X140610074Y-129544873D01*
X140610074Y-129569378D01*
X140614854Y-129593411D01*
X140624231Y-129616050D01*
X140637845Y-129636424D01*
X140655172Y-129653751D01*
X140675546Y-129667365D01*
X140698185Y-129676742D01*
X140722218Y-129681523D01*
X140733250Y-129682065D01*
X140733250Y-130584125D01*
X139731250Y-130584125D01*
X139731250Y-129682005D01*
X139754415Y-129679723D01*
X139777864Y-129672610D01*
X139799475Y-129661059D01*
X139818417Y-129645514D01*
X139833962Y-129626572D01*
X139845513Y-129604961D01*
X139852626Y-129581512D01*
X139855028Y-129557126D01*
X139852626Y-129532740D01*
X139845513Y-129509291D01*
X139833962Y-129487680D01*
X139818417Y-129468738D01*
X139809327Y-129460500D01*
X139779419Y-129435956D01*
X139759224Y-129411348D01*
X139744216Y-129383268D01*
X139734975Y-129352808D01*
X139731250Y-129314985D01*
X139731250Y-128751265D01*
X139734975Y-128713442D01*
X139744216Y-128682982D01*
X139759224Y-128654902D01*
X139779419Y-128630294D01*
X139804027Y-128610099D01*
X139832107Y-128595091D01*
X139862567Y-128585850D01*
X139900390Y-128582125D01*
X140564110Y-128582125D01*
X140601933Y-128585850D01*
X140601933Y-128585850D01*
G37*
G36*
X183600250Y-130491125D02*
G01*
X179798250Y-130491125D01*
X179798250Y-128389125D01*
X183600250Y-128389125D01*
X183600250Y-130491125D01*
X183600250Y-130491125D01*
G37*
G36*
X230657557Y-129079623D02*
G01*
X230695568Y-129091154D01*
X230730592Y-129109874D01*
X230761299Y-129135076D01*
X230786501Y-129165783D01*
X230805221Y-129200807D01*
X230816752Y-129238818D01*
X230821250Y-129284488D01*
X230821250Y-130092762D01*
X230816752Y-130138432D01*
X230805221Y-130176443D01*
X230786501Y-130211467D01*
X230761299Y-130242174D01*
X230730592Y-130267376D01*
X230695568Y-130286096D01*
X230657557Y-130297627D01*
X230611887Y-130302125D01*
X227528613Y-130302125D01*
X227482943Y-130297627D01*
X227444932Y-130286096D01*
X227409908Y-130267376D01*
X227379201Y-130242174D01*
X227353999Y-130211467D01*
X227335279Y-130176443D01*
X227323748Y-130138432D01*
X227319250Y-130092762D01*
X227319250Y-129284488D01*
X227323748Y-129238818D01*
X227335279Y-129200807D01*
X227353999Y-129165783D01*
X227379201Y-129135076D01*
X227409908Y-129109874D01*
X227444932Y-129091154D01*
X227482943Y-129079623D01*
X227528613Y-129075125D01*
X230611887Y-129075125D01*
X230657557Y-129079623D01*
X230657557Y-129079623D01*
G37*
G36*
X234441925Y-128804327D02*
G01*
X234477048Y-128814982D01*
X234509425Y-128832288D01*
X234537800Y-128855575D01*
X234561087Y-128883950D01*
X234578393Y-128916327D01*
X234589048Y-128951450D01*
X234593250Y-128994120D01*
X234593250Y-130108130D01*
X234589048Y-130150800D01*
X234578393Y-130185923D01*
X234561087Y-130218300D01*
X234537800Y-130246675D01*
X234509425Y-130269962D01*
X234477048Y-130287268D01*
X234441925Y-130297923D01*
X234399255Y-130302125D01*
X232885245Y-130302125D01*
X232842575Y-130297923D01*
X232807452Y-130287268D01*
X232775075Y-130269962D01*
X232746700Y-130246675D01*
X232723413Y-130218300D01*
X232706107Y-130185923D01*
X232695452Y-130150800D01*
X232691250Y-130108130D01*
X232691250Y-128994120D01*
X232695452Y-128951450D01*
X232706107Y-128916327D01*
X232723413Y-128883950D01*
X232746700Y-128855575D01*
X232775075Y-128832288D01*
X232807452Y-128814982D01*
X232842575Y-128804327D01*
X232885245Y-128800125D01*
X234399255Y-128800125D01*
X234441925Y-128804327D01*
X234441925Y-128804327D01*
G37*
G36*
X153371671Y-127250268D02*
G01*
X153503807Y-127290352D01*
X153503809Y-127290353D01*
X153625589Y-127355445D01*
X153732330Y-127443045D01*
X153819930Y-127549786D01*
X153871424Y-127646125D01*
X153885023Y-127671568D01*
X153925107Y-127803704D01*
X153935250Y-127906693D01*
X153935250Y-129075557D01*
X153925107Y-129178546D01*
X153887469Y-129302618D01*
X153885022Y-129310684D01*
X153819930Y-129432464D01*
X153817064Y-129435956D01*
X153732330Y-129539205D01*
X153664190Y-129595125D01*
X153625588Y-129626805D01*
X153522090Y-129682125D01*
X153503806Y-129691898D01*
X153371670Y-129731982D01*
X153234250Y-129745516D01*
X153096829Y-129731982D01*
X152964693Y-129691898D01*
X152946409Y-129682125D01*
X152842911Y-129626805D01*
X152816294Y-129604961D01*
X152736170Y-129539205D01*
X152648571Y-129432464D01*
X152642388Y-129420896D01*
X152583478Y-129310683D01*
X152583477Y-129310681D01*
X152543393Y-129178545D01*
X152533250Y-129075556D01*
X152533251Y-127906693D01*
X152543394Y-127803704D01*
X152583478Y-127671568D01*
X152597077Y-127646125D01*
X152648571Y-127549786D01*
X152736171Y-127443045D01*
X152842912Y-127355445D01*
X152964692Y-127290353D01*
X152964694Y-127290352D01*
X153096830Y-127250268D01*
X153234250Y-127236734D01*
X153371671Y-127250268D01*
X153371671Y-127250268D01*
G37*
G36*
X160771671Y-127250268D02*
G01*
X160903807Y-127290352D01*
X160903809Y-127290353D01*
X161025589Y-127355445D01*
X161132330Y-127443045D01*
X161219930Y-127549786D01*
X161271424Y-127646125D01*
X161285023Y-127671568D01*
X161325107Y-127803704D01*
X161335250Y-127906693D01*
X161335250Y-129075557D01*
X161325107Y-129178546D01*
X161287469Y-129302618D01*
X161285022Y-129310684D01*
X161219930Y-129432464D01*
X161217064Y-129435956D01*
X161132330Y-129539205D01*
X161064190Y-129595125D01*
X161025588Y-129626805D01*
X160922090Y-129682125D01*
X160903806Y-129691898D01*
X160771670Y-129731982D01*
X160634250Y-129745516D01*
X160496829Y-129731982D01*
X160364693Y-129691898D01*
X160346409Y-129682125D01*
X160242911Y-129626805D01*
X160216294Y-129604961D01*
X160136170Y-129539205D01*
X160048571Y-129432464D01*
X160042388Y-129420896D01*
X159983478Y-129310683D01*
X159983477Y-129310681D01*
X159943393Y-129178545D01*
X159933250Y-129075556D01*
X159933251Y-127906693D01*
X159943394Y-127803704D01*
X159983478Y-127671568D01*
X159997077Y-127646125D01*
X160048571Y-127549786D01*
X160136171Y-127443045D01*
X160242912Y-127355445D01*
X160364692Y-127290353D01*
X160364694Y-127290352D01*
X160496830Y-127250268D01*
X160634250Y-127236734D01*
X160771671Y-127250268D01*
X160771671Y-127250268D01*
G37*
G36*
X245274854Y-128279472D02*
G01*
X245311394Y-128290557D01*
X245345071Y-128308558D01*
X245374591Y-128332784D01*
X245398817Y-128362304D01*
X245416818Y-128395981D01*
X245427903Y-128432521D01*
X245432250Y-128476663D01*
X245432250Y-129425587D01*
X245427903Y-129469729D01*
X245416818Y-129506269D01*
X245398817Y-129539946D01*
X245374591Y-129569466D01*
X245345071Y-129593692D01*
X245311394Y-129611693D01*
X245274854Y-129622778D01*
X245230712Y-129627125D01*
X242881788Y-129627125D01*
X242837646Y-129622778D01*
X242801106Y-129611693D01*
X242767429Y-129593692D01*
X242737909Y-129569466D01*
X242713683Y-129539946D01*
X242695682Y-129506269D01*
X242684597Y-129469729D01*
X242680250Y-129425587D01*
X242680250Y-128476663D01*
X242684597Y-128432521D01*
X242695682Y-128395981D01*
X242713683Y-128362304D01*
X242737909Y-128332784D01*
X242767429Y-128308558D01*
X242801106Y-128290557D01*
X242837646Y-128279472D01*
X242881788Y-128275125D01*
X245230712Y-128275125D01*
X245274854Y-128279472D01*
X245274854Y-128279472D01*
G37*
G36*
X240980061Y-128454730D02*
G01*
X241019117Y-128466578D01*
X241055112Y-128485818D01*
X241086664Y-128511711D01*
X241112557Y-128543263D01*
X241131797Y-128579258D01*
X241143645Y-128618314D01*
X241148250Y-128665074D01*
X241148250Y-129387176D01*
X241143645Y-129433936D01*
X241131797Y-129472992D01*
X241112557Y-129508987D01*
X241086664Y-129540539D01*
X241055112Y-129566432D01*
X241019117Y-129585672D01*
X240980061Y-129597520D01*
X240933301Y-129602125D01*
X236511199Y-129602125D01*
X236464439Y-129597520D01*
X236425383Y-129585672D01*
X236389388Y-129566432D01*
X236357836Y-129540539D01*
X236331943Y-129508987D01*
X236312703Y-129472992D01*
X236300855Y-129433936D01*
X236296250Y-129387176D01*
X236296250Y-128665074D01*
X236300855Y-128618314D01*
X236312703Y-128579258D01*
X236331943Y-128543263D01*
X236357836Y-128511711D01*
X236389388Y-128485818D01*
X236425383Y-128466578D01*
X236464439Y-128454730D01*
X236511199Y-128450125D01*
X240933301Y-128450125D01*
X240980061Y-128454730D01*
X240980061Y-128454730D01*
G37*
G36*
X249216854Y-128247472D02*
G01*
X249253394Y-128258557D01*
X249287071Y-128276558D01*
X249316591Y-128300784D01*
X249340817Y-128330304D01*
X249358818Y-128363981D01*
X249369903Y-128400521D01*
X249374250Y-128444663D01*
X249374250Y-129393587D01*
X249369903Y-129437729D01*
X249358818Y-129474269D01*
X249340817Y-129507946D01*
X249316591Y-129537466D01*
X249287071Y-129561692D01*
X249253394Y-129579693D01*
X249216854Y-129590778D01*
X249172712Y-129595125D01*
X247723788Y-129595125D01*
X247679646Y-129590778D01*
X247643106Y-129579693D01*
X247609429Y-129561692D01*
X247579909Y-129537466D01*
X247555683Y-129507946D01*
X247537682Y-129474269D01*
X247526597Y-129437729D01*
X247522250Y-129393587D01*
X247522250Y-128444663D01*
X247526597Y-128400521D01*
X247537682Y-128363981D01*
X247555683Y-128330304D01*
X247579909Y-128300784D01*
X247609429Y-128276558D01*
X247643106Y-128258557D01*
X247679646Y-128247472D01*
X247723788Y-128243125D01*
X249172712Y-128243125D01*
X249216854Y-128247472D01*
X249216854Y-128247472D01*
G37*
G36*
X93151684Y-128400811D02*
G01*
X93191534Y-128412899D01*
X93228249Y-128432524D01*
X93260436Y-128458939D01*
X93286851Y-128491126D01*
X93306476Y-128527841D01*
X93318564Y-128567691D01*
X93323250Y-128615266D01*
X93323250Y-129278984D01*
X93318564Y-129326559D01*
X93306476Y-129366409D01*
X93286851Y-129403124D01*
X93260436Y-129435311D01*
X93228249Y-129461726D01*
X93191534Y-129481351D01*
X93151684Y-129493439D01*
X93104109Y-129498125D01*
X92240391Y-129498125D01*
X92192816Y-129493439D01*
X92152966Y-129481351D01*
X92116251Y-129461726D01*
X92084064Y-129435311D01*
X92057649Y-129403124D01*
X92038024Y-129366409D01*
X92025936Y-129326559D01*
X92021250Y-129278984D01*
X92021250Y-128615266D01*
X92025936Y-128567691D01*
X92038024Y-128527841D01*
X92057649Y-128491126D01*
X92084064Y-128458939D01*
X92116251Y-128432524D01*
X92152966Y-128412899D01*
X92192816Y-128400811D01*
X92240391Y-128396125D01*
X93104109Y-128396125D01*
X93151684Y-128400811D01*
X93151684Y-128400811D01*
G37*
G36*
X252032718Y-127922690D02*
G01*
X252071388Y-127934421D01*
X252107027Y-127953471D01*
X252138267Y-127979108D01*
X252163904Y-128010348D01*
X252182954Y-128045987D01*
X252194685Y-128084657D01*
X252199250Y-128131013D01*
X252199250Y-128782237D01*
X252194685Y-128828593D01*
X252182954Y-128867263D01*
X252163904Y-128902902D01*
X252138267Y-128934142D01*
X252107027Y-128959779D01*
X252071388Y-128978829D01*
X252032718Y-128990560D01*
X251986362Y-128995125D01*
X250910138Y-128995125D01*
X250863782Y-128990560D01*
X250825112Y-128978829D01*
X250789473Y-128959779D01*
X250758233Y-128934142D01*
X250732596Y-128902902D01*
X250713546Y-128867263D01*
X250701815Y-128828593D01*
X250697250Y-128782237D01*
X250697250Y-128131013D01*
X250701815Y-128084657D01*
X250713546Y-128045987D01*
X250732596Y-128010348D01*
X250758233Y-127979108D01*
X250789473Y-127953471D01*
X250825112Y-127934421D01*
X250863782Y-127922690D01*
X250910138Y-127918125D01*
X251986362Y-127918125D01*
X252032718Y-127922690D01*
X252032718Y-127922690D01*
G37*
G36*
X347522724Y-124886809D02*
G01*
X347655720Y-124941898D01*
X347894873Y-125040958D01*
X348229798Y-125264748D01*
X348514627Y-125549577D01*
X348738417Y-125884502D01*
X348783100Y-125992376D01*
X348892566Y-126256651D01*
X348971150Y-126651719D01*
X348971150Y-127054531D01*
X348892566Y-127449599D01*
X348811162Y-127646125D01*
X348738417Y-127821748D01*
X348514627Y-128156673D01*
X348229798Y-128441502D01*
X347894873Y-128665292D01*
X347759585Y-128721330D01*
X347522724Y-128819441D01*
X347127656Y-128898025D01*
X346724844Y-128898025D01*
X346329776Y-128819441D01*
X346092915Y-128721330D01*
X345957627Y-128665292D01*
X345622702Y-128441502D01*
X345337873Y-128156673D01*
X345114083Y-127821748D01*
X345041338Y-127646125D01*
X344959934Y-127449599D01*
X344881350Y-127054531D01*
X344881350Y-126651719D01*
X344959934Y-126256651D01*
X345069400Y-125992376D01*
X345114083Y-125884502D01*
X345337873Y-125549577D01*
X345622702Y-125264748D01*
X345957627Y-125040958D01*
X346196780Y-124941898D01*
X346329776Y-124886809D01*
X346724844Y-124808225D01*
X347127656Y-124808225D01*
X347522724Y-124886809D01*
X347522724Y-124886809D01*
G37*
G36*
X322756524Y-124873609D02*
G01*
X322921388Y-124941898D01*
X323128673Y-125027758D01*
X323463598Y-125251548D01*
X323748427Y-125536377D01*
X323972217Y-125871302D01*
X324005322Y-125951225D01*
X324126366Y-126243451D01*
X324204950Y-126638519D01*
X324204950Y-127041331D01*
X324126366Y-127436399D01*
X324038459Y-127648625D01*
X323972217Y-127808548D01*
X323748427Y-128143473D01*
X323463598Y-128428302D01*
X323128673Y-128652092D01*
X323023941Y-128695473D01*
X322756524Y-128806241D01*
X322361456Y-128884825D01*
X321958644Y-128884825D01*
X321563576Y-128806241D01*
X321296159Y-128695473D01*
X321191427Y-128652092D01*
X320856502Y-128428302D01*
X320571673Y-128143473D01*
X320347883Y-127808548D01*
X320281641Y-127648625D01*
X320193734Y-127436399D01*
X320115150Y-127041331D01*
X320115150Y-126638519D01*
X320193734Y-126243451D01*
X320314778Y-125951225D01*
X320347883Y-125871302D01*
X320571673Y-125536377D01*
X320856502Y-125251548D01*
X321191427Y-125027758D01*
X321398712Y-124941898D01*
X321563576Y-124873609D01*
X321958644Y-124795025D01*
X322361456Y-124795025D01*
X322756524Y-124873609D01*
X322756524Y-124873609D01*
G37*
G36*
X254827841Y-127822210D02*
G01*
X254861819Y-127832518D01*
X254893140Y-127849259D01*
X254920589Y-127871786D01*
X254943116Y-127899235D01*
X254959857Y-127930556D01*
X254970165Y-127964534D01*
X254974250Y-128006015D01*
X254974250Y-128607235D01*
X254970165Y-128648716D01*
X254959857Y-128682694D01*
X254943116Y-128714015D01*
X254920589Y-128741464D01*
X254893140Y-128763991D01*
X254861819Y-128780732D01*
X254827841Y-128791040D01*
X254786360Y-128795125D01*
X254110140Y-128795125D01*
X254068659Y-128791040D01*
X254034681Y-128780732D01*
X254003360Y-128763991D01*
X253975911Y-128741464D01*
X253953384Y-128714015D01*
X253936643Y-128682694D01*
X253926335Y-128648716D01*
X253922250Y-128607235D01*
X253922250Y-128006015D01*
X253926335Y-127964534D01*
X253936643Y-127930556D01*
X253953384Y-127899235D01*
X253975911Y-127871786D01*
X254003360Y-127849259D01*
X254034681Y-127832518D01*
X254068659Y-127822210D01*
X254110140Y-127818125D01*
X254786360Y-127818125D01*
X254827841Y-127822210D01*
X254827841Y-127822210D01*
G37*
G36*
X297159235Y-125336985D02*
G01*
X297271998Y-125359415D01*
X297310270Y-125375268D01*
X297590658Y-125491408D01*
X297877446Y-125683034D01*
X298121341Y-125926929D01*
X298312967Y-126213717D01*
X298371718Y-126355556D01*
X298444960Y-126532377D01*
X298453931Y-126577477D01*
X298512250Y-126870665D01*
X298512250Y-127215585D01*
X298486043Y-127347333D01*
X298444960Y-127553873D01*
X298396210Y-127671566D01*
X298312967Y-127872533D01*
X298121341Y-128159321D01*
X297877446Y-128403216D01*
X297590658Y-128594842D01*
X297421102Y-128665074D01*
X297271998Y-128726835D01*
X297198453Y-128741464D01*
X296933710Y-128794125D01*
X296588790Y-128794125D01*
X296324047Y-128741464D01*
X296250502Y-128726835D01*
X296101398Y-128665074D01*
X295931842Y-128594842D01*
X295645054Y-128403216D01*
X295401159Y-128159321D01*
X295209533Y-127872533D01*
X295126290Y-127671566D01*
X295077540Y-127553873D01*
X295036457Y-127347333D01*
X295010250Y-127215585D01*
X295010250Y-126870665D01*
X295068569Y-126577477D01*
X295077540Y-126532377D01*
X295150782Y-126355556D01*
X295209533Y-126213717D01*
X295401159Y-125926929D01*
X295645054Y-125683034D01*
X295931842Y-125491408D01*
X296212230Y-125375268D01*
X296250502Y-125359415D01*
X296363265Y-125336985D01*
X296588790Y-125292125D01*
X296933710Y-125292125D01*
X297159235Y-125336985D01*
X297159235Y-125336985D01*
G37*
G36*
X96697363Y-127998170D02*
G01*
X96711410Y-128002430D01*
X96724360Y-128009352D01*
X96735709Y-128018666D01*
X96745023Y-128030015D01*
X96751945Y-128042965D01*
X96756205Y-128057012D01*
X96758250Y-128077768D01*
X96758250Y-128616482D01*
X96756205Y-128637238D01*
X96751945Y-128651285D01*
X96745023Y-128664235D01*
X96735709Y-128675584D01*
X96724360Y-128684898D01*
X96711410Y-128691820D01*
X96697363Y-128696080D01*
X96676607Y-128698125D01*
X96287893Y-128698125D01*
X96267137Y-128696080D01*
X96253090Y-128691820D01*
X96240140Y-128684898D01*
X96228791Y-128675584D01*
X96219477Y-128664235D01*
X96212555Y-128651285D01*
X96208295Y-128637238D01*
X96206250Y-128616482D01*
X96206250Y-128077768D01*
X96208295Y-128057012D01*
X96212555Y-128042965D01*
X96219477Y-128030015D01*
X96228791Y-128018666D01*
X96240140Y-128009352D01*
X96253090Y-128002430D01*
X96267137Y-127998170D01*
X96287893Y-127996125D01*
X96676607Y-127996125D01*
X96697363Y-127998170D01*
X96697363Y-127998170D01*
G37*
G36*
X283424392Y-126856367D02*
G01*
X283572351Y-126917654D01*
X283705505Y-127006624D01*
X283818751Y-127119870D01*
X283907721Y-127253024D01*
X283969008Y-127400983D01*
X284000250Y-127558050D01*
X284000250Y-127718200D01*
X283969008Y-127875267D01*
X283907721Y-128023226D01*
X283818751Y-128156380D01*
X283705505Y-128269626D01*
X283572351Y-128358596D01*
X283424392Y-128419883D01*
X283267325Y-128451125D01*
X283107175Y-128451125D01*
X282950108Y-128419883D01*
X282802149Y-128358596D01*
X282668995Y-128269626D01*
X282555749Y-128156380D01*
X282466779Y-128023226D01*
X282405492Y-127875267D01*
X282374250Y-127718200D01*
X282374250Y-127558050D01*
X282405492Y-127400983D01*
X282466779Y-127253024D01*
X282555749Y-127119870D01*
X282668995Y-127006624D01*
X282802149Y-126917654D01*
X282950108Y-126856367D01*
X283107175Y-126825125D01*
X283267325Y-126825125D01*
X283424392Y-126856367D01*
X283424392Y-126856367D01*
G37*
G36*
X268924392Y-126856367D02*
G01*
X269072351Y-126917654D01*
X269205505Y-127006624D01*
X269318751Y-127119870D01*
X269407721Y-127253024D01*
X269469008Y-127400983D01*
X269500250Y-127558050D01*
X269500250Y-127718200D01*
X269469008Y-127875267D01*
X269407721Y-128023226D01*
X269318751Y-128156380D01*
X269205505Y-128269626D01*
X269072351Y-128358596D01*
X268924392Y-128419883D01*
X268767325Y-128451125D01*
X268607175Y-128451125D01*
X268450108Y-128419883D01*
X268302149Y-128358596D01*
X268168995Y-128269626D01*
X268055749Y-128156380D01*
X267966779Y-128023226D01*
X267905492Y-127875267D01*
X267874250Y-127718200D01*
X267874250Y-127558050D01*
X267905492Y-127400983D01*
X267966779Y-127253024D01*
X268055749Y-127119870D01*
X268168995Y-127006624D01*
X268302149Y-126917654D01*
X268450108Y-126856367D01*
X268607175Y-126825125D01*
X268767325Y-126825125D01*
X268924392Y-126856367D01*
X268924392Y-126856367D01*
G37*
G36*
X257730188Y-127660841D02*
G01*
X257750807Y-127667096D01*
X257769803Y-127677249D01*
X257786458Y-127690917D01*
X257800126Y-127707572D01*
X257810279Y-127726568D01*
X257816534Y-127747187D01*
X257819250Y-127774765D01*
X257819250Y-128233485D01*
X257816534Y-128261063D01*
X257810279Y-128281682D01*
X257800126Y-128300678D01*
X257786458Y-128317333D01*
X257769803Y-128331001D01*
X257750807Y-128341154D01*
X257730188Y-128347409D01*
X257702610Y-128350125D01*
X257193890Y-128350125D01*
X257166312Y-128347409D01*
X257145693Y-128341154D01*
X257126697Y-128331001D01*
X257110042Y-128317333D01*
X257096374Y-128300678D01*
X257086221Y-128281682D01*
X257079966Y-128261063D01*
X257077250Y-128233485D01*
X257077250Y-127774765D01*
X257079966Y-127747187D01*
X257086221Y-127726568D01*
X257096374Y-127707572D01*
X257110042Y-127690917D01*
X257126697Y-127677249D01*
X257145693Y-127667096D01*
X257166312Y-127660841D01*
X257193890Y-127658125D01*
X257702610Y-127658125D01*
X257730188Y-127660841D01*
X257730188Y-127660841D01*
G37*
G36*
X100602178Y-127648889D02*
G01*
X100623259Y-127655285D01*
X100642695Y-127665673D01*
X100659726Y-127679649D01*
X100673702Y-127696680D01*
X100684090Y-127716116D01*
X100690486Y-127737197D01*
X100693250Y-127765265D01*
X100693250Y-128228985D01*
X100690486Y-128257053D01*
X100684090Y-128278134D01*
X100673702Y-128297570D01*
X100659726Y-128314601D01*
X100642695Y-128328577D01*
X100623259Y-128338965D01*
X100602178Y-128345361D01*
X100574110Y-128348125D01*
X100010390Y-128348125D01*
X99982322Y-128345361D01*
X99961241Y-128338965D01*
X99941805Y-128328577D01*
X99924774Y-128314601D01*
X99910798Y-128297570D01*
X99900410Y-128278134D01*
X99894014Y-128257053D01*
X99891250Y-128228985D01*
X99891250Y-127765265D01*
X99894014Y-127737197D01*
X99900410Y-127716116D01*
X99910798Y-127696680D01*
X99924774Y-127679649D01*
X99941805Y-127665673D01*
X99961241Y-127655285D01*
X99982322Y-127648889D01*
X100010390Y-127646125D01*
X100574110Y-127646125D01*
X100602178Y-127648889D01*
X100602178Y-127648889D01*
G37*
G36*
X70264750Y-128335375D02*
G01*
X61612750Y-128335375D01*
X61612750Y-126733375D01*
X70264750Y-126733375D01*
X70264750Y-128335375D01*
X70264750Y-128335375D01*
G37*
G36*
X291390879Y-126048299D02*
G01*
X291553231Y-126080593D01*
X291682045Y-126133950D01*
X291727005Y-126152573D01*
X291735401Y-126156051D01*
X291899350Y-126265598D01*
X292038777Y-126405025D01*
X292148324Y-126568974D01*
X292223782Y-126751144D01*
X292262250Y-126944535D01*
X292262250Y-127141715D01*
X292223782Y-127335106D01*
X292148324Y-127517276D01*
X292038777Y-127681225D01*
X291899350Y-127820652D01*
X291735401Y-127930199D01*
X291735400Y-127930200D01*
X291735399Y-127930200D01*
X291715071Y-127938620D01*
X291553231Y-128005657D01*
X291484231Y-128019382D01*
X291359841Y-128044125D01*
X291162659Y-128044125D01*
X291038269Y-128019382D01*
X290969269Y-128005657D01*
X290807429Y-127938620D01*
X290787101Y-127930200D01*
X290787100Y-127930200D01*
X290787099Y-127930199D01*
X290623150Y-127820652D01*
X290483723Y-127681225D01*
X290374176Y-127517276D01*
X290298718Y-127335106D01*
X290260250Y-127141715D01*
X290260250Y-126944535D01*
X290298718Y-126751144D01*
X290374176Y-126568974D01*
X290483723Y-126405025D01*
X290623150Y-126265598D01*
X290787099Y-126156051D01*
X290795496Y-126152573D01*
X290840455Y-126133950D01*
X290969269Y-126080593D01*
X291131621Y-126048299D01*
X291162659Y-126042125D01*
X291359841Y-126042125D01*
X291390879Y-126048299D01*
X291390879Y-126048299D01*
G37*
G36*
X302390879Y-126048299D02*
G01*
X302553231Y-126080593D01*
X302682045Y-126133950D01*
X302727005Y-126152573D01*
X302735401Y-126156051D01*
X302899350Y-126265598D01*
X303038777Y-126405025D01*
X303148324Y-126568974D01*
X303223782Y-126751144D01*
X303262250Y-126944535D01*
X303262250Y-127141715D01*
X303223782Y-127335106D01*
X303148324Y-127517276D01*
X303038777Y-127681225D01*
X302899350Y-127820652D01*
X302735401Y-127930199D01*
X302735400Y-127930200D01*
X302735399Y-127930200D01*
X302715071Y-127938620D01*
X302553231Y-128005657D01*
X302484231Y-128019382D01*
X302359841Y-128044125D01*
X302162659Y-128044125D01*
X302038269Y-128019382D01*
X301969269Y-128005657D01*
X301807429Y-127938620D01*
X301787101Y-127930200D01*
X301787100Y-127930200D01*
X301787099Y-127930199D01*
X301623150Y-127820652D01*
X301483723Y-127681225D01*
X301374176Y-127517276D01*
X301298718Y-127335106D01*
X301260250Y-127141715D01*
X301260250Y-126944535D01*
X301298718Y-126751144D01*
X301374176Y-126568974D01*
X301483723Y-126405025D01*
X301623150Y-126265598D01*
X301787099Y-126156051D01*
X301795496Y-126152573D01*
X301840455Y-126133950D01*
X301969269Y-126080593D01*
X302131621Y-126048299D01*
X302162659Y-126042125D01*
X302359841Y-126042125D01*
X302390879Y-126048299D01*
X302390879Y-126048299D01*
G37*
G36*
X119037250Y-127924125D02*
G01*
X117435250Y-127924125D01*
X117435250Y-126822125D01*
X119037250Y-126822125D01*
X119037250Y-127924125D01*
X119037250Y-127924125D01*
G37*
G36*
X113965684Y-126826811D02*
G01*
X114005534Y-126838899D01*
X114042249Y-126858524D01*
X114074436Y-126884939D01*
X114100851Y-126917126D01*
X114120476Y-126953841D01*
X114132564Y-126993691D01*
X114137250Y-127041266D01*
X114137250Y-127704984D01*
X114132564Y-127752559D01*
X114120476Y-127792409D01*
X114100851Y-127829124D01*
X114074436Y-127861311D01*
X114042249Y-127887726D01*
X114005534Y-127907351D01*
X113965684Y-127919439D01*
X113918109Y-127924125D01*
X112754391Y-127924125D01*
X112706816Y-127919439D01*
X112666966Y-127907351D01*
X112630251Y-127887726D01*
X112598064Y-127861311D01*
X112571649Y-127829124D01*
X112552024Y-127792409D01*
X112539936Y-127752559D01*
X112535250Y-127704984D01*
X112535250Y-127041266D01*
X112539936Y-126993691D01*
X112552024Y-126953841D01*
X112571649Y-126917126D01*
X112598064Y-126884939D01*
X112630251Y-126858524D01*
X112666966Y-126838899D01*
X112706816Y-126826811D01*
X112754391Y-126822125D01*
X113918109Y-126822125D01*
X113965684Y-126826811D01*
X113965684Y-126826811D01*
G37*
G36*
X352175262Y-125967174D02*
G01*
X352269325Y-125985884D01*
X352368888Y-126027125D01*
X352433461Y-126053872D01*
X352579864Y-126151695D01*
X352581178Y-126152573D01*
X352706802Y-126278197D01*
X352706804Y-126278200D01*
X352805503Y-126425914D01*
X352810168Y-126437176D01*
X352873491Y-126590050D01*
X352882975Y-126637729D01*
X352908150Y-126764294D01*
X352908150Y-126941956D01*
X352898143Y-126992263D01*
X352873491Y-127116200D01*
X352832324Y-127215585D01*
X352805503Y-127280336D01*
X352707467Y-127427058D01*
X352706802Y-127428053D01*
X352581178Y-127553677D01*
X352581175Y-127553679D01*
X352433461Y-127652378D01*
X352387137Y-127671566D01*
X352269325Y-127720366D01*
X352195698Y-127735011D01*
X352095081Y-127755025D01*
X351917419Y-127755025D01*
X351816802Y-127735011D01*
X351743175Y-127720366D01*
X351625363Y-127671566D01*
X351579039Y-127652378D01*
X351431325Y-127553679D01*
X351431322Y-127553677D01*
X351305698Y-127428053D01*
X351305033Y-127427058D01*
X351206997Y-127280336D01*
X351180176Y-127215585D01*
X351139009Y-127116200D01*
X351114357Y-126992263D01*
X351104350Y-126941956D01*
X351104350Y-126764294D01*
X351129525Y-126637729D01*
X351139009Y-126590050D01*
X351202332Y-126437176D01*
X351206997Y-126425914D01*
X351305696Y-126278200D01*
X351305698Y-126278197D01*
X351431322Y-126152573D01*
X351432636Y-126151695D01*
X351579039Y-126053872D01*
X351643612Y-126027125D01*
X351743175Y-125985884D01*
X351837238Y-125967174D01*
X351917419Y-125951225D01*
X352095081Y-125951225D01*
X352175262Y-125967174D01*
X352175262Y-125967174D01*
G37*
G36*
X342015262Y-125967174D02*
G01*
X342109325Y-125985884D01*
X342208888Y-126027125D01*
X342273461Y-126053872D01*
X342419864Y-126151695D01*
X342421178Y-126152573D01*
X342546802Y-126278197D01*
X342546804Y-126278200D01*
X342645503Y-126425914D01*
X342650168Y-126437176D01*
X342713491Y-126590050D01*
X342722975Y-126637729D01*
X342748150Y-126764294D01*
X342748150Y-126941956D01*
X342738143Y-126992263D01*
X342713491Y-127116200D01*
X342672324Y-127215585D01*
X342645503Y-127280336D01*
X342547467Y-127427058D01*
X342546802Y-127428053D01*
X342421178Y-127553677D01*
X342421175Y-127553679D01*
X342273461Y-127652378D01*
X342227137Y-127671566D01*
X342109325Y-127720366D01*
X342035698Y-127735011D01*
X341935081Y-127755025D01*
X341757419Y-127755025D01*
X341656802Y-127735011D01*
X341583175Y-127720366D01*
X341465363Y-127671566D01*
X341419039Y-127652378D01*
X341271325Y-127553679D01*
X341271322Y-127553677D01*
X341145698Y-127428053D01*
X341145033Y-127427058D01*
X341046997Y-127280336D01*
X341020176Y-127215585D01*
X340979009Y-127116200D01*
X340954357Y-126992263D01*
X340944350Y-126941956D01*
X340944350Y-126764294D01*
X340969525Y-126637729D01*
X340979009Y-126590050D01*
X341042332Y-126437176D01*
X341046997Y-126425914D01*
X341145696Y-126278200D01*
X341145698Y-126278197D01*
X341271322Y-126152573D01*
X341272636Y-126151695D01*
X341419039Y-126053872D01*
X341483612Y-126027125D01*
X341583175Y-125985884D01*
X341677238Y-125967174D01*
X341757419Y-125951225D01*
X341935081Y-125951225D01*
X342015262Y-125967174D01*
X342015262Y-125967174D01*
G37*
G36*
X257730188Y-126690841D02*
G01*
X257750807Y-126697096D01*
X257769803Y-126707249D01*
X257786458Y-126720917D01*
X257800126Y-126737572D01*
X257810279Y-126756568D01*
X257816534Y-126777187D01*
X257819250Y-126804765D01*
X257819250Y-127263485D01*
X257816534Y-127291063D01*
X257810279Y-127311682D01*
X257800126Y-127330678D01*
X257786458Y-127347333D01*
X257769803Y-127361001D01*
X257750807Y-127371154D01*
X257730188Y-127377409D01*
X257702610Y-127380125D01*
X257193890Y-127380125D01*
X257166312Y-127377409D01*
X257145693Y-127371154D01*
X257126697Y-127361001D01*
X257110042Y-127347333D01*
X257096374Y-127330678D01*
X257086221Y-127311682D01*
X257079966Y-127291063D01*
X257077250Y-127263485D01*
X257077250Y-126804765D01*
X257079966Y-126777187D01*
X257086221Y-126756568D01*
X257096374Y-126737572D01*
X257110042Y-126720917D01*
X257126697Y-126707249D01*
X257145693Y-126697096D01*
X257166312Y-126690841D01*
X257193890Y-126688125D01*
X257702610Y-126688125D01*
X257730188Y-126690841D01*
X257730188Y-126690841D01*
G37*
G36*
X254827841Y-126247210D02*
G01*
X254861819Y-126257518D01*
X254893140Y-126274259D01*
X254920589Y-126296786D01*
X254943116Y-126324235D01*
X254959857Y-126355556D01*
X254970165Y-126389534D01*
X254974250Y-126431015D01*
X254974250Y-127032235D01*
X254970165Y-127073716D01*
X254959857Y-127107694D01*
X254943116Y-127139015D01*
X254920589Y-127166464D01*
X254893140Y-127188991D01*
X254861819Y-127205732D01*
X254827841Y-127216040D01*
X254786360Y-127220125D01*
X254110140Y-127220125D01*
X254068659Y-127216040D01*
X254034681Y-127205732D01*
X254003360Y-127188991D01*
X253975911Y-127166464D01*
X253953384Y-127139015D01*
X253936643Y-127107694D01*
X253926335Y-127073716D01*
X253922250Y-127032235D01*
X253922250Y-126431015D01*
X253926335Y-126389534D01*
X253936643Y-126355556D01*
X253953384Y-126324235D01*
X253975911Y-126296786D01*
X254003360Y-126274259D01*
X254034681Y-126257518D01*
X254068659Y-126247210D01*
X254110140Y-126243125D01*
X254786360Y-126243125D01*
X254827841Y-126247210D01*
X254827841Y-126247210D01*
G37*
G36*
X252032718Y-126047690D02*
G01*
X252071388Y-126059421D01*
X252107027Y-126078471D01*
X252138267Y-126104108D01*
X252163904Y-126135348D01*
X252182954Y-126170987D01*
X252194685Y-126209657D01*
X252199250Y-126256013D01*
X252199250Y-126907237D01*
X252194685Y-126953593D01*
X252182954Y-126992263D01*
X252163904Y-127027902D01*
X252138267Y-127059142D01*
X252107027Y-127084779D01*
X252071388Y-127103829D01*
X252032718Y-127115560D01*
X251986362Y-127120125D01*
X250910138Y-127120125D01*
X250863782Y-127115560D01*
X250825112Y-127103829D01*
X250789473Y-127084779D01*
X250758233Y-127059142D01*
X250732596Y-127027902D01*
X250713546Y-126992263D01*
X250701815Y-126953593D01*
X250697250Y-126907237D01*
X250697250Y-126256013D01*
X250701815Y-126209657D01*
X250713546Y-126170987D01*
X250732596Y-126135348D01*
X250758233Y-126104108D01*
X250789473Y-126078471D01*
X250825112Y-126059421D01*
X250863782Y-126047690D01*
X250910138Y-126043125D01*
X251986362Y-126043125D01*
X252032718Y-126047690D01*
X252032718Y-126047690D01*
G37*
G36*
X100693250Y-126948125D02*
G01*
X99891250Y-126948125D01*
X99891250Y-126246125D01*
X100693250Y-126246125D01*
X100693250Y-126948125D01*
X100693250Y-126948125D01*
G37*
G36*
X245274854Y-125479472D02*
G01*
X245311394Y-125490557D01*
X245345071Y-125508558D01*
X245374591Y-125532784D01*
X245398817Y-125562304D01*
X245416818Y-125595981D01*
X245427903Y-125632521D01*
X245432250Y-125676663D01*
X245432250Y-126625587D01*
X245427903Y-126669729D01*
X245416818Y-126706269D01*
X245398817Y-126739946D01*
X245374591Y-126769466D01*
X245345071Y-126793692D01*
X245311394Y-126811693D01*
X245274854Y-126822778D01*
X245230712Y-126827125D01*
X242881788Y-126827125D01*
X242837646Y-126822778D01*
X242801106Y-126811693D01*
X242767429Y-126793692D01*
X242737909Y-126769466D01*
X242713683Y-126739946D01*
X242695682Y-126706269D01*
X242684597Y-126669729D01*
X242680250Y-126625587D01*
X242680250Y-125676663D01*
X242684597Y-125632521D01*
X242695682Y-125595981D01*
X242713683Y-125562304D01*
X242737909Y-125532784D01*
X242767429Y-125508558D01*
X242801106Y-125490557D01*
X242837646Y-125479472D01*
X242881788Y-125475125D01*
X245230712Y-125475125D01*
X245274854Y-125479472D01*
X245274854Y-125479472D01*
G37*
G36*
X249216854Y-125447472D02*
G01*
X249253394Y-125458557D01*
X249287071Y-125476558D01*
X249316591Y-125500784D01*
X249340817Y-125530304D01*
X249358818Y-125563981D01*
X249369903Y-125600521D01*
X249374250Y-125644663D01*
X249374250Y-126593587D01*
X249369903Y-126637729D01*
X249358818Y-126674269D01*
X249340817Y-126707946D01*
X249316591Y-126737466D01*
X249287071Y-126761692D01*
X249253394Y-126779693D01*
X249216854Y-126790778D01*
X249172712Y-126795125D01*
X247723788Y-126795125D01*
X247679646Y-126790778D01*
X247643106Y-126779693D01*
X247609429Y-126761692D01*
X247579909Y-126737466D01*
X247555683Y-126707946D01*
X247537682Y-126674269D01*
X247526597Y-126637729D01*
X247522250Y-126593587D01*
X247522250Y-125644663D01*
X247526597Y-125600521D01*
X247537682Y-125563981D01*
X247555683Y-125530304D01*
X247579909Y-125500784D01*
X247609429Y-125476558D01*
X247643106Y-125458557D01*
X247679646Y-125447472D01*
X247723788Y-125443125D01*
X249172712Y-125443125D01*
X249216854Y-125447472D01*
X249216854Y-125447472D01*
G37*
G36*
X240980061Y-125504730D02*
G01*
X241019117Y-125516578D01*
X241055112Y-125535818D01*
X241086664Y-125561711D01*
X241112557Y-125593263D01*
X241131797Y-125629258D01*
X241143645Y-125668314D01*
X241148250Y-125715074D01*
X241148250Y-126437176D01*
X241143645Y-126483936D01*
X241131797Y-126522992D01*
X241112557Y-126558987D01*
X241086664Y-126590539D01*
X241055112Y-126616432D01*
X241019117Y-126635672D01*
X240980061Y-126647520D01*
X240933301Y-126652125D01*
X236511199Y-126652125D01*
X236464439Y-126647520D01*
X236425383Y-126635672D01*
X236389388Y-126616432D01*
X236357836Y-126590539D01*
X236331943Y-126558987D01*
X236312703Y-126522992D01*
X236300855Y-126483936D01*
X236296250Y-126437176D01*
X236296250Y-125715074D01*
X236300855Y-125668314D01*
X236312703Y-125629258D01*
X236331943Y-125593263D01*
X236357836Y-125561711D01*
X236389388Y-125535818D01*
X236425383Y-125516578D01*
X236464439Y-125504730D01*
X236511199Y-125500125D01*
X240933301Y-125500125D01*
X240980061Y-125504730D01*
X240980061Y-125504730D01*
G37*
G36*
X96758250Y-126598125D02*
G01*
X96206250Y-126598125D01*
X96206250Y-125896125D01*
X96758250Y-125896125D01*
X96758250Y-126598125D01*
X96758250Y-126598125D01*
G37*
G36*
X234441925Y-124804327D02*
G01*
X234477048Y-124814982D01*
X234509425Y-124832288D01*
X234537800Y-124855575D01*
X234561087Y-124883950D01*
X234578393Y-124916327D01*
X234589048Y-124951450D01*
X234593250Y-124994120D01*
X234593250Y-126108130D01*
X234589048Y-126150800D01*
X234578393Y-126185923D01*
X234561087Y-126218300D01*
X234537800Y-126246675D01*
X234509425Y-126269962D01*
X234477048Y-126287268D01*
X234441925Y-126297923D01*
X234399255Y-126302125D01*
X232885245Y-126302125D01*
X232842575Y-126297923D01*
X232807452Y-126287268D01*
X232775075Y-126269962D01*
X232746700Y-126246675D01*
X232723413Y-126218300D01*
X232706107Y-126185923D01*
X232695452Y-126150800D01*
X232691250Y-126108130D01*
X232691250Y-124994120D01*
X232695452Y-124951450D01*
X232706107Y-124916327D01*
X232723413Y-124883950D01*
X232746700Y-124855575D01*
X232775075Y-124832288D01*
X232807452Y-124814982D01*
X232842575Y-124804327D01*
X232885245Y-124800125D01*
X234399255Y-124800125D01*
X234441925Y-124804327D01*
X234441925Y-124804327D01*
G37*
G36*
X93151684Y-125100811D02*
G01*
X93191534Y-125112899D01*
X93228249Y-125132524D01*
X93260436Y-125158939D01*
X93286851Y-125191126D01*
X93306476Y-125227841D01*
X93318564Y-125267691D01*
X93323250Y-125315266D01*
X93323250Y-125978984D01*
X93318564Y-126026559D01*
X93306476Y-126066409D01*
X93286851Y-126103124D01*
X93260436Y-126135311D01*
X93228249Y-126161726D01*
X93191534Y-126181351D01*
X93151684Y-126193439D01*
X93104109Y-126198125D01*
X92240391Y-126198125D01*
X92192816Y-126193439D01*
X92152966Y-126181351D01*
X92116251Y-126161726D01*
X92084064Y-126135311D01*
X92057649Y-126103124D01*
X92038024Y-126066409D01*
X92025936Y-126026559D01*
X92021250Y-125978984D01*
X92021250Y-125315266D01*
X92025936Y-125267691D01*
X92038024Y-125227841D01*
X92057649Y-125191126D01*
X92084064Y-125158939D01*
X92116251Y-125132524D01*
X92152966Y-125112899D01*
X92192816Y-125100811D01*
X92240391Y-125096125D01*
X93104109Y-125096125D01*
X93151684Y-125100811D01*
X93151684Y-125100811D01*
G37*
G36*
X230657557Y-124804623D02*
G01*
X230695568Y-124816154D01*
X230730592Y-124834874D01*
X230761299Y-124860076D01*
X230786501Y-124890783D01*
X230805221Y-124925807D01*
X230816752Y-124963818D01*
X230821250Y-125009488D01*
X230821250Y-125817762D01*
X230816752Y-125863432D01*
X230805221Y-125901443D01*
X230786501Y-125936467D01*
X230761299Y-125967174D01*
X230730592Y-125992376D01*
X230695568Y-126011096D01*
X230657557Y-126022627D01*
X230611887Y-126027125D01*
X227528613Y-126027125D01*
X227482943Y-126022627D01*
X227444932Y-126011096D01*
X227409908Y-125992376D01*
X227379201Y-125967174D01*
X227353999Y-125936467D01*
X227335279Y-125901443D01*
X227323748Y-125863432D01*
X227319250Y-125817762D01*
X227319250Y-125009488D01*
X227323748Y-124963818D01*
X227335279Y-124925807D01*
X227353999Y-124890783D01*
X227379201Y-124860076D01*
X227409908Y-124834874D01*
X227444932Y-124816154D01*
X227482943Y-124804623D01*
X227528613Y-124800125D01*
X230611887Y-124800125D01*
X230657557Y-124804623D01*
X230657557Y-124804623D01*
G37*
G36*
X268924392Y-124356367D02*
G01*
X269072351Y-124417654D01*
X269205505Y-124506624D01*
X269318751Y-124619870D01*
X269407721Y-124753024D01*
X269469008Y-124900983D01*
X269500250Y-125058050D01*
X269500250Y-125218200D01*
X269469008Y-125375267D01*
X269407721Y-125523226D01*
X269318751Y-125656380D01*
X269205505Y-125769626D01*
X269072351Y-125858596D01*
X268924392Y-125919883D01*
X268767325Y-125951125D01*
X268607175Y-125951125D01*
X268450108Y-125919883D01*
X268302149Y-125858596D01*
X268168995Y-125769626D01*
X268055749Y-125656380D01*
X267966779Y-125523226D01*
X267905492Y-125375267D01*
X267874250Y-125218200D01*
X267874250Y-125058050D01*
X267905492Y-124900983D01*
X267966779Y-124753024D01*
X268055749Y-124619870D01*
X268168995Y-124506624D01*
X268302149Y-124417654D01*
X268450108Y-124356367D01*
X268607175Y-124325125D01*
X268767325Y-124325125D01*
X268924392Y-124356367D01*
X268924392Y-124356367D01*
G37*
G36*
X144133250Y-125804125D02*
G01*
X142131250Y-125804125D01*
X142131250Y-123202125D01*
X144133250Y-123202125D01*
X144133250Y-125804125D01*
X144133250Y-125804125D01*
G37*
G36*
X139380583Y-123211134D02*
G01*
X139462629Y-123236023D01*
X139538256Y-123276446D01*
X139604535Y-123330840D01*
X139658929Y-123397119D01*
X139699352Y-123472746D01*
X139724241Y-123554792D01*
X139733250Y-123646265D01*
X139733250Y-125359985D01*
X139724241Y-125451458D01*
X139699352Y-125533504D01*
X139658929Y-125609131D01*
X139604535Y-125675410D01*
X139538256Y-125729804D01*
X139462629Y-125770227D01*
X139380583Y-125795116D01*
X139289110Y-125804125D01*
X138175390Y-125804125D01*
X138083917Y-125795116D01*
X138001871Y-125770227D01*
X137926244Y-125729804D01*
X137859965Y-125675410D01*
X137805571Y-125609131D01*
X137765148Y-125533504D01*
X137740259Y-125451458D01*
X137731250Y-125359985D01*
X137731250Y-123646265D01*
X137740259Y-123554792D01*
X137765148Y-123472746D01*
X137805571Y-123397119D01*
X137859965Y-123330840D01*
X137926244Y-123276446D01*
X138001871Y-123236023D01*
X138083917Y-123211134D01*
X138175390Y-123202125D01*
X139289110Y-123202125D01*
X139380583Y-123211134D01*
X139380583Y-123211134D01*
G37*
G36*
X350993965Y-123017508D02*
G01*
X351121572Y-123042890D01*
X351253392Y-123097492D01*
X351361977Y-123142469D01*
X351425267Y-123184758D01*
X351578339Y-123287037D01*
X351762338Y-123471036D01*
X351842447Y-123590928D01*
X351906906Y-123687398D01*
X351948153Y-123786977D01*
X352006485Y-123927803D01*
X352030689Y-124049487D01*
X352051899Y-124156113D01*
X352057250Y-124183018D01*
X352057250Y-124443232D01*
X352006485Y-124698447D01*
X351966481Y-124795025D01*
X351906906Y-124938852D01*
X351898488Y-124951450D01*
X351762338Y-125155214D01*
X351578339Y-125339213D01*
X351433771Y-125435810D01*
X351361977Y-125483781D01*
X351262398Y-125525028D01*
X351121572Y-125583360D01*
X350993964Y-125608743D01*
X350866359Y-125634125D01*
X350606141Y-125634125D01*
X350478536Y-125608743D01*
X350350928Y-125583360D01*
X350210102Y-125525028D01*
X350110523Y-125483781D01*
X350038729Y-125435810D01*
X349894161Y-125339213D01*
X349710162Y-125155214D01*
X349574012Y-124951450D01*
X349565594Y-124938852D01*
X349506019Y-124795025D01*
X349466015Y-124698447D01*
X349415250Y-124443232D01*
X349415250Y-124183018D01*
X349420602Y-124156113D01*
X349441811Y-124049487D01*
X349466015Y-123927803D01*
X349524347Y-123786977D01*
X349565594Y-123687398D01*
X349630053Y-123590928D01*
X349710162Y-123471036D01*
X349894161Y-123287037D01*
X350047233Y-123184758D01*
X350110523Y-123142469D01*
X350219108Y-123097492D01*
X350350928Y-123042890D01*
X350478535Y-123017508D01*
X350606141Y-122992125D01*
X350866359Y-122992125D01*
X350993965Y-123017508D01*
X350993965Y-123017508D01*
G37*
G36*
X153371671Y-122500268D02*
G01*
X153503807Y-122540352D01*
X153503809Y-122540353D01*
X153625589Y-122605445D01*
X153653640Y-122628466D01*
X153732330Y-122693045D01*
X153819929Y-122799785D01*
X153885023Y-122921568D01*
X153925107Y-123053704D01*
X153935250Y-123156693D01*
X153935250Y-124325557D01*
X153925107Y-124428546D01*
X153885023Y-124560681D01*
X153885022Y-124560684D01*
X153819931Y-124682463D01*
X153819929Y-124682465D01*
X153732330Y-124789205D01*
X153676681Y-124834874D01*
X153625588Y-124876805D01*
X153509505Y-124938852D01*
X153503806Y-124941898D01*
X153371670Y-124981982D01*
X153234250Y-124995516D01*
X153096829Y-124981982D01*
X152964693Y-124941898D01*
X152958994Y-124938852D01*
X152842911Y-124876805D01*
X152788667Y-124832288D01*
X152736170Y-124789205D01*
X152648571Y-124682464D01*
X152583477Y-124560681D01*
X152543393Y-124428545D01*
X152533250Y-124325556D01*
X152533251Y-123156693D01*
X152543394Y-123053704D01*
X152583478Y-122921568D01*
X152648572Y-122799785D01*
X152736171Y-122693045D01*
X152814861Y-122628466D01*
X152842912Y-122605445D01*
X152964692Y-122540353D01*
X152964694Y-122540352D01*
X153096830Y-122500268D01*
X153234250Y-122486734D01*
X153371671Y-122500268D01*
X153371671Y-122500268D01*
G37*
G36*
X160771671Y-122500268D02*
G01*
X160903807Y-122540352D01*
X160903809Y-122540353D01*
X161025589Y-122605445D01*
X161053640Y-122628466D01*
X161132330Y-122693045D01*
X161219929Y-122799785D01*
X161285023Y-122921568D01*
X161325107Y-123053704D01*
X161335250Y-123156693D01*
X161335250Y-124325557D01*
X161325107Y-124428546D01*
X161285023Y-124560681D01*
X161285022Y-124560684D01*
X161219931Y-124682463D01*
X161219929Y-124682465D01*
X161132330Y-124789205D01*
X161076681Y-124834874D01*
X161025588Y-124876805D01*
X160909505Y-124938852D01*
X160903806Y-124941898D01*
X160771670Y-124981982D01*
X160634250Y-124995516D01*
X160496829Y-124981982D01*
X160364693Y-124941898D01*
X160358994Y-124938852D01*
X160242911Y-124876805D01*
X160188667Y-124832288D01*
X160136170Y-124789205D01*
X160048571Y-124682464D01*
X159983477Y-124560681D01*
X159943393Y-124428545D01*
X159933250Y-124325556D01*
X159933251Y-123156693D01*
X159943394Y-123053704D01*
X159983478Y-122921568D01*
X160048572Y-122799785D01*
X160136171Y-122693045D01*
X160214861Y-122628466D01*
X160242912Y-122605445D01*
X160364692Y-122540353D01*
X160364694Y-122540352D01*
X160496830Y-122500268D01*
X160634250Y-122486734D01*
X160771671Y-122500268D01*
X160771671Y-122500268D01*
G37*
G36*
X114137250Y-124724125D02*
G01*
X112535250Y-124724125D01*
X112535250Y-123622125D01*
X114137250Y-123622125D01*
X114137250Y-124724125D01*
X114137250Y-124724125D01*
G37*
G36*
X119037250Y-124724125D02*
G01*
X117435250Y-124724125D01*
X117435250Y-123622125D01*
X119037250Y-123622125D01*
X119037250Y-124724125D01*
X119037250Y-124724125D01*
G37*
G36*
X301985799Y-122114241D02*
G01*
X302096984Y-122136357D01*
X302161617Y-122163129D01*
X302279091Y-122211788D01*
X302306453Y-122223122D01*
X302494970Y-122349085D01*
X302655290Y-122509405D01*
X302742247Y-122639546D01*
X302781254Y-122697924D01*
X302790155Y-122719413D01*
X302868018Y-122907391D01*
X302882860Y-122982008D01*
X302912250Y-123129760D01*
X302912250Y-123356490D01*
X302897079Y-123432761D01*
X302868018Y-123578859D01*
X302781253Y-123788328D01*
X302655290Y-123976845D01*
X302494970Y-124137165D01*
X302306453Y-124263128D01*
X302096984Y-124349893D01*
X302010438Y-124367108D01*
X301874615Y-124394125D01*
X301647885Y-124394125D01*
X301512062Y-124367108D01*
X301425516Y-124349893D01*
X301216047Y-124263128D01*
X301027530Y-124137165D01*
X300867210Y-123976845D01*
X300741247Y-123788328D01*
X300654482Y-123578859D01*
X300625421Y-123432761D01*
X300610250Y-123356490D01*
X300610250Y-123129760D01*
X300639640Y-122982008D01*
X300654482Y-122907391D01*
X300732345Y-122719413D01*
X300741246Y-122697924D01*
X300780253Y-122639546D01*
X300867210Y-122509405D01*
X301027530Y-122349085D01*
X301216047Y-122223122D01*
X301243410Y-122211788D01*
X301360883Y-122163129D01*
X301425516Y-122136357D01*
X301536701Y-122114241D01*
X301647885Y-122092125D01*
X301874615Y-122092125D01*
X301985799Y-122114241D01*
X301985799Y-122114241D01*
G37*
G36*
X155524140Y-121915142D02*
G01*
X155633494Y-121960438D01*
X155642614Y-121964216D01*
X155749238Y-122035460D01*
X155839915Y-122126137D01*
X155905085Y-122223670D01*
X155911160Y-122232763D01*
X155960233Y-122351235D01*
X155985250Y-122477006D01*
X155985250Y-122605244D01*
X155960233Y-122731015D01*
X155911160Y-122849488D01*
X155869015Y-122912562D01*
X155857464Y-122934173D01*
X155850351Y-122957622D01*
X155847949Y-122982008D01*
X155850351Y-123006394D01*
X155857464Y-123029843D01*
X155869015Y-123051454D01*
X155884561Y-123070396D01*
X155903502Y-123085941D01*
X155925113Y-123097492D01*
X155948562Y-123104605D01*
X155972948Y-123107007D01*
X155997334Y-123104605D01*
X156070131Y-123090125D01*
X156198369Y-123090125D01*
X156271166Y-123104605D01*
X156295552Y-123107007D01*
X156319938Y-123104605D01*
X156343387Y-123097492D01*
X156364998Y-123085941D01*
X156383940Y-123070395D01*
X156399485Y-123051453D01*
X156411036Y-123029843D01*
X156418149Y-123006394D01*
X156420551Y-122982008D01*
X156418149Y-122957622D01*
X156411036Y-122934173D01*
X156399485Y-122912562D01*
X156357340Y-122849488D01*
X156308267Y-122731015D01*
X156283250Y-122605244D01*
X156283250Y-122477006D01*
X156308267Y-122351235D01*
X156357340Y-122232763D01*
X156363416Y-122223670D01*
X156428585Y-122126137D01*
X156519262Y-122035460D01*
X156625886Y-121964216D01*
X156635007Y-121960438D01*
X156744360Y-121915142D01*
X156870131Y-121890125D01*
X156998369Y-121890125D01*
X157124140Y-121915142D01*
X157233494Y-121960438D01*
X157242614Y-121964216D01*
X157349238Y-122035460D01*
X157439915Y-122126137D01*
X157505085Y-122223670D01*
X157511160Y-122232763D01*
X157560233Y-122351235D01*
X157585250Y-122477006D01*
X157585250Y-122605244D01*
X157560233Y-122731015D01*
X157511160Y-122849488D01*
X157469015Y-122912562D01*
X157457464Y-122934173D01*
X157450351Y-122957622D01*
X157447949Y-122982008D01*
X157450351Y-123006394D01*
X157457464Y-123029843D01*
X157469015Y-123051454D01*
X157484561Y-123070396D01*
X157503502Y-123085941D01*
X157525113Y-123097492D01*
X157548562Y-123104605D01*
X157572948Y-123107007D01*
X157597334Y-123104605D01*
X157670131Y-123090125D01*
X157798369Y-123090125D01*
X157871166Y-123104605D01*
X157895552Y-123107007D01*
X157919938Y-123104605D01*
X157943387Y-123097492D01*
X157964998Y-123085941D01*
X157983940Y-123070395D01*
X157999485Y-123051453D01*
X158011036Y-123029843D01*
X158018149Y-123006394D01*
X158020551Y-122982008D01*
X158018149Y-122957622D01*
X158011036Y-122934173D01*
X157999485Y-122912562D01*
X157957340Y-122849488D01*
X157908267Y-122731015D01*
X157883250Y-122605244D01*
X157883250Y-122477006D01*
X157908267Y-122351235D01*
X157957340Y-122232763D01*
X157963416Y-122223670D01*
X158028585Y-122126137D01*
X158119262Y-122035460D01*
X158225886Y-121964216D01*
X158235007Y-121960438D01*
X158344360Y-121915142D01*
X158470131Y-121890125D01*
X158598369Y-121890125D01*
X158724140Y-121915142D01*
X158833494Y-121960438D01*
X158842614Y-121964216D01*
X158949238Y-122035460D01*
X159039915Y-122126137D01*
X159105085Y-122223670D01*
X159111160Y-122232763D01*
X159136577Y-122294125D01*
X159160233Y-122351235D01*
X159185250Y-122477007D01*
X159185250Y-122605243D01*
X159160233Y-122731015D01*
X159111159Y-122849489D01*
X159039915Y-122956113D01*
X158949238Y-123046790D01*
X158842614Y-123118034D01*
X158842613Y-123118035D01*
X158842612Y-123118035D01*
X158724140Y-123167108D01*
X158598369Y-123192125D01*
X158470131Y-123192125D01*
X158397334Y-123177645D01*
X158372948Y-123175243D01*
X158348562Y-123177645D01*
X158325113Y-123184758D01*
X158303502Y-123196309D01*
X158284560Y-123211855D01*
X158269015Y-123230797D01*
X158257464Y-123252407D01*
X158250351Y-123275856D01*
X158247949Y-123300242D01*
X158250351Y-123324628D01*
X158257464Y-123348077D01*
X158269015Y-123369688D01*
X158311160Y-123432762D01*
X158360233Y-123551235D01*
X158385250Y-123677006D01*
X158385250Y-123805244D01*
X158360233Y-123931015D01*
X158322070Y-124023149D01*
X158311159Y-124049489D01*
X158239915Y-124156113D01*
X158149238Y-124246790D01*
X158042614Y-124318034D01*
X158042613Y-124318035D01*
X158042612Y-124318035D01*
X157924140Y-124367108D01*
X157798369Y-124392125D01*
X157670131Y-124392125D01*
X157544360Y-124367108D01*
X157425888Y-124318035D01*
X157425887Y-124318035D01*
X157425886Y-124318034D01*
X157319262Y-124246790D01*
X157228585Y-124156113D01*
X157157341Y-124049489D01*
X157146431Y-124023149D01*
X157108267Y-123931015D01*
X157083250Y-123805244D01*
X157083250Y-123677006D01*
X157108267Y-123551235D01*
X157157340Y-123432762D01*
X157199485Y-123369688D01*
X157211036Y-123348077D01*
X157218149Y-123324628D01*
X157220551Y-123300242D01*
X157218149Y-123275856D01*
X157211036Y-123252407D01*
X157199485Y-123230796D01*
X157183939Y-123211854D01*
X157164998Y-123196309D01*
X157143387Y-123184758D01*
X157119938Y-123177645D01*
X157095552Y-123175243D01*
X157071166Y-123177645D01*
X156998369Y-123192125D01*
X156870131Y-123192125D01*
X156797334Y-123177645D01*
X156772948Y-123175243D01*
X156748562Y-123177645D01*
X156725113Y-123184758D01*
X156703502Y-123196309D01*
X156684560Y-123211855D01*
X156669015Y-123230797D01*
X156657464Y-123252407D01*
X156650351Y-123275856D01*
X156647949Y-123300242D01*
X156650351Y-123324628D01*
X156657464Y-123348077D01*
X156669015Y-123369688D01*
X156711160Y-123432762D01*
X156760233Y-123551235D01*
X156785250Y-123677006D01*
X156785250Y-123805244D01*
X156760233Y-123931015D01*
X156722070Y-124023149D01*
X156711159Y-124049489D01*
X156639915Y-124156113D01*
X156549238Y-124246790D01*
X156442614Y-124318034D01*
X156442613Y-124318035D01*
X156442612Y-124318035D01*
X156324140Y-124367108D01*
X156198369Y-124392125D01*
X156070131Y-124392125D01*
X155944360Y-124367108D01*
X155825888Y-124318035D01*
X155825887Y-124318035D01*
X155825886Y-124318034D01*
X155719262Y-124246790D01*
X155628585Y-124156113D01*
X155557341Y-124049489D01*
X155546431Y-124023149D01*
X155508267Y-123931015D01*
X155483250Y-123805244D01*
X155483250Y-123677006D01*
X155508267Y-123551235D01*
X155557340Y-123432762D01*
X155599485Y-123369688D01*
X155611036Y-123348077D01*
X155618149Y-123324628D01*
X155620551Y-123300242D01*
X155618149Y-123275856D01*
X155611036Y-123252407D01*
X155599485Y-123230796D01*
X155583939Y-123211854D01*
X155564998Y-123196309D01*
X155543387Y-123184758D01*
X155519938Y-123177645D01*
X155495552Y-123175243D01*
X155471166Y-123177645D01*
X155398369Y-123192125D01*
X155270131Y-123192125D01*
X155144360Y-123167108D01*
X155025888Y-123118035D01*
X155025887Y-123118035D01*
X155025886Y-123118034D01*
X154919262Y-123046790D01*
X154828585Y-122956113D01*
X154757341Y-122849489D01*
X154708267Y-122731015D01*
X154683250Y-122605243D01*
X154683250Y-122477007D01*
X154708267Y-122351235D01*
X154731923Y-122294125D01*
X154757340Y-122232763D01*
X154763416Y-122223670D01*
X154828585Y-122126137D01*
X154919262Y-122035460D01*
X155025886Y-121964216D01*
X155035007Y-121960438D01*
X155144360Y-121915142D01*
X155270131Y-121890125D01*
X155398369Y-121890125D01*
X155524140Y-121915142D01*
X155524140Y-121915142D01*
G37*
G36*
X320039537Y-121588921D02*
G01*
X320255625Y-121678428D01*
X320276305Y-121686994D01*
X320489389Y-121829372D01*
X320670603Y-122010586D01*
X320805042Y-122211788D01*
X320812982Y-122223672D01*
X320911054Y-122460438D01*
X320961050Y-122711786D01*
X320961050Y-122968064D01*
X320911054Y-123219412D01*
X320822681Y-123432762D01*
X320812981Y-123456180D01*
X320670603Y-123669264D01*
X320489389Y-123850478D01*
X320276305Y-123992856D01*
X320276304Y-123992857D01*
X320276303Y-123992857D01*
X320039537Y-124090929D01*
X319788189Y-124140925D01*
X319531911Y-124140925D01*
X319280563Y-124090929D01*
X319043797Y-123992857D01*
X319043796Y-123992857D01*
X319043795Y-123992856D01*
X318830711Y-123850478D01*
X318649497Y-123669264D01*
X318507119Y-123456180D01*
X318497419Y-123432762D01*
X318409046Y-123219412D01*
X318359050Y-122968064D01*
X318359050Y-122711786D01*
X318409046Y-122460438D01*
X318507118Y-122223672D01*
X318515059Y-122211788D01*
X318649497Y-122010586D01*
X318830711Y-121829372D01*
X319043795Y-121686994D01*
X319064475Y-121678428D01*
X319280563Y-121588921D01*
X319531911Y-121538925D01*
X319788189Y-121538925D01*
X320039537Y-121588921D01*
X320039537Y-121588921D01*
G37*
G36*
X88775073Y-122394438D02*
G01*
X88935492Y-122443101D01*
X89059538Y-122509405D01*
X89083328Y-122522121D01*
X89212909Y-122628466D01*
X89319254Y-122758047D01*
X89319255Y-122758049D01*
X89398274Y-122905883D01*
X89398275Y-122905886D01*
X89398732Y-122907392D01*
X89446937Y-123066302D01*
X89463367Y-123233125D01*
X89446937Y-123399948D01*
X89398274Y-123560367D01*
X89330375Y-123687397D01*
X89319254Y-123708203D01*
X89212909Y-123837784D01*
X89083328Y-123944129D01*
X89083326Y-123944130D01*
X88935492Y-124023149D01*
X88775073Y-124071812D01*
X88650054Y-124084125D01*
X88566446Y-124084125D01*
X88441427Y-124071812D01*
X88281008Y-124023149D01*
X88133174Y-123944130D01*
X88133172Y-123944129D01*
X88003591Y-123837784D01*
X87897246Y-123708203D01*
X87886125Y-123687397D01*
X87818226Y-123560367D01*
X87769563Y-123399948D01*
X87753133Y-123233125D01*
X87769563Y-123066302D01*
X87817768Y-122907392D01*
X87818225Y-122905886D01*
X87818226Y-122905883D01*
X87897245Y-122758049D01*
X87897246Y-122758047D01*
X88003591Y-122628466D01*
X88133172Y-122522121D01*
X88156962Y-122509405D01*
X88281008Y-122443101D01*
X88441427Y-122394438D01*
X88566446Y-122382125D01*
X88650054Y-122382125D01*
X88775073Y-122394438D01*
X88775073Y-122394438D01*
G37*
G36*
X325039537Y-121088921D02*
G01*
X325276303Y-121186993D01*
X325276305Y-121186994D01*
X325489389Y-121329372D01*
X325670603Y-121510586D01*
X325799406Y-121703353D01*
X325812982Y-121723672D01*
X325911054Y-121960438D01*
X325961050Y-122211786D01*
X325961050Y-122468064D01*
X325911054Y-122719412D01*
X325833190Y-122907391D01*
X325812981Y-122956180D01*
X325670603Y-123169264D01*
X325489389Y-123350478D01*
X325276305Y-123492856D01*
X325276304Y-123492857D01*
X325276303Y-123492857D01*
X325039537Y-123590929D01*
X324788189Y-123640925D01*
X324531911Y-123640925D01*
X324280563Y-123590929D01*
X324043797Y-123492857D01*
X324043796Y-123492857D01*
X324043795Y-123492856D01*
X323830711Y-123350478D01*
X323649497Y-123169264D01*
X323507119Y-122956180D01*
X323486910Y-122907391D01*
X323409046Y-122719412D01*
X323359050Y-122468064D01*
X323359050Y-122211786D01*
X323409046Y-121960438D01*
X323507118Y-121723672D01*
X323520695Y-121703353D01*
X323649497Y-121510586D01*
X323830711Y-121329372D01*
X324043795Y-121186994D01*
X324043797Y-121186993D01*
X324280563Y-121088921D01*
X324531911Y-121038925D01*
X324788189Y-121038925D01*
X325039537Y-121088921D01*
X325039537Y-121088921D01*
G37*
G36*
X283424392Y-121856367D02*
G01*
X283572351Y-121917654D01*
X283705505Y-122006624D01*
X283818751Y-122119870D01*
X283907721Y-122253024D01*
X283969008Y-122400983D01*
X284000250Y-122558050D01*
X284000250Y-122718200D01*
X283969008Y-122875267D01*
X283907721Y-123023226D01*
X283818751Y-123156380D01*
X283705505Y-123269626D01*
X283572351Y-123358596D01*
X283424392Y-123419883D01*
X283267325Y-123451125D01*
X283107175Y-123451125D01*
X282950108Y-123419883D01*
X282802149Y-123358596D01*
X282668995Y-123269626D01*
X282555749Y-123156380D01*
X282466779Y-123023226D01*
X282405492Y-122875267D01*
X282374250Y-122718200D01*
X282374250Y-122558050D01*
X282405492Y-122400983D01*
X282466779Y-122253024D01*
X282555749Y-122119870D01*
X282668995Y-122006624D01*
X282802149Y-121917654D01*
X282950108Y-121856367D01*
X283107175Y-121825125D01*
X283267325Y-121825125D01*
X283424392Y-121856367D01*
X283424392Y-121856367D01*
G37*
G36*
X268924392Y-121856367D02*
G01*
X269072351Y-121917654D01*
X269205505Y-122006624D01*
X269318751Y-122119870D01*
X269407721Y-122253024D01*
X269469008Y-122400983D01*
X269500250Y-122558050D01*
X269500250Y-122718200D01*
X269469008Y-122875267D01*
X269407721Y-123023226D01*
X269318751Y-123156380D01*
X269205505Y-123269626D01*
X269072351Y-123358596D01*
X268924392Y-123419883D01*
X268767325Y-123451125D01*
X268607175Y-123451125D01*
X268450108Y-123419883D01*
X268302149Y-123358596D01*
X268168995Y-123269626D01*
X268055749Y-123156380D01*
X267966779Y-123023226D01*
X267905492Y-122875267D01*
X267874250Y-122718200D01*
X267874250Y-122558050D01*
X267905492Y-122400983D01*
X267966779Y-122253024D01*
X268055749Y-122119870D01*
X268168995Y-122006624D01*
X268302149Y-121917654D01*
X268450108Y-121856367D01*
X268607175Y-121825125D01*
X268767325Y-121825125D01*
X268924392Y-121856367D01*
X268924392Y-121856367D01*
G37*
G36*
X177282671Y-121211268D02*
G01*
X177414807Y-121251352D01*
X177414809Y-121251353D01*
X177536589Y-121316445D01*
X177643330Y-121404045D01*
X177730930Y-121510786D01*
X177772694Y-121588922D01*
X177796023Y-121632568D01*
X177836107Y-121764704D01*
X177846250Y-121867693D01*
X177846250Y-122536557D01*
X177836107Y-122639546D01*
X177796023Y-122771681D01*
X177796022Y-122771684D01*
X177730931Y-122893463D01*
X177730929Y-122893465D01*
X177643330Y-123000205D01*
X177586565Y-123046790D01*
X177536588Y-123087805D01*
X177434316Y-123142470D01*
X177414806Y-123152898D01*
X177282670Y-123192982D01*
X177145250Y-123206516D01*
X177007829Y-123192982D01*
X176875693Y-123152898D01*
X176856183Y-123142470D01*
X176753911Y-123087805D01*
X176712359Y-123053704D01*
X176647170Y-123000205D01*
X176559571Y-122893464D01*
X176549845Y-122875267D01*
X176494478Y-122771683D01*
X176490342Y-122758049D01*
X176454393Y-122639545D01*
X176444250Y-122536556D01*
X176444250Y-121867693D01*
X176454393Y-121764704D01*
X176494477Y-121632567D01*
X176559570Y-121510787D01*
X176647171Y-121404045D01*
X176714129Y-121349094D01*
X176753912Y-121316445D01*
X176875692Y-121251353D01*
X176875694Y-121251352D01*
X177007830Y-121211268D01*
X177145250Y-121197734D01*
X177282671Y-121211268D01*
X177282671Y-121211268D01*
G37*
G36*
X185882671Y-121211268D02*
G01*
X186014807Y-121251352D01*
X186014809Y-121251353D01*
X186136589Y-121316445D01*
X186243330Y-121404045D01*
X186330930Y-121510786D01*
X186372694Y-121588922D01*
X186396023Y-121632568D01*
X186436107Y-121764704D01*
X186446250Y-121867693D01*
X186446250Y-122536557D01*
X186436107Y-122639546D01*
X186396023Y-122771681D01*
X186396022Y-122771684D01*
X186330931Y-122893463D01*
X186330929Y-122893465D01*
X186243330Y-123000205D01*
X186186565Y-123046790D01*
X186136588Y-123087805D01*
X186034316Y-123142470D01*
X186014806Y-123152898D01*
X185882670Y-123192982D01*
X185745250Y-123206516D01*
X185607829Y-123192982D01*
X185475693Y-123152898D01*
X185456183Y-123142470D01*
X185353911Y-123087805D01*
X185312359Y-123053704D01*
X185247170Y-123000205D01*
X185159571Y-122893464D01*
X185149845Y-122875267D01*
X185094478Y-122771683D01*
X185090342Y-122758049D01*
X185054393Y-122639545D01*
X185044250Y-122536556D01*
X185044250Y-121867693D01*
X185054393Y-121764704D01*
X185094477Y-121632567D01*
X185159570Y-121510787D01*
X185247171Y-121404045D01*
X185314129Y-121349094D01*
X185353912Y-121316445D01*
X185475692Y-121251353D01*
X185475694Y-121251352D01*
X185607830Y-121211268D01*
X185745250Y-121197734D01*
X185882671Y-121211268D01*
X185882671Y-121211268D01*
G37*
G36*
X344643965Y-120477508D02*
G01*
X344771572Y-120502890D01*
X344912398Y-120561222D01*
X345011977Y-120602469D01*
X345059352Y-120634124D01*
X345228339Y-120747037D01*
X345412338Y-120931036D01*
X345484427Y-121038925D01*
X345556906Y-121147398D01*
X345583362Y-121211269D01*
X345656485Y-121387803D01*
X345680908Y-121510586D01*
X345707250Y-121643016D01*
X345707250Y-121903234D01*
X345695871Y-121960438D01*
X345656485Y-122158447D01*
X345600285Y-122294125D01*
X345556906Y-122398852D01*
X345555482Y-122400983D01*
X345412338Y-122615214D01*
X345228339Y-122799213D01*
X345114514Y-122875268D01*
X345011977Y-122943781D01*
X344953352Y-122968064D01*
X344771572Y-123043360D01*
X344656244Y-123066300D01*
X344516359Y-123094125D01*
X344256141Y-123094125D01*
X344116256Y-123066300D01*
X344000928Y-123043360D01*
X343819148Y-122968064D01*
X343760523Y-122943781D01*
X343657986Y-122875268D01*
X343544161Y-122799213D01*
X343360162Y-122615214D01*
X343217018Y-122400983D01*
X343215594Y-122398852D01*
X343172215Y-122294125D01*
X343116015Y-122158447D01*
X343076629Y-121960438D01*
X343065250Y-121903234D01*
X343065250Y-121643016D01*
X343091592Y-121510586D01*
X343116015Y-121387803D01*
X343189138Y-121211269D01*
X343215594Y-121147398D01*
X343288073Y-121038925D01*
X343360162Y-120931036D01*
X343544161Y-120747037D01*
X343713148Y-120634124D01*
X343760523Y-120602469D01*
X343860102Y-120561222D01*
X344000928Y-120502890D01*
X344128535Y-120477508D01*
X344256141Y-120452125D01*
X344516359Y-120452125D01*
X344643965Y-120477508D01*
X344643965Y-120477508D01*
G37*
G36*
X68614750Y-116145876D02*
G01*
X68617152Y-116170262D01*
X68624265Y-116193711D01*
X68635816Y-116215322D01*
X68651361Y-116234264D01*
X68670303Y-116249809D01*
X68691914Y-116261360D01*
X68715363Y-116268473D01*
X68739749Y-116270875D01*
X69864750Y-116270875D01*
X69864750Y-121622875D01*
X68739749Y-121622875D01*
X68715363Y-121625277D01*
X68691914Y-121632390D01*
X68670303Y-121643941D01*
X68651361Y-121659486D01*
X68635816Y-121678428D01*
X68624265Y-121700039D01*
X68617152Y-121723488D01*
X68614750Y-121747874D01*
X68614750Y-122872875D01*
X63262750Y-122872875D01*
X63262750Y-121720252D01*
X63260348Y-121695866D01*
X63253235Y-121672417D01*
X63241684Y-121650806D01*
X63226139Y-121631864D01*
X63207197Y-121616319D01*
X63185586Y-121604768D01*
X63162137Y-121597655D01*
X63137751Y-121595253D01*
X63113365Y-121597655D01*
X63087508Y-121606907D01*
X63083822Y-121608025D01*
X63081102Y-121609479D01*
X63048086Y-121619494D01*
X63013750Y-121622876D01*
X62188750Y-121622876D01*
X62154414Y-121619494D01*
X62121398Y-121609479D01*
X62090970Y-121593215D01*
X62064299Y-121571327D01*
X62042411Y-121544656D01*
X62026147Y-121514228D01*
X62016132Y-121481212D01*
X62012750Y-121446876D01*
X62012750Y-121446874D01*
X62016132Y-121412538D01*
X62026147Y-121379522D01*
X62042411Y-121349094D01*
X62064299Y-121322423D01*
X62064420Y-121322324D01*
X62074793Y-121306800D01*
X62084171Y-121284161D01*
X62088952Y-121260128D01*
X62088952Y-121235624D01*
X62084172Y-121211590D01*
X62074795Y-121188951D01*
X62061182Y-121168577D01*
X62043855Y-121151250D01*
X62023481Y-121137636D01*
X62012750Y-121133191D01*
X62012750Y-116270875D01*
X63137751Y-116270875D01*
X63162137Y-116268473D01*
X63185586Y-116261360D01*
X63207197Y-116249809D01*
X63226139Y-116234264D01*
X63241684Y-116215322D01*
X63253235Y-116193711D01*
X63260348Y-116170262D01*
X63262750Y-116145876D01*
X63262750Y-115020875D01*
X68614750Y-115020875D01*
X68614750Y-116145876D01*
X68614750Y-116145876D01*
G37*
G36*
X224746478Y-120636828D02*
G01*
X224901350Y-120700978D01*
X225040731Y-120794110D01*
X225159265Y-120912644D01*
X225252397Y-121052025D01*
X225316547Y-121206897D01*
X225349250Y-121371309D01*
X225349250Y-121538941D01*
X225316547Y-121703353D01*
X225252397Y-121858225D01*
X225159265Y-121997606D01*
X225040731Y-122116140D01*
X224901350Y-122209272D01*
X224746478Y-122273422D01*
X224582066Y-122306125D01*
X224414434Y-122306125D01*
X224250022Y-122273422D01*
X224095150Y-122209272D01*
X223955769Y-122116140D01*
X223837235Y-121997606D01*
X223744103Y-121858225D01*
X223679953Y-121703353D01*
X223647250Y-121538941D01*
X223647250Y-121371309D01*
X223679953Y-121206897D01*
X223744103Y-121052025D01*
X223837235Y-120912644D01*
X223955769Y-120794110D01*
X224095150Y-120700978D01*
X224250022Y-120636828D01*
X224414434Y-120604125D01*
X224582066Y-120604125D01*
X224746478Y-120636828D01*
X224746478Y-120636828D01*
G37*
G36*
X296943353Y-120005798D02*
G01*
X297096984Y-120036357D01*
X297205901Y-120081472D01*
X297251663Y-120100427D01*
X297306453Y-120123122D01*
X297494970Y-120249085D01*
X297655290Y-120409405D01*
X297744165Y-120542416D01*
X297781254Y-120597924D01*
X297791589Y-120622875D01*
X297862517Y-120794110D01*
X297868018Y-120807392D01*
X297912250Y-121029760D01*
X297912250Y-121256490D01*
X297902870Y-121303648D01*
X297868018Y-121478859D01*
X297781253Y-121688328D01*
X297655290Y-121876845D01*
X297494970Y-122037165D01*
X297306453Y-122163128D01*
X297096984Y-122249893D01*
X296985799Y-122272009D01*
X296874615Y-122294125D01*
X296647885Y-122294125D01*
X296536701Y-122272009D01*
X296425516Y-122249893D01*
X296216047Y-122163128D01*
X296027530Y-122037165D01*
X295867210Y-121876845D01*
X295741247Y-121688328D01*
X295654482Y-121478859D01*
X295619630Y-121303648D01*
X295610250Y-121256490D01*
X295610250Y-121029760D01*
X295654482Y-120807392D01*
X295659984Y-120794110D01*
X295730911Y-120622875D01*
X295741246Y-120597924D01*
X295778335Y-120542416D01*
X295867210Y-120409405D01*
X296027530Y-120249085D01*
X296216047Y-120123122D01*
X296270838Y-120100427D01*
X296316599Y-120081472D01*
X296425516Y-120036357D01*
X296579147Y-120005798D01*
X296647885Y-119992125D01*
X296874615Y-119992125D01*
X296943353Y-120005798D01*
X296943353Y-120005798D01*
G37*
G36*
X76674460Y-120423776D02*
G01*
X76702786Y-120432369D01*
X76728892Y-120446323D01*
X76751774Y-120465102D01*
X76753730Y-120467485D01*
X76754970Y-120468503D01*
X76765702Y-120479235D01*
X76786077Y-120492849D01*
X76808716Y-120502226D01*
X76832749Y-120507006D01*
X76857253Y-120507006D01*
X76881286Y-120502225D01*
X76903925Y-120492848D01*
X76924299Y-120479234D01*
X76935030Y-120468503D01*
X76936270Y-120467485D01*
X76938226Y-120465102D01*
X76961108Y-120446323D01*
X76987214Y-120432369D01*
X77015540Y-120423776D01*
X77044999Y-120420875D01*
X77045001Y-120420875D01*
X77074460Y-120423776D01*
X77102786Y-120432369D01*
X77128892Y-120446323D01*
X77151774Y-120465102D01*
X77153730Y-120467485D01*
X77154970Y-120468503D01*
X77165702Y-120479235D01*
X77186077Y-120492849D01*
X77208716Y-120502226D01*
X77232749Y-120507006D01*
X77257253Y-120507006D01*
X77281286Y-120502225D01*
X77303925Y-120492848D01*
X77324299Y-120479234D01*
X77335030Y-120468503D01*
X77336270Y-120467485D01*
X77338226Y-120465102D01*
X77361108Y-120446323D01*
X77387214Y-120432369D01*
X77415540Y-120423776D01*
X77444999Y-120420875D01*
X77445001Y-120420875D01*
X77474460Y-120423776D01*
X77502786Y-120432369D01*
X77528892Y-120446323D01*
X77551774Y-120465102D01*
X77553730Y-120467485D01*
X77554970Y-120468503D01*
X77565702Y-120479235D01*
X77586077Y-120492849D01*
X77608716Y-120502226D01*
X77632749Y-120507006D01*
X77657253Y-120507006D01*
X77681286Y-120502225D01*
X77703925Y-120492848D01*
X77724299Y-120479234D01*
X77735030Y-120468503D01*
X77736270Y-120467485D01*
X77738226Y-120465102D01*
X77761108Y-120446323D01*
X77787214Y-120432369D01*
X77815540Y-120423776D01*
X77844999Y-120420875D01*
X77845001Y-120420875D01*
X77874460Y-120423776D01*
X77902786Y-120432369D01*
X77928892Y-120446323D01*
X77951774Y-120465102D01*
X77953730Y-120467485D01*
X77954970Y-120468503D01*
X77965702Y-120479235D01*
X77986077Y-120492849D01*
X78008716Y-120502226D01*
X78032749Y-120507006D01*
X78057253Y-120507006D01*
X78081286Y-120502225D01*
X78103925Y-120492848D01*
X78124299Y-120479234D01*
X78135030Y-120468503D01*
X78136270Y-120467485D01*
X78138226Y-120465102D01*
X78161108Y-120446323D01*
X78187214Y-120432369D01*
X78215540Y-120423776D01*
X78244999Y-120420875D01*
X78245001Y-120420875D01*
X78274460Y-120423776D01*
X78302786Y-120432369D01*
X78328892Y-120446323D01*
X78351774Y-120465102D01*
X78353730Y-120467485D01*
X78354970Y-120468503D01*
X78365702Y-120479235D01*
X78386077Y-120492849D01*
X78408716Y-120502226D01*
X78432749Y-120507006D01*
X78457253Y-120507006D01*
X78481286Y-120502225D01*
X78503925Y-120492848D01*
X78524299Y-120479234D01*
X78535030Y-120468503D01*
X78536270Y-120467485D01*
X78538226Y-120465102D01*
X78561108Y-120446323D01*
X78587214Y-120432369D01*
X78615540Y-120423776D01*
X78644999Y-120420875D01*
X78645001Y-120420875D01*
X78674460Y-120423776D01*
X78702786Y-120432369D01*
X78728892Y-120446323D01*
X78751774Y-120465102D01*
X78753730Y-120467485D01*
X78754970Y-120468503D01*
X78765702Y-120479235D01*
X78786077Y-120492849D01*
X78808716Y-120502226D01*
X78832749Y-120507006D01*
X78857253Y-120507006D01*
X78881286Y-120502225D01*
X78903925Y-120492848D01*
X78924299Y-120479234D01*
X78935030Y-120468503D01*
X78936270Y-120467485D01*
X78938226Y-120465102D01*
X78961108Y-120446323D01*
X78987214Y-120432369D01*
X79015540Y-120423776D01*
X79044999Y-120420875D01*
X79045001Y-120420875D01*
X79074460Y-120423776D01*
X79102786Y-120432369D01*
X79128892Y-120446323D01*
X79151774Y-120465102D01*
X79170553Y-120487984D01*
X79184507Y-120514090D01*
X79193100Y-120542416D01*
X79196001Y-120571875D01*
X79196001Y-121196875D01*
X79193100Y-121226334D01*
X79184507Y-121254660D01*
X79170553Y-121280766D01*
X79151774Y-121303648D01*
X79128892Y-121322427D01*
X79102786Y-121336381D01*
X79074460Y-121344974D01*
X79045001Y-121347875D01*
X79044999Y-121347875D01*
X79015540Y-121344974D01*
X78987214Y-121336381D01*
X78961108Y-121322427D01*
X78938226Y-121303648D01*
X78936270Y-121301265D01*
X78935030Y-121300247D01*
X78924298Y-121289515D01*
X78903923Y-121275901D01*
X78881284Y-121266524D01*
X78857251Y-121261744D01*
X78832747Y-121261744D01*
X78808714Y-121266525D01*
X78786075Y-121275902D01*
X78765701Y-121289516D01*
X78754970Y-121300247D01*
X78753730Y-121301265D01*
X78751774Y-121303648D01*
X78728892Y-121322427D01*
X78702786Y-121336381D01*
X78674460Y-121344974D01*
X78645001Y-121347875D01*
X78644999Y-121347875D01*
X78615540Y-121344974D01*
X78587214Y-121336381D01*
X78561108Y-121322427D01*
X78538226Y-121303648D01*
X78536270Y-121301265D01*
X78535030Y-121300247D01*
X78524298Y-121289515D01*
X78503923Y-121275901D01*
X78481284Y-121266524D01*
X78457251Y-121261744D01*
X78432747Y-121261744D01*
X78408714Y-121266525D01*
X78386075Y-121275902D01*
X78365701Y-121289516D01*
X78354970Y-121300247D01*
X78353730Y-121301265D01*
X78351774Y-121303648D01*
X78328892Y-121322427D01*
X78302786Y-121336381D01*
X78274460Y-121344974D01*
X78245001Y-121347875D01*
X78244999Y-121347875D01*
X78215540Y-121344974D01*
X78187214Y-121336381D01*
X78161108Y-121322427D01*
X78138226Y-121303648D01*
X78136270Y-121301265D01*
X78135030Y-121300247D01*
X78124298Y-121289515D01*
X78103923Y-121275901D01*
X78081284Y-121266524D01*
X78057251Y-121261744D01*
X78032747Y-121261744D01*
X78008714Y-121266525D01*
X77986075Y-121275902D01*
X77965701Y-121289516D01*
X77954970Y-121300247D01*
X77953730Y-121301265D01*
X77951774Y-121303648D01*
X77928892Y-121322427D01*
X77902786Y-121336381D01*
X77874460Y-121344974D01*
X77845001Y-121347875D01*
X77844999Y-121347875D01*
X77815540Y-121344974D01*
X77787214Y-121336381D01*
X77761108Y-121322427D01*
X77738226Y-121303648D01*
X77736270Y-121301265D01*
X77735030Y-121300247D01*
X77724298Y-121289515D01*
X77703923Y-121275901D01*
X77681284Y-121266524D01*
X77657251Y-121261744D01*
X77632747Y-121261744D01*
X77608714Y-121266525D01*
X77586075Y-121275902D01*
X77565701Y-121289516D01*
X77554970Y-121300247D01*
X77553730Y-121301265D01*
X77551774Y-121303648D01*
X77528892Y-121322427D01*
X77502786Y-121336381D01*
X77474460Y-121344974D01*
X77445001Y-121347875D01*
X77444999Y-121347875D01*
X77415540Y-121344974D01*
X77387214Y-121336381D01*
X77361108Y-121322427D01*
X77338226Y-121303648D01*
X77336270Y-121301265D01*
X77335030Y-121300247D01*
X77324298Y-121289515D01*
X77303923Y-121275901D01*
X77281284Y-121266524D01*
X77257251Y-121261744D01*
X77232747Y-121261744D01*
X77208714Y-121266525D01*
X77186075Y-121275902D01*
X77165701Y-121289516D01*
X77154970Y-121300247D01*
X77153730Y-121301265D01*
X77151774Y-121303648D01*
X77128892Y-121322427D01*
X77102786Y-121336381D01*
X77074460Y-121344974D01*
X77045001Y-121347875D01*
X77044999Y-121347875D01*
X77015540Y-121344974D01*
X76987214Y-121336381D01*
X76961108Y-121322427D01*
X76938226Y-121303648D01*
X76936270Y-121301265D01*
X76935030Y-121300247D01*
X76924298Y-121289515D01*
X76903923Y-121275901D01*
X76881284Y-121266524D01*
X76857251Y-121261744D01*
X76832747Y-121261744D01*
X76808714Y-121266525D01*
X76786075Y-121275902D01*
X76765701Y-121289516D01*
X76754970Y-121300247D01*
X76753730Y-121301265D01*
X76751774Y-121303648D01*
X76728892Y-121322427D01*
X76702786Y-121336381D01*
X76674460Y-121344974D01*
X76645001Y-121347875D01*
X76644999Y-121347875D01*
X76615540Y-121344974D01*
X76587214Y-121336381D01*
X76561108Y-121322427D01*
X76538226Y-121303648D01*
X76519447Y-121280766D01*
X76505493Y-121254660D01*
X76496900Y-121226334D01*
X76493999Y-121196875D01*
X76493999Y-120571875D01*
X76496900Y-120542416D01*
X76505493Y-120514090D01*
X76519447Y-120487984D01*
X76521403Y-120485601D01*
X76523436Y-120481797D01*
X76532813Y-120459158D01*
X76533013Y-120458150D01*
X76554923Y-120450311D01*
X76558725Y-120448279D01*
X76561108Y-120446323D01*
X76587214Y-120432369D01*
X76615540Y-120423776D01*
X76644999Y-120420875D01*
X76645001Y-120420875D01*
X76674460Y-120423776D01*
X76674460Y-120423776D01*
G37*
G36*
X143833250Y-120674125D02*
G01*
X141731250Y-120674125D01*
X141731250Y-118172125D01*
X143833250Y-118172125D01*
X143833250Y-120674125D01*
X143833250Y-120674125D01*
G37*
G36*
X139760460Y-118181614D02*
G01*
X139847200Y-118207927D01*
X139927139Y-118250655D01*
X139997212Y-118308163D01*
X140054720Y-118378236D01*
X140097448Y-118458175D01*
X140123761Y-118544915D01*
X140133250Y-118641265D01*
X140133250Y-120204985D01*
X140123761Y-120301335D01*
X140097448Y-120388075D01*
X140054720Y-120468014D01*
X139997212Y-120538087D01*
X139927139Y-120595595D01*
X139847200Y-120638323D01*
X139760460Y-120664636D01*
X139664110Y-120674125D01*
X138500390Y-120674125D01*
X138404040Y-120664636D01*
X138317300Y-120638323D01*
X138237361Y-120595595D01*
X138167288Y-120538087D01*
X138109780Y-120468014D01*
X138067052Y-120388075D01*
X138040739Y-120301335D01*
X138031250Y-120204985D01*
X138031250Y-118641265D01*
X138040739Y-118544915D01*
X138067052Y-118458175D01*
X138109780Y-118378236D01*
X138167288Y-118308163D01*
X138237361Y-118250655D01*
X138317300Y-118207927D01*
X138404040Y-118181614D01*
X138500390Y-118172125D01*
X139664110Y-118172125D01*
X139760460Y-118181614D01*
X139760460Y-118181614D01*
G37*
G36*
X276907999Y-117446922D02*
G01*
X277021696Y-117458120D01*
X277295210Y-117541090D01*
X277295213Y-117541091D01*
X277547278Y-117675823D01*
X277547279Y-117675824D01*
X277547283Y-117675826D01*
X277768226Y-117857149D01*
X277949549Y-118078092D01*
X277949551Y-118078096D01*
X277949552Y-118078097D01*
X278084284Y-118330162D01*
X278084285Y-118330165D01*
X278167255Y-118603679D01*
X278195270Y-118888125D01*
X278167255Y-119172571D01*
X278090169Y-119426689D01*
X278084284Y-119446088D01*
X277949552Y-119698153D01*
X277949549Y-119698158D01*
X277768226Y-119919101D01*
X277547283Y-120100424D01*
X277547279Y-120100426D01*
X277547278Y-120100427D01*
X277295213Y-120235159D01*
X277295210Y-120235160D01*
X277021696Y-120318130D01*
X276915111Y-120328627D01*
X276808528Y-120339125D01*
X275565972Y-120339125D01*
X275459389Y-120328627D01*
X275352804Y-120318130D01*
X275079290Y-120235160D01*
X275079287Y-120235159D01*
X274827222Y-120100427D01*
X274827221Y-120100426D01*
X274827217Y-120100424D01*
X274606274Y-119919101D01*
X274424951Y-119698158D01*
X274424948Y-119698153D01*
X274290216Y-119446088D01*
X274284331Y-119426689D01*
X274207245Y-119172571D01*
X274179230Y-118888125D01*
X274207245Y-118603679D01*
X274290215Y-118330165D01*
X274290216Y-118330162D01*
X274424948Y-118078097D01*
X274424949Y-118078096D01*
X274424951Y-118078092D01*
X274606274Y-117857149D01*
X274827217Y-117675826D01*
X274827221Y-117675824D01*
X274827222Y-117675823D01*
X275079287Y-117541091D01*
X275079290Y-117541090D01*
X275352804Y-117458120D01*
X275466501Y-117446922D01*
X275565972Y-117437125D01*
X276808528Y-117437125D01*
X276907999Y-117446922D01*
X276907999Y-117446922D01*
G37*
G36*
X116534833Y-116032873D02*
G01*
X116674966Y-116060747D01*
X116880485Y-116145876D01*
X116995969Y-116193711D01*
X117070973Y-116224779D01*
X117289112Y-116370535D01*
X117427369Y-116462915D01*
X117730462Y-116766008D01*
X117804741Y-116877175D01*
X117820286Y-116896117D01*
X117839228Y-116911663D01*
X117860839Y-116923214D01*
X117884288Y-116930327D01*
X117908674Y-116932729D01*
X117933060Y-116930327D01*
X117966894Y-116918343D01*
X117972096Y-116915605D01*
X117975774Y-116913387D01*
X117978355Y-116912310D01*
X117978533Y-116912216D01*
X117979271Y-116911710D01*
X117980281Y-116911155D01*
X117980319Y-116911225D01*
X117982413Y-116909845D01*
X117986962Y-116907676D01*
X117989172Y-116906998D01*
X117989144Y-116906930D01*
X117990217Y-116906493D01*
X117991059Y-116906242D01*
X117991139Y-116906208D01*
X117991147Y-116906206D01*
X117991871Y-116905895D01*
X117992974Y-116905545D01*
X117993002Y-116905633D01*
X117995544Y-116904596D01*
X117999914Y-116903484D01*
X118002490Y-116903219D01*
X118002472Y-116903125D01*
X118003616Y-116902903D01*
X118004460Y-116902823D01*
X118004504Y-116902814D01*
X118004560Y-116902809D01*
X118005389Y-116902633D01*
X118006532Y-116902505D01*
X118006543Y-116902604D01*
X118011586Y-116901624D01*
X118017521Y-116901273D01*
X119187198Y-116901273D01*
X119195266Y-116901667D01*
X119203606Y-116903339D01*
X119204993Y-116903609D01*
X119210714Y-116904689D01*
X119215942Y-116906860D01*
X119217382Y-116907447D01*
X119222891Y-116909655D01*
X119224686Y-116910840D01*
X119224947Y-116910976D01*
X119225068Y-116911056D01*
X119225097Y-116911071D01*
X119230685Y-116914759D01*
X119233572Y-116916662D01*
X119233584Y-116916672D01*
X119233704Y-116916751D01*
X119233960Y-116916960D01*
X119234068Y-116917031D01*
X119234134Y-116917074D01*
X119235627Y-116918058D01*
X119239160Y-116921579D01*
X119240126Y-116922531D01*
X119245016Y-116927300D01*
X119248823Y-116932955D01*
X119249436Y-116933858D01*
X119252844Y-116938827D01*
X119256110Y-116946575D01*
X119257522Y-116949881D01*
X119257544Y-116949951D01*
X119257541Y-116949952D01*
X119258287Y-116951700D01*
X119258643Y-116953415D01*
X119258666Y-116953488D01*
X119258704Y-116953670D01*
X119258709Y-116953668D01*
X119258731Y-116953738D01*
X119260279Y-116961198D01*
X119260774Y-116963562D01*
X119260777Y-116963595D01*
X119260809Y-116963750D01*
X119260831Y-116963962D01*
X119261175Y-116965619D01*
X119261217Y-116965823D01*
X119261598Y-116967646D01*
X119261358Y-116970189D01*
X119261493Y-116972449D01*
X119261494Y-116972578D01*
X119261316Y-116972579D01*
X119261319Y-116972602D01*
X119261494Y-116972601D01*
X119261495Y-116972731D01*
X119261497Y-116973125D01*
X119261497Y-116974414D01*
X119262102Y-116980556D01*
X119262102Y-117730085D01*
X119261750Y-117737299D01*
X119260889Y-117741696D01*
X119260901Y-117741697D01*
X119260892Y-117741793D01*
X119260036Y-117746164D01*
X119259048Y-117751358D01*
X119259019Y-117751456D01*
X119259009Y-117751453D01*
X119258566Y-117753784D01*
X119256322Y-117759210D01*
X119255745Y-117760629D01*
X119253577Y-117766057D01*
X119252268Y-117768033D01*
X119252271Y-117768035D01*
X119252224Y-117768124D01*
X119249450Y-117772311D01*
X119246933Y-117776167D01*
X119246871Y-117776244D01*
X119246867Y-117776241D01*
X119245499Y-117778336D01*
X119241402Y-117782443D01*
X119240148Y-117783719D01*
X119236432Y-117787553D01*
X119234360Y-117788958D01*
X119234369Y-117788968D01*
X119234290Y-117789034D01*
X119230185Y-117791818D01*
X119226212Y-117794543D01*
X119226128Y-117794589D01*
X119226121Y-117794576D01*
X119224308Y-117795819D01*
X119222446Y-117796603D01*
X119222426Y-117796614D01*
X119219051Y-117798035D01*
X119218324Y-117798345D01*
X119211658Y-117801223D01*
X119204471Y-117802698D01*
X119203268Y-117802951D01*
X119196125Y-117804490D01*
X119188236Y-117804983D01*
X118340884Y-117807456D01*
X118316505Y-117809928D01*
X118293077Y-117817110D01*
X118271500Y-117828724D01*
X118252604Y-117844325D01*
X118237114Y-117863312D01*
X118225626Y-117884956D01*
X118218581Y-117908426D01*
X118216250Y-117932454D01*
X118216250Y-118351274D01*
X118218652Y-118375660D01*
X118225765Y-118399109D01*
X118237316Y-118420720D01*
X118252861Y-118439662D01*
X118271803Y-118455207D01*
X118293414Y-118466758D01*
X118316863Y-118473871D01*
X118341249Y-118476273D01*
X118790020Y-118476273D01*
X118790255Y-118476274D01*
X118790329Y-118476274D01*
X118790916Y-118476276D01*
X118793322Y-118476293D01*
X118806551Y-118477032D01*
X118878960Y-118485154D01*
X118888683Y-118486728D01*
X118898629Y-118489239D01*
X118968168Y-118511298D01*
X118977364Y-118514718D01*
X118986817Y-118519206D01*
X119050575Y-118554257D01*
X119058942Y-118559406D01*
X119067458Y-118565736D01*
X119123103Y-118612428D01*
X119129262Y-118618131D01*
X119130477Y-118620032D01*
X119131415Y-118620964D01*
X119135098Y-118625036D01*
X119135313Y-118625301D01*
X119134979Y-118625572D01*
X119135125Y-118625763D01*
X119135465Y-118625490D01*
X119140889Y-118632236D01*
X119146534Y-118638291D01*
X119182941Y-118683571D01*
X119188684Y-118691476D01*
X119194210Y-118700691D01*
X119227819Y-118764980D01*
X119231944Y-118773905D01*
X119235496Y-118783779D01*
X119256029Y-118853544D01*
X119258325Y-118863033D01*
X119259934Y-118873780D01*
X119266498Y-118945911D01*
X119266906Y-118955671D01*
X119266400Y-118966529D01*
X119258830Y-119038550D01*
X119257328Y-119048262D01*
X119254819Y-119058467D01*
X119233313Y-119127941D01*
X119229954Y-119137165D01*
X119225490Y-119146733D01*
X119190928Y-119210655D01*
X119185826Y-119219081D01*
X119179658Y-119227509D01*
X119133261Y-119283594D01*
X119126655Y-119290828D01*
X119118822Y-119298023D01*
X119062559Y-119343910D01*
X119054628Y-119349755D01*
X119045723Y-119355193D01*
X118981457Y-119389364D01*
X118972549Y-119393555D01*
X118962714Y-119397173D01*
X118893086Y-119418195D01*
X118883566Y-119420568D01*
X118873044Y-119422228D01*
X118800804Y-119429312D01*
X118791716Y-119429756D01*
X118790489Y-119429822D01*
X118787853Y-119429977D01*
X118018310Y-119429956D01*
X118010009Y-119429550D01*
X117993179Y-119426218D01*
X117979391Y-119420535D01*
X117966246Y-119411799D01*
X117944607Y-119400301D01*
X117921140Y-119393247D01*
X117896748Y-119390905D01*
X117872368Y-119393368D01*
X117848937Y-119400539D01*
X117827355Y-119412144D01*
X117808452Y-119427736D01*
X117793126Y-119446458D01*
X117734215Y-119534624D01*
X117730460Y-119540244D01*
X117427369Y-119843335D01*
X117070973Y-120081471D01*
X117070972Y-120081472D01*
X117070971Y-120081472D01*
X117016888Y-120103874D01*
X116674966Y-120245503D01*
X116547411Y-120270875D01*
X116254569Y-120329125D01*
X115825931Y-120329125D01*
X115533089Y-120270875D01*
X115405534Y-120245503D01*
X115063612Y-120103874D01*
X115009529Y-120081472D01*
X115009528Y-120081472D01*
X115009527Y-120081471D01*
X114653131Y-119843335D01*
X114350038Y-119540242D01*
X114275759Y-119429075D01*
X114260214Y-119410133D01*
X114241272Y-119394587D01*
X114219661Y-119383036D01*
X114196212Y-119375923D01*
X114171826Y-119373521D01*
X114147440Y-119375923D01*
X114113606Y-119387907D01*
X114108404Y-119390645D01*
X114104726Y-119392863D01*
X114102145Y-119393940D01*
X114101968Y-119394033D01*
X114101229Y-119394540D01*
X114100219Y-119395095D01*
X114100181Y-119395025D01*
X114098087Y-119396405D01*
X114093538Y-119398574D01*
X114091328Y-119399252D01*
X114091356Y-119399320D01*
X114090283Y-119399757D01*
X114089441Y-119400008D01*
X114089361Y-119400042D01*
X114089353Y-119400044D01*
X114088629Y-119400355D01*
X114087526Y-119400705D01*
X114087498Y-119400617D01*
X114084956Y-119401654D01*
X114080586Y-119402766D01*
X114078010Y-119403031D01*
X114078028Y-119403125D01*
X114076884Y-119403347D01*
X114076040Y-119403427D01*
X114075996Y-119403436D01*
X114075940Y-119403441D01*
X114075111Y-119403617D01*
X114073968Y-119403745D01*
X114073957Y-119403646D01*
X114068914Y-119404626D01*
X114062979Y-119404977D01*
X112893302Y-119404977D01*
X112885234Y-119404583D01*
X112876894Y-119402911D01*
X112875507Y-119402641D01*
X112869786Y-119401561D01*
X112864558Y-119399390D01*
X112863118Y-119398803D01*
X112857609Y-119396595D01*
X112855814Y-119395410D01*
X112855553Y-119395274D01*
X112855432Y-119395194D01*
X112855403Y-119395179D01*
X112849700Y-119391416D01*
X112846928Y-119389588D01*
X112846916Y-119389578D01*
X112846796Y-119389499D01*
X112846540Y-119389290D01*
X112846432Y-119389219D01*
X112846366Y-119389176D01*
X112844873Y-119388192D01*
X112841340Y-119384671D01*
X112840374Y-119383719D01*
X112835484Y-119378950D01*
X112831677Y-119373295D01*
X112831064Y-119372392D01*
X112827656Y-119367423D01*
X112824413Y-119359730D01*
X112822978Y-119356369D01*
X112822956Y-119356299D01*
X112822959Y-119356298D01*
X112822213Y-119354550D01*
X112821857Y-119352835D01*
X112821834Y-119352762D01*
X112821796Y-119352580D01*
X112821791Y-119352582D01*
X112821769Y-119352512D01*
X112820204Y-119344974D01*
X112819726Y-119342688D01*
X112819722Y-119342648D01*
X112819691Y-119342500D01*
X112819669Y-119342287D01*
X112819325Y-119340631D01*
X112819283Y-119340427D01*
X112818902Y-119338604D01*
X112819142Y-119336059D01*
X112819007Y-119333801D01*
X112819006Y-119333672D01*
X112819184Y-119333671D01*
X112819181Y-119333648D01*
X112819006Y-119333649D01*
X112819005Y-119333519D01*
X112819003Y-119333125D01*
X112819003Y-119331836D01*
X112818398Y-119325694D01*
X112818398Y-118576165D01*
X112818750Y-118568951D01*
X112819611Y-118564554D01*
X112819599Y-118564553D01*
X112819608Y-118564457D01*
X112820464Y-118560086D01*
X112821452Y-118554892D01*
X112821481Y-118554794D01*
X112821491Y-118554797D01*
X112821934Y-118552466D01*
X112824178Y-118547040D01*
X112824755Y-118545621D01*
X112826923Y-118540193D01*
X112828232Y-118538217D01*
X112828229Y-118538215D01*
X112828276Y-118538126D01*
X112831050Y-118533939D01*
X112833567Y-118530083D01*
X112833629Y-118530006D01*
X112833633Y-118530009D01*
X112835001Y-118527914D01*
X112839098Y-118523807D01*
X112840352Y-118522531D01*
X112844068Y-118518697D01*
X112846140Y-118517292D01*
X112846131Y-118517282D01*
X112846210Y-118517216D01*
X112850315Y-118514432D01*
X112854288Y-118511707D01*
X112854372Y-118511661D01*
X112854379Y-118511674D01*
X112856192Y-118510431D01*
X112858054Y-118509647D01*
X112858074Y-118509636D01*
X112861449Y-118508215D01*
X112862176Y-118507905D01*
X112868842Y-118505027D01*
X112876029Y-118503552D01*
X112877232Y-118503299D01*
X112884375Y-118501760D01*
X112892264Y-118501267D01*
X113739616Y-118498794D01*
X113763995Y-118496322D01*
X113787423Y-118489140D01*
X113809000Y-118477526D01*
X113827896Y-118461925D01*
X113843386Y-118442938D01*
X113854874Y-118421294D01*
X113861919Y-118397824D01*
X113864250Y-118373796D01*
X113864250Y-117932454D01*
X113861848Y-117908068D01*
X113854735Y-117884619D01*
X113843184Y-117863008D01*
X113827639Y-117844066D01*
X113808697Y-117828521D01*
X113787086Y-117816970D01*
X113763637Y-117809857D01*
X113739616Y-117807456D01*
X112893102Y-117804986D01*
X112885544Y-117804595D01*
X112881214Y-117803727D01*
X112881208Y-117803726D01*
X112877817Y-117803045D01*
X112876731Y-117802832D01*
X112869723Y-117801493D01*
X112863836Y-117799046D01*
X112862683Y-117798573D01*
X112856740Y-117796172D01*
X112851736Y-117792818D01*
X112850466Y-117791978D01*
X112845149Y-117788508D01*
X112841257Y-117784604D01*
X112839985Y-117783346D01*
X112835356Y-117778835D01*
X112832280Y-117774229D01*
X112831312Y-117772801D01*
X112827571Y-117767364D01*
X112825218Y-117761710D01*
X112824651Y-117760370D01*
X112822204Y-117754677D01*
X112821732Y-117752363D01*
X112821728Y-117752364D01*
X112821697Y-117752264D01*
X112820573Y-117746757D01*
X112819734Y-117742762D01*
X112819724Y-117742669D01*
X112819737Y-117742667D01*
X112818858Y-117738482D01*
X112818663Y-117735151D01*
X112819003Y-117730974D01*
X112819003Y-117730055D01*
X112818994Y-117729730D01*
X112818398Y-117725020D01*
X112818398Y-116976177D01*
X112818792Y-116968109D01*
X112820464Y-116959769D01*
X112820734Y-116958382D01*
X112821814Y-116952661D01*
X112823985Y-116947433D01*
X112824572Y-116945993D01*
X112826780Y-116940484D01*
X112827965Y-116938689D01*
X112828101Y-116938428D01*
X112828181Y-116938307D01*
X112828196Y-116938278D01*
X112831959Y-116932575D01*
X112833787Y-116929803D01*
X112833797Y-116929791D01*
X112833876Y-116929671D01*
X112834085Y-116929415D01*
X112834156Y-116929307D01*
X112834199Y-116929241D01*
X112835183Y-116927748D01*
X112838704Y-116924215D01*
X112839656Y-116923249D01*
X112844425Y-116918359D01*
X112850080Y-116914552D01*
X112850983Y-116913939D01*
X112855946Y-116910534D01*
X112858063Y-116909642D01*
X112858067Y-116909640D01*
X112863277Y-116907445D01*
X112867006Y-116905853D01*
X112867076Y-116905831D01*
X112867077Y-116905834D01*
X112868822Y-116905089D01*
X112870532Y-116904734D01*
X112870599Y-116904713D01*
X112870795Y-116904672D01*
X112870793Y-116904666D01*
X112870863Y-116904644D01*
X112878462Y-116903067D01*
X112880687Y-116902601D01*
X112880727Y-116902597D01*
X112880875Y-116902566D01*
X112881097Y-116902543D01*
X112883496Y-116902045D01*
X112883727Y-116901997D01*
X112884777Y-116901777D01*
X112887317Y-116902017D01*
X112889574Y-116901882D01*
X112889703Y-116901881D01*
X112889704Y-116902059D01*
X112889727Y-116902056D01*
X112889726Y-116901881D01*
X112889856Y-116901880D01*
X112890250Y-116901878D01*
X112891539Y-116901878D01*
X112897681Y-116901273D01*
X114062211Y-116901273D01*
X114068633Y-116901585D01*
X114072941Y-116902387D01*
X114074122Y-116902502D01*
X114074702Y-116902616D01*
X114074723Y-116902618D01*
X114074807Y-116902635D01*
X114075454Y-116902683D01*
X114076607Y-116902882D01*
X114078463Y-116903063D01*
X114085019Y-116904614D01*
X114086648Y-116905263D01*
X114087671Y-116905571D01*
X114088278Y-116905822D01*
X114088305Y-116905829D01*
X114088323Y-116905836D01*
X114088958Y-116906011D01*
X114090091Y-116906447D01*
X114091870Y-116906983D01*
X114097959Y-116909760D01*
X114099443Y-116910722D01*
X114100384Y-116911222D01*
X114100900Y-116911564D01*
X114100955Y-116911592D01*
X114100992Y-116911617D01*
X114101533Y-116911888D01*
X114102574Y-116912544D01*
X114102572Y-116912547D01*
X114123328Y-116923566D01*
X114146797Y-116930612D01*
X114171190Y-116932943D01*
X114174360Y-116932622D01*
X114175161Y-116932679D01*
X114180901Y-116931959D01*
X114195569Y-116930472D01*
X114197524Y-116929873D01*
X114199475Y-116929628D01*
X114212919Y-116925155D01*
X114218998Y-116923292D01*
X114219775Y-116922874D01*
X114222726Y-116921892D01*
X114244021Y-116909769D01*
X114262542Y-116893725D01*
X114275763Y-116877169D01*
X114350038Y-116766008D01*
X114653131Y-116462915D01*
X114791388Y-116370535D01*
X115009527Y-116224779D01*
X115084532Y-116193711D01*
X115200015Y-116145876D01*
X115405534Y-116060747D01*
X115545667Y-116032873D01*
X115825931Y-115977125D01*
X116254569Y-115977125D01*
X116534833Y-116032873D01*
X116534833Y-116032873D01*
G37*
G36*
X80124459Y-117598775D02*
G01*
X80152785Y-117607368D01*
X80178891Y-117621322D01*
X80201773Y-117640101D01*
X80220552Y-117662983D01*
X80234506Y-117689089D01*
X80243099Y-117717415D01*
X80246000Y-117746874D01*
X80246000Y-117746876D01*
X80243099Y-117776335D01*
X80234506Y-117804661D01*
X80220552Y-117830767D01*
X80201773Y-117853649D01*
X80199390Y-117855605D01*
X80198372Y-117856845D01*
X80187640Y-117867577D01*
X80174026Y-117887952D01*
X80164649Y-117910591D01*
X80159869Y-117934624D01*
X80159869Y-117959128D01*
X80164650Y-117983161D01*
X80174027Y-118005800D01*
X80187641Y-118026174D01*
X80198372Y-118036905D01*
X80199390Y-118038145D01*
X80201773Y-118040101D01*
X80220552Y-118062983D01*
X80234506Y-118089089D01*
X80243099Y-118117415D01*
X80246000Y-118146874D01*
X80246000Y-118146876D01*
X80243099Y-118176335D01*
X80234506Y-118204661D01*
X80220552Y-118230767D01*
X80201773Y-118253649D01*
X80199390Y-118255605D01*
X80198372Y-118256845D01*
X80187640Y-118267577D01*
X80174026Y-118287952D01*
X80164649Y-118310591D01*
X80159869Y-118334624D01*
X80159869Y-118359128D01*
X80164650Y-118383161D01*
X80174027Y-118405800D01*
X80187641Y-118426174D01*
X80198372Y-118436905D01*
X80199390Y-118438145D01*
X80201773Y-118440101D01*
X80220552Y-118462983D01*
X80234506Y-118489089D01*
X80243099Y-118517415D01*
X80246000Y-118546874D01*
X80246000Y-118546876D01*
X80243099Y-118576335D01*
X80234506Y-118604661D01*
X80220552Y-118630767D01*
X80201773Y-118653649D01*
X80199390Y-118655605D01*
X80198372Y-118656845D01*
X80187640Y-118667577D01*
X80174026Y-118687952D01*
X80164649Y-118710591D01*
X80159869Y-118734624D01*
X80159869Y-118759128D01*
X80164650Y-118783161D01*
X80174027Y-118805800D01*
X80187641Y-118826174D01*
X80198372Y-118836905D01*
X80199390Y-118838145D01*
X80201773Y-118840101D01*
X80220552Y-118862983D01*
X80234506Y-118889089D01*
X80243099Y-118917415D01*
X80246000Y-118946874D01*
X80246000Y-118946876D01*
X80243099Y-118976335D01*
X80234506Y-119004661D01*
X80220552Y-119030767D01*
X80201773Y-119053649D01*
X80199390Y-119055605D01*
X80198372Y-119056845D01*
X80187640Y-119067577D01*
X80174026Y-119087952D01*
X80164649Y-119110591D01*
X80159869Y-119134624D01*
X80159869Y-119159128D01*
X80164650Y-119183161D01*
X80174027Y-119205800D01*
X80187641Y-119226174D01*
X80198372Y-119236905D01*
X80199390Y-119238145D01*
X80201773Y-119240101D01*
X80220552Y-119262983D01*
X80234506Y-119289089D01*
X80243099Y-119317415D01*
X80246000Y-119346874D01*
X80246000Y-119346876D01*
X80243099Y-119376335D01*
X80234506Y-119404661D01*
X80220552Y-119430767D01*
X80201773Y-119453649D01*
X80199390Y-119455605D01*
X80198372Y-119456845D01*
X80187640Y-119467577D01*
X80174026Y-119487952D01*
X80164649Y-119510591D01*
X80159869Y-119534624D01*
X80159869Y-119559128D01*
X80164650Y-119583161D01*
X80174027Y-119605800D01*
X80187641Y-119626174D01*
X80198372Y-119636905D01*
X80199390Y-119638145D01*
X80201773Y-119640101D01*
X80220552Y-119662983D01*
X80234506Y-119689089D01*
X80243099Y-119717415D01*
X80246000Y-119746874D01*
X80246000Y-119746876D01*
X80243099Y-119776335D01*
X80234506Y-119804661D01*
X80220552Y-119830767D01*
X80201773Y-119853649D01*
X80199390Y-119855605D01*
X80198372Y-119856845D01*
X80187640Y-119867577D01*
X80174026Y-119887952D01*
X80164649Y-119910591D01*
X80159869Y-119934624D01*
X80159869Y-119959128D01*
X80164650Y-119983161D01*
X80174027Y-120005800D01*
X80187641Y-120026174D01*
X80198372Y-120036905D01*
X80199390Y-120038145D01*
X80201773Y-120040101D01*
X80220552Y-120062983D01*
X80234506Y-120089089D01*
X80243099Y-120117415D01*
X80246000Y-120146874D01*
X80246000Y-120146876D01*
X80243099Y-120176335D01*
X80234506Y-120204661D01*
X80220552Y-120230767D01*
X80201773Y-120253649D01*
X80178891Y-120272428D01*
X80152785Y-120286382D01*
X80124459Y-120294975D01*
X80095000Y-120297876D01*
X79470000Y-120297876D01*
X79440541Y-120294975D01*
X79412215Y-120286382D01*
X79386109Y-120272428D01*
X79363227Y-120253649D01*
X79344448Y-120230767D01*
X79330494Y-120204661D01*
X79321901Y-120176335D01*
X79319000Y-120146876D01*
X79319000Y-120146874D01*
X79321901Y-120117415D01*
X79330494Y-120089089D01*
X79344448Y-120062983D01*
X79363227Y-120040101D01*
X79365610Y-120038145D01*
X79366628Y-120036905D01*
X79377360Y-120026173D01*
X79390974Y-120005798D01*
X79400351Y-119983159D01*
X79405131Y-119959126D01*
X79405131Y-119934622D01*
X79400350Y-119910589D01*
X79390973Y-119887950D01*
X79377359Y-119867576D01*
X79366628Y-119856845D01*
X79365610Y-119855605D01*
X79363227Y-119853649D01*
X79344448Y-119830767D01*
X79330494Y-119804661D01*
X79321901Y-119776335D01*
X79319000Y-119746876D01*
X79319000Y-119746874D01*
X79321901Y-119717415D01*
X79330494Y-119689089D01*
X79344448Y-119662983D01*
X79363227Y-119640101D01*
X79365610Y-119638145D01*
X79366628Y-119636905D01*
X79377360Y-119626173D01*
X79390974Y-119605798D01*
X79400351Y-119583159D01*
X79405131Y-119559126D01*
X79405131Y-119534622D01*
X79400350Y-119510589D01*
X79390973Y-119487950D01*
X79377359Y-119467576D01*
X79366628Y-119456845D01*
X79365610Y-119455605D01*
X79363227Y-119453649D01*
X79344448Y-119430767D01*
X79330494Y-119404661D01*
X79321901Y-119376335D01*
X79319000Y-119346876D01*
X79319000Y-119346874D01*
X79321901Y-119317415D01*
X79330494Y-119289089D01*
X79344448Y-119262983D01*
X79363227Y-119240101D01*
X79365610Y-119238145D01*
X79366628Y-119236905D01*
X79377360Y-119226173D01*
X79390974Y-119205798D01*
X79400351Y-119183159D01*
X79405131Y-119159126D01*
X79405131Y-119134622D01*
X79400350Y-119110589D01*
X79390973Y-119087950D01*
X79377359Y-119067576D01*
X79366628Y-119056845D01*
X79365610Y-119055605D01*
X79363227Y-119053649D01*
X79344448Y-119030767D01*
X79330494Y-119004661D01*
X79321901Y-118976335D01*
X79319000Y-118946876D01*
X79319000Y-118946874D01*
X79321901Y-118917415D01*
X79330494Y-118889089D01*
X79344448Y-118862983D01*
X79363227Y-118840101D01*
X79365610Y-118838145D01*
X79366628Y-118836905D01*
X79377360Y-118826173D01*
X79390974Y-118805798D01*
X79400351Y-118783159D01*
X79405131Y-118759126D01*
X79405131Y-118734622D01*
X79400350Y-118710589D01*
X79390973Y-118687950D01*
X79377359Y-118667576D01*
X79366628Y-118656845D01*
X79365610Y-118655605D01*
X79363227Y-118653649D01*
X79344448Y-118630767D01*
X79330494Y-118604661D01*
X79321901Y-118576335D01*
X79319000Y-118546876D01*
X79319000Y-118546874D01*
X79321901Y-118517415D01*
X79330494Y-118489089D01*
X79344448Y-118462983D01*
X79363227Y-118440101D01*
X79365610Y-118438145D01*
X79366628Y-118436905D01*
X79377360Y-118426173D01*
X79390974Y-118405798D01*
X79400351Y-118383159D01*
X79405131Y-118359126D01*
X79405131Y-118334622D01*
X79400350Y-118310589D01*
X79390973Y-118287950D01*
X79377359Y-118267576D01*
X79366628Y-118256845D01*
X79365610Y-118255605D01*
X79363227Y-118253649D01*
X79344448Y-118230767D01*
X79330494Y-118204661D01*
X79321901Y-118176335D01*
X79319000Y-118146876D01*
X79319000Y-118146874D01*
X79321901Y-118117415D01*
X79330494Y-118089089D01*
X79344448Y-118062983D01*
X79363227Y-118040101D01*
X79365610Y-118038145D01*
X79366628Y-118036905D01*
X79377360Y-118026173D01*
X79390974Y-118005798D01*
X79400351Y-117983159D01*
X79405131Y-117959126D01*
X79405131Y-117934622D01*
X79400350Y-117910589D01*
X79390973Y-117887950D01*
X79377359Y-117867576D01*
X79366628Y-117856845D01*
X79365610Y-117855605D01*
X79363227Y-117853649D01*
X79344448Y-117830767D01*
X79330494Y-117804661D01*
X79321901Y-117776335D01*
X79319000Y-117746876D01*
X79319000Y-117746874D01*
X79321901Y-117717415D01*
X79330494Y-117689089D01*
X79344448Y-117662983D01*
X79363227Y-117640101D01*
X79386109Y-117621322D01*
X79412215Y-117607368D01*
X79440541Y-117598775D01*
X79470000Y-117595874D01*
X80095000Y-117595874D01*
X80124459Y-117598775D01*
X80124459Y-117598775D01*
G37*
G36*
X76249459Y-117598775D02*
G01*
X76277785Y-117607368D01*
X76303891Y-117621322D01*
X76326773Y-117640101D01*
X76345552Y-117662983D01*
X76359506Y-117689089D01*
X76368099Y-117717415D01*
X76371000Y-117746874D01*
X76371000Y-117746876D01*
X76368099Y-117776335D01*
X76359506Y-117804661D01*
X76345552Y-117830767D01*
X76326773Y-117853649D01*
X76324390Y-117855605D01*
X76323372Y-117856845D01*
X76312640Y-117867577D01*
X76299026Y-117887952D01*
X76289649Y-117910591D01*
X76284869Y-117934624D01*
X76284869Y-117959128D01*
X76289650Y-117983161D01*
X76299027Y-118005800D01*
X76312641Y-118026174D01*
X76323372Y-118036905D01*
X76324390Y-118038145D01*
X76326773Y-118040101D01*
X76345552Y-118062983D01*
X76359506Y-118089089D01*
X76368099Y-118117415D01*
X76371000Y-118146874D01*
X76371000Y-118146876D01*
X76368099Y-118176335D01*
X76359506Y-118204661D01*
X76345552Y-118230767D01*
X76326773Y-118253649D01*
X76324390Y-118255605D01*
X76323372Y-118256845D01*
X76312640Y-118267577D01*
X76299026Y-118287952D01*
X76289649Y-118310591D01*
X76284869Y-118334624D01*
X76284869Y-118359128D01*
X76289650Y-118383161D01*
X76299027Y-118405800D01*
X76312641Y-118426174D01*
X76323372Y-118436905D01*
X76324390Y-118438145D01*
X76326773Y-118440101D01*
X76345552Y-118462983D01*
X76359506Y-118489089D01*
X76368099Y-118517415D01*
X76371000Y-118546874D01*
X76371000Y-118546876D01*
X76368099Y-118576335D01*
X76359506Y-118604661D01*
X76345552Y-118630767D01*
X76326773Y-118653649D01*
X76324390Y-118655605D01*
X76323372Y-118656845D01*
X76312640Y-118667577D01*
X76299026Y-118687952D01*
X76289649Y-118710591D01*
X76284869Y-118734624D01*
X76284869Y-118759128D01*
X76289650Y-118783161D01*
X76299027Y-118805800D01*
X76312641Y-118826174D01*
X76323372Y-118836905D01*
X76324390Y-118838145D01*
X76326773Y-118840101D01*
X76345552Y-118862983D01*
X76359506Y-118889089D01*
X76368099Y-118917415D01*
X76371000Y-118946874D01*
X76371000Y-118946876D01*
X76368099Y-118976335D01*
X76359506Y-119004661D01*
X76345552Y-119030767D01*
X76326773Y-119053649D01*
X76324390Y-119055605D01*
X76323372Y-119056845D01*
X76312640Y-119067577D01*
X76299026Y-119087952D01*
X76289649Y-119110591D01*
X76284869Y-119134624D01*
X76284869Y-119159128D01*
X76289650Y-119183161D01*
X76299027Y-119205800D01*
X76312641Y-119226174D01*
X76323372Y-119236905D01*
X76324390Y-119238145D01*
X76326773Y-119240101D01*
X76345552Y-119262983D01*
X76359506Y-119289089D01*
X76368099Y-119317415D01*
X76371000Y-119346874D01*
X76371000Y-119346876D01*
X76368099Y-119376335D01*
X76359506Y-119404661D01*
X76345552Y-119430767D01*
X76326773Y-119453649D01*
X76324390Y-119455605D01*
X76323372Y-119456845D01*
X76312640Y-119467577D01*
X76299026Y-119487952D01*
X76289649Y-119510591D01*
X76284869Y-119534624D01*
X76284869Y-119559128D01*
X76289650Y-119583161D01*
X76299027Y-119605800D01*
X76312641Y-119626174D01*
X76323372Y-119636905D01*
X76324390Y-119638145D01*
X76326773Y-119640101D01*
X76345552Y-119662983D01*
X76359506Y-119689089D01*
X76368099Y-119717415D01*
X76371000Y-119746874D01*
X76371000Y-119746876D01*
X76368099Y-119776335D01*
X76359506Y-119804661D01*
X76352577Y-119817624D01*
X76345549Y-119834592D01*
X76340769Y-119858626D01*
X76340769Y-119883130D01*
X76345550Y-119907163D01*
X76354928Y-119929802D01*
X76368542Y-119950176D01*
X76371000Y-119952634D01*
X76371000Y-120297875D01*
X75444000Y-120297875D01*
X75444000Y-119952223D01*
X75453767Y-119940322D01*
X75465318Y-119918711D01*
X75472431Y-119895262D01*
X75474833Y-119870876D01*
X75472431Y-119846490D01*
X75461455Y-119815814D01*
X75455494Y-119804661D01*
X75446901Y-119776335D01*
X75444000Y-119746876D01*
X75444000Y-119746874D01*
X75446901Y-119717415D01*
X75455494Y-119689089D01*
X75469448Y-119662983D01*
X75488227Y-119640101D01*
X75490610Y-119638145D01*
X75491628Y-119636905D01*
X75502360Y-119626173D01*
X75515974Y-119605798D01*
X75525351Y-119583159D01*
X75530131Y-119559126D01*
X75530131Y-119534622D01*
X75525350Y-119510589D01*
X75515973Y-119487950D01*
X75502359Y-119467576D01*
X75491628Y-119456845D01*
X75490610Y-119455605D01*
X75488227Y-119453649D01*
X75469448Y-119430767D01*
X75455494Y-119404661D01*
X75446901Y-119376335D01*
X75444000Y-119346876D01*
X75444000Y-119346874D01*
X75446901Y-119317415D01*
X75455494Y-119289089D01*
X75469448Y-119262983D01*
X75488227Y-119240101D01*
X75490610Y-119238145D01*
X75491628Y-119236905D01*
X75502360Y-119226173D01*
X75515974Y-119205798D01*
X75525351Y-119183159D01*
X75530131Y-119159126D01*
X75530131Y-119134622D01*
X75525350Y-119110589D01*
X75515973Y-119087950D01*
X75502359Y-119067576D01*
X75491628Y-119056845D01*
X75490610Y-119055605D01*
X75488227Y-119053649D01*
X75469448Y-119030767D01*
X75455494Y-119004661D01*
X75446901Y-118976335D01*
X75444000Y-118946876D01*
X75444000Y-118946874D01*
X75446901Y-118917415D01*
X75455494Y-118889089D01*
X75469448Y-118862983D01*
X75488227Y-118840101D01*
X75490610Y-118838145D01*
X75491628Y-118836905D01*
X75502360Y-118826173D01*
X75515974Y-118805798D01*
X75525351Y-118783159D01*
X75530131Y-118759126D01*
X75530131Y-118734622D01*
X75525350Y-118710589D01*
X75515973Y-118687950D01*
X75502359Y-118667576D01*
X75491628Y-118656845D01*
X75490610Y-118655605D01*
X75488227Y-118653649D01*
X75469448Y-118630767D01*
X75455494Y-118604661D01*
X75446901Y-118576335D01*
X75444000Y-118546876D01*
X75444000Y-118546874D01*
X75446901Y-118517415D01*
X75455494Y-118489089D01*
X75469448Y-118462983D01*
X75488227Y-118440101D01*
X75490610Y-118438145D01*
X75491628Y-118436905D01*
X75502360Y-118426173D01*
X75515974Y-118405798D01*
X75525351Y-118383159D01*
X75530131Y-118359126D01*
X75530131Y-118334622D01*
X75525350Y-118310589D01*
X75515973Y-118287950D01*
X75502359Y-118267576D01*
X75491628Y-118256845D01*
X75490610Y-118255605D01*
X75488227Y-118253649D01*
X75469448Y-118230767D01*
X75455494Y-118204661D01*
X75446901Y-118176335D01*
X75444000Y-118146876D01*
X75444000Y-118146874D01*
X75446901Y-118117415D01*
X75455494Y-118089089D01*
X75469448Y-118062983D01*
X75488227Y-118040101D01*
X75490610Y-118038145D01*
X75491628Y-118036905D01*
X75502360Y-118026173D01*
X75515974Y-118005798D01*
X75525351Y-117983159D01*
X75530131Y-117959126D01*
X75530131Y-117934622D01*
X75525350Y-117910589D01*
X75515973Y-117887950D01*
X75502359Y-117867576D01*
X75491628Y-117856845D01*
X75490610Y-117855605D01*
X75488227Y-117853649D01*
X75469448Y-117830767D01*
X75455494Y-117804661D01*
X75446901Y-117776335D01*
X75444000Y-117746876D01*
X75444000Y-117746874D01*
X75446901Y-117717415D01*
X75455494Y-117689089D01*
X75469448Y-117662983D01*
X75488227Y-117640101D01*
X75511109Y-117621322D01*
X75537215Y-117607368D01*
X75565541Y-117598775D01*
X75595000Y-117595874D01*
X76220000Y-117595874D01*
X76249459Y-117598775D01*
X76249459Y-117598775D01*
G37*
G36*
X78914472Y-117749605D02*
G01*
X78944984Y-117758861D01*
X78973104Y-117773892D01*
X78997754Y-117794121D01*
X79017983Y-117818771D01*
X79033014Y-117846891D01*
X79042270Y-117877403D01*
X79046000Y-117915277D01*
X79046000Y-119978473D01*
X79042270Y-120016347D01*
X79033014Y-120046859D01*
X79017983Y-120074979D01*
X78997754Y-120099629D01*
X78973104Y-120119858D01*
X78944984Y-120134889D01*
X78914472Y-120144145D01*
X78876598Y-120147875D01*
X76813402Y-120147875D01*
X76775528Y-120144145D01*
X76745016Y-120134889D01*
X76716896Y-120119858D01*
X76692246Y-120099629D01*
X76672017Y-120074979D01*
X76656986Y-120046859D01*
X76647730Y-120016347D01*
X76644000Y-119978473D01*
X76644000Y-117915277D01*
X76647730Y-117877403D01*
X76656986Y-117846891D01*
X76672017Y-117818771D01*
X76692246Y-117794121D01*
X76716896Y-117773892D01*
X76745016Y-117758861D01*
X76775528Y-117749605D01*
X76813402Y-117745875D01*
X78876598Y-117745875D01*
X78914472Y-117749605D01*
X78914472Y-117749605D01*
G37*
G36*
X178455178Y-116453889D02*
G01*
X178476259Y-116460285D01*
X178495694Y-116470673D01*
X178515953Y-116487298D01*
X178536327Y-116500911D01*
X178558966Y-116510288D01*
X178583000Y-116515068D01*
X178607504Y-116515068D01*
X178631537Y-116510287D01*
X178654176Y-116500909D01*
X178674547Y-116487298D01*
X178694806Y-116470673D01*
X178714241Y-116460285D01*
X178735322Y-116453889D01*
X178763390Y-116451125D01*
X179227110Y-116451125D01*
X179255178Y-116453889D01*
X179276259Y-116460285D01*
X179295694Y-116470673D01*
X179320702Y-116491196D01*
X179341076Y-116504810D01*
X179363715Y-116514187D01*
X179387748Y-116518968D01*
X179412253Y-116518968D01*
X179436286Y-116514188D01*
X179458925Y-116504811D01*
X179479299Y-116491197D01*
X179496627Y-116473869D01*
X179505807Y-116462683D01*
X179511474Y-116458033D01*
X179517940Y-116454576D01*
X179524955Y-116452448D01*
X179538390Y-116451125D01*
X179852110Y-116451125D01*
X179865545Y-116452448D01*
X179872559Y-116454576D01*
X179886327Y-116461935D01*
X179908966Y-116471312D01*
X179932999Y-116476092D01*
X179957503Y-116476092D01*
X179981536Y-116471311D01*
X180004173Y-116461935D01*
X180017941Y-116454576D01*
X180024955Y-116452448D01*
X180038390Y-116451125D01*
X180352110Y-116451125D01*
X180365545Y-116452448D01*
X180372559Y-116454576D01*
X180386327Y-116461935D01*
X180408966Y-116471312D01*
X180432999Y-116476092D01*
X180457503Y-116476092D01*
X180481536Y-116471311D01*
X180504173Y-116461935D01*
X180517941Y-116454576D01*
X180524955Y-116452448D01*
X180538390Y-116451125D01*
X180852110Y-116451125D01*
X180865545Y-116452448D01*
X180872559Y-116454576D01*
X180886327Y-116461935D01*
X180908966Y-116471312D01*
X180932999Y-116476092D01*
X180957503Y-116476092D01*
X180981536Y-116471311D01*
X181004173Y-116461935D01*
X181017941Y-116454576D01*
X181024955Y-116452448D01*
X181038390Y-116451125D01*
X181352110Y-116451125D01*
X181365545Y-116452448D01*
X181372559Y-116454576D01*
X181388327Y-116463004D01*
X181410966Y-116472381D01*
X181434999Y-116477161D01*
X181459503Y-116477161D01*
X181483536Y-116472380D01*
X181506173Y-116463004D01*
X181521941Y-116454576D01*
X181528955Y-116452448D01*
X181542390Y-116451125D01*
X181856110Y-116451125D01*
X181869545Y-116452448D01*
X181876559Y-116454576D01*
X181888327Y-116460866D01*
X181910966Y-116470243D01*
X181934999Y-116475023D01*
X181959503Y-116475023D01*
X181983536Y-116470242D01*
X182006173Y-116460866D01*
X182017941Y-116454576D01*
X182024955Y-116452448D01*
X182038390Y-116451125D01*
X182352110Y-116451125D01*
X182365545Y-116452448D01*
X182372559Y-116454576D01*
X182386327Y-116461935D01*
X182408966Y-116471312D01*
X182432999Y-116476092D01*
X182457503Y-116476092D01*
X182481536Y-116471311D01*
X182504173Y-116461935D01*
X182517941Y-116454576D01*
X182524955Y-116452448D01*
X182538390Y-116451125D01*
X182852110Y-116451125D01*
X182865545Y-116452448D01*
X182872559Y-116454576D01*
X182886327Y-116461935D01*
X182908966Y-116471312D01*
X182932999Y-116476092D01*
X182957503Y-116476092D01*
X182981536Y-116471311D01*
X183004173Y-116461935D01*
X183017941Y-116454576D01*
X183024955Y-116452448D01*
X183038390Y-116451125D01*
X183352110Y-116451125D01*
X183365545Y-116452448D01*
X183372560Y-116454576D01*
X183379026Y-116458033D01*
X183384693Y-116462683D01*
X183393873Y-116473869D01*
X183411200Y-116491196D01*
X183431574Y-116504810D01*
X183454213Y-116514187D01*
X183478246Y-116518968D01*
X183502750Y-116518968D01*
X183526783Y-116514188D01*
X183549422Y-116504811D01*
X183569798Y-116491196D01*
X183594806Y-116470673D01*
X183614241Y-116460285D01*
X183635322Y-116453889D01*
X183663390Y-116451125D01*
X184127110Y-116451125D01*
X184155178Y-116453889D01*
X184176259Y-116460285D01*
X184195694Y-116470673D01*
X184215953Y-116487298D01*
X184236327Y-116500911D01*
X184258966Y-116510288D01*
X184283000Y-116515068D01*
X184307504Y-116515068D01*
X184331537Y-116510287D01*
X184354176Y-116500909D01*
X184374547Y-116487298D01*
X184394806Y-116470673D01*
X184414241Y-116460285D01*
X184435322Y-116453889D01*
X184463390Y-116451125D01*
X184927110Y-116451125D01*
X184955178Y-116453889D01*
X184976259Y-116460285D01*
X184995695Y-116470673D01*
X185012726Y-116484649D01*
X185026702Y-116501680D01*
X185037090Y-116521116D01*
X185043486Y-116542197D01*
X185046250Y-116570265D01*
X185046250Y-117053503D01*
X185048652Y-117077889D01*
X185055765Y-117101338D01*
X185067316Y-117122949D01*
X185082861Y-117141891D01*
X185101803Y-117157436D01*
X185123414Y-117168987D01*
X185146863Y-117176100D01*
X185171249Y-117178502D01*
X185195635Y-117176100D01*
X185219084Y-117168987D01*
X185240695Y-117157436D01*
X185259637Y-117141891D01*
X185275182Y-117122949D01*
X185276737Y-117120355D01*
X185348066Y-117033440D01*
X185433186Y-116963584D01*
X185530292Y-116911680D01*
X185530293Y-116911680D01*
X185530296Y-116911678D01*
X185635668Y-116879714D01*
X185635669Y-116879714D01*
X185635672Y-116879713D01*
X185745250Y-116868921D01*
X185854829Y-116879713D01*
X185854832Y-116879714D01*
X185854833Y-116879714D01*
X185960205Y-116911678D01*
X185960208Y-116911680D01*
X185960209Y-116911680D01*
X186057315Y-116963584D01*
X186142435Y-117033440D01*
X186212291Y-117118560D01*
X186264195Y-117215666D01*
X186264197Y-117215670D01*
X186280943Y-117270875D01*
X186296162Y-117321046D01*
X186304250Y-117403167D01*
X186304250Y-118601083D01*
X186296162Y-118683204D01*
X186296161Y-118683207D01*
X186296161Y-118683208D01*
X186264197Y-118788580D01*
X186264195Y-118788583D01*
X186264195Y-118788584D01*
X186212291Y-118885690D01*
X186209501Y-118889089D01*
X186142435Y-118970810D01*
X186057316Y-119040665D01*
X186057314Y-119040666D01*
X185968848Y-119087952D01*
X185960204Y-119092572D01*
X185854832Y-119124536D01*
X185854831Y-119124536D01*
X185854828Y-119124537D01*
X185745250Y-119135329D01*
X185635671Y-119124537D01*
X185635668Y-119124536D01*
X185635667Y-119124536D01*
X185530295Y-119092572D01*
X185530291Y-119092570D01*
X185433185Y-119040666D01*
X185389313Y-119004661D01*
X185348065Y-118970810D01*
X185278210Y-118885691D01*
X185226303Y-118788579D01*
X185194339Y-118683207D01*
X185194339Y-118683206D01*
X185194338Y-118683203D01*
X185186250Y-118601082D01*
X185186250Y-118090271D01*
X185183848Y-118065885D01*
X185176735Y-118042436D01*
X185165184Y-118020825D01*
X185149639Y-118001883D01*
X185130697Y-117986338D01*
X185109086Y-117974787D01*
X185085637Y-117967674D01*
X185061251Y-117965272D01*
X185036865Y-117967674D01*
X185013416Y-117974787D01*
X185002326Y-117980032D01*
X184976258Y-117993966D01*
X184955178Y-118000361D01*
X184927110Y-118003125D01*
X184600965Y-118003125D01*
X184576579Y-118005527D01*
X184553130Y-118012640D01*
X184531519Y-118024191D01*
X184512577Y-118039736D01*
X184497032Y-118058678D01*
X184485481Y-118080289D01*
X184478368Y-118103738D01*
X184475966Y-118128124D01*
X184478368Y-118152510D01*
X184485481Y-118175959D01*
X184497032Y-118197570D01*
X184512577Y-118216512D01*
X184531514Y-118232053D01*
X184574936Y-118261067D01*
X184627308Y-118313439D01*
X184668457Y-118375022D01*
X184689644Y-118426174D01*
X184696801Y-118443453D01*
X184711250Y-118516091D01*
X184711250Y-118590159D01*
X184698621Y-118653649D01*
X184696800Y-118662800D01*
X184668457Y-118731228D01*
X184627308Y-118792811D01*
X184574936Y-118845183D01*
X184513353Y-118886332D01*
X184444925Y-118914675D01*
X184444924Y-118914675D01*
X184444922Y-118914676D01*
X184372284Y-118929125D01*
X184298216Y-118929125D01*
X184225578Y-118914676D01*
X184225576Y-118914675D01*
X184225575Y-118914675D01*
X184157147Y-118886332D01*
X184095564Y-118845183D01*
X184043192Y-118792811D01*
X184002043Y-118731228D01*
X183973700Y-118662800D01*
X183971880Y-118653649D01*
X183959250Y-118590159D01*
X183959250Y-118516091D01*
X183973699Y-118443453D01*
X183980856Y-118426174D01*
X184002043Y-118375022D01*
X184043192Y-118313439D01*
X184095564Y-118261067D01*
X184138986Y-118232053D01*
X184157923Y-118216511D01*
X184173468Y-118197569D01*
X184185019Y-118175959D01*
X184192132Y-118152510D01*
X184194534Y-118128124D01*
X184192132Y-118103738D01*
X184185019Y-118080289D01*
X184173468Y-118058678D01*
X184157922Y-118039736D01*
X184138980Y-118024191D01*
X184117370Y-118012640D01*
X184093921Y-118005527D01*
X184069535Y-118003125D01*
X183663390Y-118003125D01*
X183635322Y-118000361D01*
X183614241Y-117993965D01*
X183594806Y-117983577D01*
X183569798Y-117963054D01*
X183549424Y-117949440D01*
X183526785Y-117940063D01*
X183502752Y-117935282D01*
X183478247Y-117935282D01*
X183454214Y-117940062D01*
X183431575Y-117949439D01*
X183411201Y-117963053D01*
X183393873Y-117980381D01*
X183384693Y-117991567D01*
X183379026Y-117996217D01*
X183372560Y-117999674D01*
X183365545Y-118001802D01*
X183352110Y-118003125D01*
X183038390Y-118003125D01*
X183024955Y-118001802D01*
X183017941Y-117999674D01*
X183004173Y-117992315D01*
X182981534Y-117982938D01*
X182957501Y-117978158D01*
X182932997Y-117978158D01*
X182908964Y-117982939D01*
X182886327Y-117992315D01*
X182872559Y-117999674D01*
X182865545Y-118001802D01*
X182852110Y-118003125D01*
X182538390Y-118003125D01*
X182524955Y-118001802D01*
X182517941Y-117999674D01*
X182504173Y-117992315D01*
X182481534Y-117982938D01*
X182457501Y-117978158D01*
X182432997Y-117978158D01*
X182408964Y-117982939D01*
X182386327Y-117992315D01*
X182372559Y-117999674D01*
X182365545Y-118001802D01*
X182352110Y-118003125D01*
X182038390Y-118003125D01*
X182024955Y-118001802D01*
X182017941Y-117999674D01*
X182006173Y-117993384D01*
X181983534Y-117984007D01*
X181959501Y-117979227D01*
X181934997Y-117979227D01*
X181910964Y-117984008D01*
X181888327Y-117993384D01*
X181876559Y-117999674D01*
X181869545Y-118001802D01*
X181856110Y-118003125D01*
X181542390Y-118003125D01*
X181528955Y-118001802D01*
X181521941Y-117999674D01*
X181506173Y-117991246D01*
X181483534Y-117981869D01*
X181459501Y-117977089D01*
X181434997Y-117977089D01*
X181410964Y-117981870D01*
X181388327Y-117991246D01*
X181372559Y-117999674D01*
X181365545Y-118001802D01*
X181352110Y-118003125D01*
X181038390Y-118003125D01*
X181024955Y-118001802D01*
X181017941Y-117999674D01*
X181004173Y-117992315D01*
X180981534Y-117982938D01*
X180957501Y-117978158D01*
X180932997Y-117978158D01*
X180908964Y-117982939D01*
X180886327Y-117992315D01*
X180872559Y-117999674D01*
X180865545Y-118001802D01*
X180852110Y-118003125D01*
X180538390Y-118003125D01*
X180524955Y-118001802D01*
X180517941Y-117999674D01*
X180504173Y-117992315D01*
X180481534Y-117982938D01*
X180457501Y-117978158D01*
X180432997Y-117978158D01*
X180408964Y-117982939D01*
X180386327Y-117992315D01*
X180372559Y-117999674D01*
X180365545Y-118001802D01*
X180352110Y-118003125D01*
X180038390Y-118003125D01*
X180024955Y-118001802D01*
X180017941Y-117999674D01*
X180004173Y-117992315D01*
X179981534Y-117982938D01*
X179957501Y-117978158D01*
X179932997Y-117978158D01*
X179908964Y-117982939D01*
X179886327Y-117992315D01*
X179872559Y-117999674D01*
X179865545Y-118001802D01*
X179852110Y-118003125D01*
X179538390Y-118003125D01*
X179524955Y-118001802D01*
X179517940Y-117999674D01*
X179511474Y-117996217D01*
X179505807Y-117991567D01*
X179496627Y-117980381D01*
X179479300Y-117963054D01*
X179458926Y-117949440D01*
X179436287Y-117940063D01*
X179412254Y-117935282D01*
X179387750Y-117935282D01*
X179363717Y-117940062D01*
X179341078Y-117949439D01*
X179320702Y-117963054D01*
X179295694Y-117983577D01*
X179276259Y-117993965D01*
X179255178Y-118000361D01*
X179227110Y-118003125D01*
X178820965Y-118003125D01*
X178796579Y-118005527D01*
X178773130Y-118012640D01*
X178751519Y-118024191D01*
X178732577Y-118039736D01*
X178717032Y-118058678D01*
X178705481Y-118080289D01*
X178698368Y-118103738D01*
X178695966Y-118128124D01*
X178698368Y-118152510D01*
X178705481Y-118175959D01*
X178717032Y-118197570D01*
X178732577Y-118216512D01*
X178751514Y-118232053D01*
X178794936Y-118261067D01*
X178847308Y-118313439D01*
X178888457Y-118375022D01*
X178909644Y-118426174D01*
X178916801Y-118443453D01*
X178931250Y-118516091D01*
X178931250Y-118590159D01*
X178918621Y-118653649D01*
X178916800Y-118662800D01*
X178888457Y-118731228D01*
X178847308Y-118792811D01*
X178794936Y-118845183D01*
X178733353Y-118886332D01*
X178664925Y-118914675D01*
X178664924Y-118914675D01*
X178664922Y-118914676D01*
X178592284Y-118929125D01*
X178518216Y-118929125D01*
X178445578Y-118914676D01*
X178445576Y-118914675D01*
X178445575Y-118914675D01*
X178377147Y-118886332D01*
X178315564Y-118845183D01*
X178263192Y-118792811D01*
X178222043Y-118731228D01*
X178193700Y-118662800D01*
X178191880Y-118653649D01*
X178179250Y-118590159D01*
X178179250Y-118516091D01*
X178193699Y-118443453D01*
X178200856Y-118426174D01*
X178222043Y-118375022D01*
X178263192Y-118313439D01*
X178315564Y-118261067D01*
X178358986Y-118232053D01*
X178377923Y-118216511D01*
X178393468Y-118197569D01*
X178405019Y-118175959D01*
X178412132Y-118152510D01*
X178414534Y-118128124D01*
X178412132Y-118103738D01*
X178405019Y-118080289D01*
X178393468Y-118058678D01*
X178377922Y-118039736D01*
X178358980Y-118024191D01*
X178337370Y-118012640D01*
X178313921Y-118005527D01*
X178289535Y-118003125D01*
X177963390Y-118003125D01*
X177935322Y-118000361D01*
X177914238Y-117993965D01*
X177888171Y-117980032D01*
X177865532Y-117970655D01*
X177841499Y-117965875D01*
X177816995Y-117965875D01*
X177792962Y-117970656D01*
X177770323Y-117980034D01*
X177749949Y-117993648D01*
X177732622Y-118010975D01*
X177719009Y-118031350D01*
X177709632Y-118053989D01*
X177704250Y-118090272D01*
X177704250Y-118601083D01*
X177696162Y-118683204D01*
X177696161Y-118683207D01*
X177696161Y-118683208D01*
X177664197Y-118788580D01*
X177664195Y-118788583D01*
X177664195Y-118788584D01*
X177612291Y-118885690D01*
X177609501Y-118889089D01*
X177542435Y-118970810D01*
X177457316Y-119040665D01*
X177457314Y-119040666D01*
X177368848Y-119087952D01*
X177360204Y-119092572D01*
X177254832Y-119124536D01*
X177254831Y-119124536D01*
X177254828Y-119124537D01*
X177145250Y-119135329D01*
X177035671Y-119124537D01*
X177035668Y-119124536D01*
X177035667Y-119124536D01*
X176930295Y-119092572D01*
X176930291Y-119092570D01*
X176833185Y-119040666D01*
X176789313Y-119004661D01*
X176748065Y-118970810D01*
X176678210Y-118885691D01*
X176626303Y-118788579D01*
X176594339Y-118683207D01*
X176594339Y-118683206D01*
X176594338Y-118683203D01*
X176586250Y-118601082D01*
X176586251Y-117403167D01*
X176594339Y-117321046D01*
X176609558Y-117270875D01*
X176626304Y-117215670D01*
X176626306Y-117215666D01*
X176678210Y-117118560D01*
X176748066Y-117033440D01*
X176833186Y-116963584D01*
X176930292Y-116911680D01*
X176930293Y-116911680D01*
X176930296Y-116911678D01*
X177035668Y-116879714D01*
X177035669Y-116879714D01*
X177035672Y-116879713D01*
X177145250Y-116868921D01*
X177254829Y-116879713D01*
X177254832Y-116879714D01*
X177254833Y-116879714D01*
X177360205Y-116911678D01*
X177360208Y-116911680D01*
X177360209Y-116911680D01*
X177457315Y-116963584D01*
X177542435Y-117033440D01*
X177616700Y-117123932D01*
X177622625Y-117132799D01*
X177639952Y-117150126D01*
X177660326Y-117163740D01*
X177682965Y-117173117D01*
X177706998Y-117177898D01*
X177731502Y-117177898D01*
X177755536Y-117173118D01*
X177778175Y-117163741D01*
X177798549Y-117150127D01*
X177815876Y-117132800D01*
X177829490Y-117112426D01*
X177838867Y-117089787D01*
X177843648Y-117065754D01*
X177844250Y-117053501D01*
X177844250Y-116570265D01*
X177847014Y-116542197D01*
X177853410Y-116521116D01*
X177863798Y-116501680D01*
X177877774Y-116484649D01*
X177894805Y-116470673D01*
X177914241Y-116460285D01*
X177935322Y-116453889D01*
X177963390Y-116451125D01*
X178427110Y-116451125D01*
X178455178Y-116453889D01*
X178455178Y-116453889D01*
G37*
G36*
X76674460Y-116548776D02*
G01*
X76702786Y-116557369D01*
X76728892Y-116571323D01*
X76751774Y-116590102D01*
X76753730Y-116592485D01*
X76754970Y-116593503D01*
X76765702Y-116604235D01*
X76786077Y-116617849D01*
X76808716Y-116627226D01*
X76832749Y-116632006D01*
X76857253Y-116632006D01*
X76881286Y-116627225D01*
X76903925Y-116617848D01*
X76924299Y-116604234D01*
X76935030Y-116593503D01*
X76936270Y-116592485D01*
X76938226Y-116590102D01*
X76961108Y-116571323D01*
X76987214Y-116557369D01*
X77015540Y-116548776D01*
X77044999Y-116545875D01*
X77045001Y-116545875D01*
X77074460Y-116548776D01*
X77102786Y-116557369D01*
X77128892Y-116571323D01*
X77151774Y-116590102D01*
X77153730Y-116592485D01*
X77154970Y-116593503D01*
X77165702Y-116604235D01*
X77186077Y-116617849D01*
X77208716Y-116627226D01*
X77232749Y-116632006D01*
X77257253Y-116632006D01*
X77281286Y-116627225D01*
X77303925Y-116617848D01*
X77324299Y-116604234D01*
X77335030Y-116593503D01*
X77336270Y-116592485D01*
X77338226Y-116590102D01*
X77361108Y-116571323D01*
X77387214Y-116557369D01*
X77415540Y-116548776D01*
X77444999Y-116545875D01*
X77445001Y-116545875D01*
X77474460Y-116548776D01*
X77502786Y-116557369D01*
X77528892Y-116571323D01*
X77551774Y-116590102D01*
X77553730Y-116592485D01*
X77554970Y-116593503D01*
X77565702Y-116604235D01*
X77586077Y-116617849D01*
X77608716Y-116627226D01*
X77632749Y-116632006D01*
X77657253Y-116632006D01*
X77681286Y-116627225D01*
X77703925Y-116617848D01*
X77724299Y-116604234D01*
X77735030Y-116593503D01*
X77736270Y-116592485D01*
X77738226Y-116590102D01*
X77761108Y-116571323D01*
X77787214Y-116557369D01*
X77815540Y-116548776D01*
X77844999Y-116545875D01*
X77845001Y-116545875D01*
X77874460Y-116548776D01*
X77902786Y-116557369D01*
X77928892Y-116571323D01*
X77951774Y-116590102D01*
X77953730Y-116592485D01*
X77954970Y-116593503D01*
X77965702Y-116604235D01*
X77986077Y-116617849D01*
X78008716Y-116627226D01*
X78032749Y-116632006D01*
X78057253Y-116632006D01*
X78081286Y-116627225D01*
X78103925Y-116617848D01*
X78124299Y-116604234D01*
X78135030Y-116593503D01*
X78136270Y-116592485D01*
X78138226Y-116590102D01*
X78161108Y-116571323D01*
X78187214Y-116557369D01*
X78215540Y-116548776D01*
X78244999Y-116545875D01*
X78245001Y-116545875D01*
X78274460Y-116548776D01*
X78302786Y-116557369D01*
X78328892Y-116571323D01*
X78351774Y-116590102D01*
X78353730Y-116592485D01*
X78354970Y-116593503D01*
X78365702Y-116604235D01*
X78386077Y-116617849D01*
X78408716Y-116627226D01*
X78432749Y-116632006D01*
X78457253Y-116632006D01*
X78481286Y-116627225D01*
X78503925Y-116617848D01*
X78524299Y-116604234D01*
X78535030Y-116593503D01*
X78536270Y-116592485D01*
X78538226Y-116590102D01*
X78561108Y-116571323D01*
X78587214Y-116557369D01*
X78615540Y-116548776D01*
X78644999Y-116545875D01*
X78645001Y-116545875D01*
X78674460Y-116548776D01*
X78702786Y-116557369D01*
X78728892Y-116571323D01*
X78751774Y-116590102D01*
X78753730Y-116592485D01*
X78754970Y-116593503D01*
X78765702Y-116604235D01*
X78786077Y-116617849D01*
X78808716Y-116627226D01*
X78832749Y-116632006D01*
X78857253Y-116632006D01*
X78881286Y-116627225D01*
X78903925Y-116617848D01*
X78924299Y-116604234D01*
X78935030Y-116593503D01*
X78936270Y-116592485D01*
X78938226Y-116590102D01*
X78961108Y-116571323D01*
X78987214Y-116557369D01*
X79015540Y-116548776D01*
X79044999Y-116545875D01*
X79045001Y-116545875D01*
X79074460Y-116548776D01*
X79102786Y-116557369D01*
X79128892Y-116571323D01*
X79151774Y-116590102D01*
X79170553Y-116612984D01*
X79184507Y-116639090D01*
X79193100Y-116667416D01*
X79196001Y-116696875D01*
X79196001Y-117321875D01*
X79193100Y-117351334D01*
X79184507Y-117379660D01*
X79170553Y-117405766D01*
X79151774Y-117428648D01*
X79128892Y-117447427D01*
X79102786Y-117461381D01*
X79074460Y-117469974D01*
X79045001Y-117472875D01*
X79044999Y-117472875D01*
X79015540Y-117469974D01*
X78987214Y-117461381D01*
X78961108Y-117447427D01*
X78938226Y-117428648D01*
X78936270Y-117426265D01*
X78935030Y-117425247D01*
X78924298Y-117414515D01*
X78903923Y-117400901D01*
X78881284Y-117391524D01*
X78857251Y-117386744D01*
X78832747Y-117386744D01*
X78808714Y-117391525D01*
X78786075Y-117400902D01*
X78765701Y-117414516D01*
X78754970Y-117425247D01*
X78753730Y-117426265D01*
X78751774Y-117428648D01*
X78728892Y-117447427D01*
X78702786Y-117461381D01*
X78674460Y-117469974D01*
X78645001Y-117472875D01*
X78644999Y-117472875D01*
X78615540Y-117469974D01*
X78587214Y-117461381D01*
X78561108Y-117447427D01*
X78538226Y-117428648D01*
X78536270Y-117426265D01*
X78535030Y-117425247D01*
X78524298Y-117414515D01*
X78503923Y-117400901D01*
X78481284Y-117391524D01*
X78457251Y-117386744D01*
X78432747Y-117386744D01*
X78408714Y-117391525D01*
X78386075Y-117400902D01*
X78365701Y-117414516D01*
X78354970Y-117425247D01*
X78353730Y-117426265D01*
X78351774Y-117428648D01*
X78328892Y-117447427D01*
X78302786Y-117461381D01*
X78274460Y-117469974D01*
X78245001Y-117472875D01*
X78244999Y-117472875D01*
X78215540Y-117469974D01*
X78187214Y-117461381D01*
X78161108Y-117447427D01*
X78138226Y-117428648D01*
X78136270Y-117426265D01*
X78135030Y-117425247D01*
X78124298Y-117414515D01*
X78103923Y-117400901D01*
X78081284Y-117391524D01*
X78057251Y-117386744D01*
X78032747Y-117386744D01*
X78008714Y-117391525D01*
X77986075Y-117400902D01*
X77965701Y-117414516D01*
X77954970Y-117425247D01*
X77953730Y-117426265D01*
X77951774Y-117428648D01*
X77928892Y-117447427D01*
X77902786Y-117461381D01*
X77874460Y-117469974D01*
X77845001Y-117472875D01*
X77844999Y-117472875D01*
X77815540Y-117469974D01*
X77787214Y-117461381D01*
X77761108Y-117447427D01*
X77738226Y-117428648D01*
X77736270Y-117426265D01*
X77735030Y-117425247D01*
X77724298Y-117414515D01*
X77703923Y-117400901D01*
X77681284Y-117391524D01*
X77657251Y-117386744D01*
X77632747Y-117386744D01*
X77608714Y-117391525D01*
X77586075Y-117400902D01*
X77565701Y-117414516D01*
X77554970Y-117425247D01*
X77553730Y-117426265D01*
X77551774Y-117428648D01*
X77528892Y-117447427D01*
X77502786Y-117461381D01*
X77474460Y-117469974D01*
X77445001Y-117472875D01*
X77444999Y-117472875D01*
X77415540Y-117469974D01*
X77387214Y-117461381D01*
X77361108Y-117447427D01*
X77338226Y-117428648D01*
X77336270Y-117426265D01*
X77335030Y-117425247D01*
X77324298Y-117414515D01*
X77303923Y-117400901D01*
X77281284Y-117391524D01*
X77257251Y-117386744D01*
X77232747Y-117386744D01*
X77208714Y-117391525D01*
X77186075Y-117400902D01*
X77165701Y-117414516D01*
X77154970Y-117425247D01*
X77153730Y-117426265D01*
X77151774Y-117428648D01*
X77128892Y-117447427D01*
X77102786Y-117461381D01*
X77074460Y-117469974D01*
X77045001Y-117472875D01*
X77044999Y-117472875D01*
X77015540Y-117469974D01*
X76987214Y-117461381D01*
X76961108Y-117447427D01*
X76938226Y-117428648D01*
X76936270Y-117426265D01*
X76935030Y-117425247D01*
X76924298Y-117414515D01*
X76903923Y-117400901D01*
X76881284Y-117391524D01*
X76857251Y-117386744D01*
X76832747Y-117386744D01*
X76808714Y-117391525D01*
X76786075Y-117400902D01*
X76765701Y-117414516D01*
X76754970Y-117425247D01*
X76753730Y-117426265D01*
X76751774Y-117428648D01*
X76728892Y-117447427D01*
X76702786Y-117461381D01*
X76674460Y-117469974D01*
X76645001Y-117472875D01*
X76644999Y-117472875D01*
X76615540Y-117469974D01*
X76587214Y-117461381D01*
X76561108Y-117447427D01*
X76538226Y-117428648D01*
X76519447Y-117405766D01*
X76505493Y-117379660D01*
X76496900Y-117351334D01*
X76493999Y-117321875D01*
X76493999Y-116696875D01*
X76496900Y-116667416D01*
X76505493Y-116639090D01*
X76519447Y-116612984D01*
X76538226Y-116590102D01*
X76561108Y-116571323D01*
X76587214Y-116557369D01*
X76615540Y-116548776D01*
X76644999Y-116545875D01*
X76645001Y-116545875D01*
X76674460Y-116548776D01*
X76674460Y-116548776D01*
G37*
M02*
