M48
; DRILL file {KiCad 5.1.4} date Thu 10 Oct 2019 02:32:10 AM -03
; FORMAT={-:-/ absolute / inch / decimal}
; #@! TF.CreationDate,2019-10-10T02:32:10-03:00
; #@! TF.GenerationSoftware,Kicad,Pcbnew,5.1.4
FMAT,2
INCH
T1C0.0236
T2C0.0276
T3C0.0315
T4C0.0390
T5C0.0394
T6C0.0400
T7C0.0472
T8C0.0591
T9C0.0600
T10C0.0709
T11C0.0256
T12C0.0670
T13C0.0748
T14C0.0827
T15C0.1339
T16C0.1570
T17C0.1673
%
G90
G05
T2
X6.1155Y-4.8245
X6.147Y-4.8717
X6.1785Y-4.8245
X6.21Y-4.8717
X6.2415Y-4.8245
T3
X8.8385Y-4.7817
X8.8385Y-5.1817
X3.4885Y-4.8517
X3.4885Y-5.1517
T4
X13.7085Y-5.1937
X12.6335Y-5.1937
T5
X10.5782Y-4.8283
X10.5782Y-4.9267
X10.5782Y-5.0251
X11.1491Y-4.8283
X11.1491Y-5.0251
T6
X13.6085Y-5.1937
X12.7335Y-5.1937
T7
X11.6835Y-4.7694
X11.8804Y-4.8521
T8
X12.585Y-4.8362
X12.7819Y-4.8165
T9
X13.5585Y-4.7942
X13.8085Y-4.8942
T11
X7.0297Y-4.6674
X7.2573Y-4.6674
T12
X13.4585Y-4.9942
X13.8585Y-4.9942
T13
X11.467Y-5.0017
X11.9Y-5.0017
T15
X11.6835Y-5.0017
T16
X13.6585Y-4.9942
X12.6835Y-4.9937
T17
X4.5685Y-4.6517
T1
G00X6.9742Y-4.6674
M15
G01X6.9742Y-4.6241
M16
G05
G00X6.9742Y-4.8229
M15
G01X6.9742Y-4.7993
M16
G05
G00X7.3128Y-4.6674
M15
G01X7.3128Y-4.6241
M16
G05
G00X7.3128Y-4.8229
M15
G01X7.3128Y-4.7993
M16
G05
T2
G00X7.0098Y-5.2358
M15
G01X7.0098Y-5.1217
M16
G05
G00X7.2972Y-5.2358
M15
G01X7.2972Y-5.1217
M16
G05
T3
G00X6.0328Y-4.8934
M15
G01X6.0328Y-4.85
M16
G05
G00X6.0328Y-5.0804
M15
G01X6.0328Y-5.0371
M16
G05
G00X6.3242Y-4.8934
M15
G01X6.3242Y-4.85
M16
G05
G00X6.3242Y-5.0804
M15
G01X6.3242Y-5.0371
M16
G05
T10
G00X10.8519Y-4.6806
M15
G01X10.8952Y-4.6806
M16
G05
G00X10.8519Y-5.1728
M15
G01X10.8952Y-5.1728
M16
G05
T14
G00X4.5958Y-5.2217
M15
G01X4.5013Y-5.2217
M16
G05
T0
M30
